<?xml version="1.0" encoding="UTF-8" standalone="no"?>
<!DOCTYPE svg PUBLIC "-//W3C//DTD SVG 1.1//EN"
 "http://www.w3.org/Graphics/SVG/1.1/DTD/svg11.dtd">
<!-- Generated by graphviz version 2.40.1 (20161225.0304)
 -->
<!-- Title: snakemake_dag Pages: 1 -->
<svg width="374pt" height="476pt"
 viewBox="0.00 0.00 373.50 476.00" xmlns="http://www.w3.org/2000/svg" xmlns:xlink="http://www.w3.org/1999/xlink">
<g id="graph0" class="graph" transform="scale(1 1) rotate(0) translate(4 472)">
<title>snakemake_dag</title>
<polygon fill="#ffffff" stroke="transparent" points="-4,4 -4,-472 369.5,-472 369.5,4 -4,4"/>
<!-- 0 -->
<g id="node1" class="node">
<title>0</title>
<path fill="none" stroke="#567bd8" stroke-width="2" d="M155.5,-36C155.5,-36 125.5,-36 125.5,-36 119.5,-36 113.5,-30 113.5,-24 113.5,-24 113.5,-12 113.5,-12 113.5,-6 119.5,0 125.5,0 125.5,0 155.5,0 155.5,0 161.5,0 167.5,-6 167.5,-12 167.5,-12 167.5,-24 167.5,-24 167.5,-30 161.5,-36 155.5,-36"/>
<text text-anchor="middle" x="140.5" y="-15.5" font-family="sans" font-size="10.00" fill="#000000">all</text>
</g>
<!-- 1 -->
<g id="node2" class="node">
<title>1</title>
<path fill="none" stroke="#56d86b" stroke-width="2" d="M114,-180C114,-180 39,-180 39,-180 33,-180 27,-174 27,-168 27,-168 27,-156 27,-156 27,-150 33,-144 39,-144 39,-144 114,-144 114,-144 120,-144 126,-150 126,-156 126,-156 126,-168 126,-168 126,-174 120,-180 114,-180"/>
<text text-anchor="middle" x="76.5" y="-159.5" font-family="sans" font-size="10.00" fill="#000000">multiqc_basecall</text>
</g>
<!-- 1&#45;&gt;0 -->
<g id="edge2" class="edge">
<title>1&#45;&gt;0</title>
<path fill="none" stroke="#c0c0c0" stroke-width="2" d="M84.6056,-143.7623C95.6179,-118.9846 115.4016,-74.4714 128.2361,-45.5939"/>
<polygon fill="#c0c0c0" stroke="#c0c0c0" stroke-width="2" points="131.5971,-46.6492 132.4602,-36.0896 125.2004,-43.8062 131.5971,-46.6492"/>
</g>
<!-- 2 -->
<g id="node3" class="node">
<title>2</title>
<path fill="none" stroke="#56d0d8" stroke-width="2" d="M250,-108C250,-108 157,-108 157,-108 151,-108 145,-102 145,-96 145,-96 145,-84 145,-84 145,-78 151,-72 157,-72 157,-72 250,-72 250,-72 256,-72 262,-78 262,-84 262,-84 262,-96 262,-96 262,-102 256,-108 250,-108"/>
<text text-anchor="middle" x="203.5" y="-87.5" font-family="sans" font-size="10.00" fill="#000000">multiqc_demultiplex</text>
</g>
<!-- 2&#45;&gt;0 -->
<g id="edge1" class="edge">
<title>2&#45;&gt;0</title>
<path fill="none" stroke="#c0c0c0" stroke-width="2" d="M187.6024,-71.8314C180.2722,-63.454 171.434,-53.3531 163.4031,-44.1749"/>
<polygon fill="#c0c0c0" stroke="#c0c0c0" stroke-width="2" points="165.8307,-41.6343 156.6116,-36.4133 160.5627,-46.2438 165.8307,-41.6343"/>
</g>
<!-- 3 -->
<g id="node4" class="node">
<title>3</title>
<path fill="none" stroke="#8fd856" stroke-width="2" d="M95,-252C95,-252 12,-252 12,-252 6,-252 0,-246 0,-240 0,-240 0,-228 0,-228 0,-222 6,-216 12,-216 12,-216 95,-216 95,-216 101,-216 107,-222 107,-228 107,-228 107,-240 107,-240 107,-246 101,-252 95,-252"/>
<text text-anchor="middle" x="53.5" y="-231.5" font-family="sans" font-size="10.00" fill="#000000">minionqc_basecall</text>
</g>
<!-- 3&#45;&gt;1 -->
<g id="edge3" class="edge">
<title>3&#45;&gt;1</title>
<path fill="none" stroke="#c0c0c0" stroke-width="2" d="M59.3039,-215.8314C61.7908,-208.0463 64.7531,-198.7729 67.5125,-190.1347"/>
<polygon fill="#c0c0c0" stroke="#c0c0c0" stroke-width="2" points="70.909,-191.0041 70.618,-180.4133 64.2409,-188.874 70.909,-191.0041"/>
</g>
<!-- 4 -->
<g id="node5" class="node">
<title>4</title>
<path fill="none" stroke="#d8cb56" stroke-width="2" d="M274,-180C274,-180 173,-180 173,-180 167,-180 161,-174 161,-168 161,-168 161,-156 161,-156 161,-150 167,-144 173,-144 173,-144 274,-144 274,-144 280,-144 286,-150 286,-156 286,-156 286,-168 286,-168 286,-174 280,-180 274,-180"/>
<text text-anchor="middle" x="223.5" y="-159.5" font-family="sans" font-size="10.00" fill="#000000">minionqc_demultiplex</text>
</g>
<!-- 4&#45;&gt;2 -->
<g id="edge4" class="edge">
<title>4&#45;&gt;2</title>
<path fill="none" stroke="#c0c0c0" stroke-width="2" d="M218.4532,-143.8314C216.2906,-136.0463 213.7147,-126.7729 211.3152,-118.1347"/>
<polygon fill="#c0c0c0" stroke="#c0c0c0" stroke-width="2" points="214.6636,-117.1117 208.6148,-108.4133 207.919,-118.9852 214.6636,-117.1117"/>
</g>
<!-- 5 -->
<g id="node6" class="node">
<title>5</title>
<path fill="none" stroke="#d85656" stroke-width="2" d="M166,-396C166,-396 83,-396 83,-396 77,-396 71,-390 71,-384 71,-384 71,-372 71,-372 71,-366 77,-360 83,-360 83,-360 166,-360 166,-360 172,-360 178,-366 178,-372 178,-372 178,-384 178,-384 178,-390 172,-396 166,-396"/>
<text text-anchor="middle" x="124.5" y="-375.5" font-family="sans" font-size="10.00" fill="#000000">guppy_basecalling</text>
</g>
<!-- 5&#45;&gt;3 -->
<g id="edge5" class="edge">
<title>5&#45;&gt;3</title>
<path fill="none" stroke="#c0c0c0" stroke-width="2" d="M87.6982,-359.8574C74.0404,-351.0627 60.0467,-339.0935 52.5,-324 42.9923,-304.9846 43.873,-280.7604 46.7856,-262.2349"/>
<polygon fill="#c0c0c0" stroke="#c0c0c0" stroke-width="2" points="50.2397,-262.8035 48.6155,-252.3339 43.3562,-261.5312 50.2397,-262.8035"/>
</g>
<!-- 7 -->
<g id="node8" class="node">
<title>7</title>
<path fill="none" stroke="#56a9d8" stroke-width="2" d="M175,-324C175,-324 74,-324 74,-324 68,-324 62,-318 62,-312 62,-312 62,-300 62,-300 62,-294 68,-288 74,-288 74,-288 175,-288 175,-288 181,-288 187,-294 187,-300 187,-300 187,-312 187,-312 187,-318 181,-324 175,-324"/>
<text text-anchor="middle" x="124.5" y="-303.5" font-family="sans" font-size="10.00" fill="#000000">guppy_demultiplexing</text>
</g>
<!-- 5&#45;&gt;7 -->
<g id="edge10" class="edge">
<title>5&#45;&gt;7</title>
<path fill="none" stroke="#c0c0c0" stroke-width="2" d="M124.5,-359.8314C124.5,-352.131 124.5,-342.9743 124.5,-334.4166"/>
<polygon fill="#c0c0c0" stroke="#c0c0c0" stroke-width="2" points="128.0001,-334.4132 124.5,-324.4133 121.0001,-334.4133 128.0001,-334.4132"/>
</g>
<!-- 8 -->
<g id="node9" class="node">
<title>8</title>
<path fill="none" stroke="#b6d856" stroke-width="2" d="M285.5,-324C285.5,-324 217.5,-324 217.5,-324 211.5,-324 205.5,-318 205.5,-312 205.5,-312 205.5,-300 205.5,-300 205.5,-294 211.5,-288 217.5,-288 217.5,-288 285.5,-288 285.5,-288 291.5,-288 297.5,-294 297.5,-300 297.5,-300 297.5,-312 297.5,-312 297.5,-318 291.5,-324 285.5,-324"/>
<text text-anchor="middle" x="251.5" y="-303.5" font-family="sans" font-size="10.00" fill="#000000">deepbinner_bin</text>
</g>
<!-- 5&#45;&gt;8 -->
<g id="edge11" class="edge">
<title>5&#45;&gt;8</title>
<path fill="none" stroke="#c0c0c0" stroke-width="2" d="M156.5475,-359.8314C172.942,-350.5368 193.0786,-339.1208 210.5829,-329.1971"/>
<polygon fill="#c0c0c0" stroke="#c0c0c0" stroke-width="2" points="212.4897,-332.1395 219.4628,-324.1628 209.0374,-326.05 212.4897,-332.1395"/>
</g>
<!-- 6 -->
<g id="node7" class="node">
<title>6</title>
<path fill="none" stroke="#56d892" stroke-width="2" d="M333.5,-252C333.5,-252 147.5,-252 147.5,-252 141.5,-252 135.5,-246 135.5,-240 135.5,-240 135.5,-228 135.5,-228 135.5,-222 141.5,-216 147.5,-216 147.5,-216 333.5,-216 333.5,-216 339.5,-216 345.5,-222 345.5,-228 345.5,-228 345.5,-240 345.5,-240 345.5,-246 339.5,-252 333.5,-252"/>
<text text-anchor="middle" x="240.5" y="-231.5" font-family="sans" font-size="10.00" fill="#000000">get_sequencing_summary_per_barcode</text>
</g>
<!-- 6&#45;&gt;4 -->
<g id="edge6" class="edge">
<title>6&#45;&gt;4</title>
<path fill="none" stroke="#c0c0c0" stroke-width="2" d="M236.2102,-215.8314C234.392,-208.131 232.2301,-198.9743 230.2095,-190.4166"/>
<polygon fill="#c0c0c0" stroke="#c0c0c0" stroke-width="2" points="233.5519,-189.3414 227.8476,-180.4133 226.7392,-190.95 233.5519,-189.3414"/>
</g>
<!-- 7&#45;&gt;6 -->
<g id="edge8" class="edge">
<title>7&#45;&gt;6</title>
<path fill="none" stroke="#c0c0c0" stroke-width="2" d="M153.7717,-287.8314C168.6088,-278.6221 186.8015,-267.3301 202.6862,-257.4706"/>
<polygon fill="#c0c0c0" stroke="#c0c0c0" stroke-width="2" points="204.587,-260.4102 211.2377,-252.1628 200.8955,-254.4628 204.587,-260.4102"/>
</g>
<!-- 8&#45;&gt;6 -->
<g id="edge9" class="edge">
<title>8&#45;&gt;6</title>
<path fill="none" stroke="#c0c0c0" stroke-width="2" d="M248.7242,-287.8314C247.5478,-280.131 246.1489,-270.9743 244.8414,-262.4166"/>
<polygon fill="#c0c0c0" stroke="#c0c0c0" stroke-width="2" points="248.2833,-261.7699 243.3131,-252.4133 241.3636,-262.8272 248.2833,-261.7699"/>
</g>
<!-- 9 -->
<g id="node10" class="node">
<title>9</title>
<path fill="none" stroke="#68d856" stroke-width="2" d="M353.5,-396C353.5,-396 237.5,-396 237.5,-396 231.5,-396 225.5,-390 225.5,-384 225.5,-384 225.5,-372 225.5,-372 225.5,-366 231.5,-360 237.5,-360 237.5,-360 353.5,-360 353.5,-360 359.5,-360 365.5,-366 365.5,-372 365.5,-372 365.5,-384 365.5,-384 365.5,-390 359.5,-396 353.5,-396"/>
<text text-anchor="middle" x="295.5" y="-375.5" font-family="sans" font-size="10.00" fill="#000000">deepbinner_classification</text>
</g>
<!-- 9&#45;&gt;6 -->
<g id="edge7" class="edge">
<title>9&#45;&gt;6</title>
<path fill="none" stroke="#c0c0c0" stroke-width="2" d="M303.2772,-359.829C310.1146,-340.9638 317.4202,-311.0444 306.5,-288 300.9471,-276.2821 291.4683,-266.2614 281.3999,-258.1482"/>
<polygon fill="#c0c0c0" stroke="#c0c0c0" stroke-width="2" points="283.3649,-255.2472 273.2625,-252.0546 279.169,-260.8503 283.3649,-255.2472"/>
</g>
<!-- 9&#45;&gt;8 -->
<g id="edge12" class="edge">
<title>9&#45;&gt;8</title>
<path fill="none" stroke="#c0c0c0" stroke-width="2" d="M284.3969,-359.8314C279.4326,-351.7079 273.4778,-341.9637 268.0072,-333.0118"/>
<polygon fill="#c0c0c0" stroke="#c0c0c0" stroke-width="2" points="270.9536,-331.121 262.7526,-324.4133 264.9806,-334.7712 270.9536,-331.121"/>
</g>
<!-- 10 -->
<g id="node11" class="node">
<title>10</title>
<path fill="none" stroke="#d87d56" stroke-width="2" d="M344.5,-468C344.5,-468 246.5,-468 246.5,-468 240.5,-468 234.5,-462 234.5,-456 234.5,-456 234.5,-444 234.5,-444 234.5,-438 240.5,-432 246.5,-432 246.5,-432 344.5,-432 344.5,-432 350.5,-432 356.5,-438 356.5,-444 356.5,-444 356.5,-456 356.5,-456 356.5,-462 350.5,-468 344.5,-468"/>
<text text-anchor="middle" x="295.5" y="-447.5" font-family="sans" font-size="10.00" fill="#000000">multi_to_single_fast5</text>
</g>
<!-- 10&#45;&gt;9 -->
<g id="edge13" class="edge">
<title>10&#45;&gt;9</title>
<path fill="none" stroke="#c0c0c0" stroke-width="2" d="M295.5,-431.8314C295.5,-424.131 295.5,-414.9743 295.5,-406.4166"/>
<polygon fill="#c0c0c0" stroke="#c0c0c0" stroke-width="2" points="299.0001,-406.4132 295.5,-396.4133 292.0001,-406.4133 299.0001,-406.4132"/>
</g>
</g>
</svg>
