<?xml version="1.0" encoding="UTF-8" standalone="no"?>
<!DOCTYPE svg PUBLIC "-//W3C//DTD SVG 1.1//EN"
 "http://www.w3.org/Graphics/SVG/1.1/DTD/svg11.dtd">
<!-- Generated by graphviz version 2.42.3 (20191010.1750)
 -->
<!-- Title: snakemake_dag Pages: 1 -->
<svg width="449pt" height="620pt"
 viewBox="0.00 0.00 449.00 620.00" xmlns="http://www.w3.org/2000/svg" xmlns:xlink="http://www.w3.org/1999/xlink">
<g id="graph0" class="graph" transform="scale(1 1) rotate(0) translate(4 616)">
<title>snakemake_dag</title>
<polygon fill="white" stroke="transparent" points="-4,4 -4,-616 445,-616 445,4 -4,4"/>
<!-- 0 -->
<g id="node1" class="node">
<title>0</title>
<path fill="none" stroke="#56d8a9" stroke-width="2" d="M181.5,-36C181.5,-36 151.5,-36 151.5,-36 145.5,-36 139.5,-30 139.5,-24 139.5,-24 139.5,-12 139.5,-12 139.5,-6 145.5,0 151.5,0 151.5,0 181.5,0 181.5,0 187.5,0 193.5,-6 193.5,-12 193.5,-12 193.5,-24 193.5,-24 193.5,-30 187.5,-36 181.5,-36"/>
<text text-anchor="middle" x="166.5" y="-15.5" font-family="sans" font-size="10.00">finish</text>
</g>
<!-- 1 -->
<g id="node2" class="node">
<title>1</title>
<path fill="none" stroke="#56c9d8" stroke-width="2" d="M352,-180C352,-180 259,-180 259,-180 253,-180 247,-174 247,-168 247,-168 247,-156 247,-156 247,-150 253,-144 259,-144 259,-144 352,-144 352,-144 358,-144 364,-150 364,-156 364,-156 364,-168 364,-168 364,-174 358,-180 352,-180"/>
<text text-anchor="middle" x="305.5" y="-159.5" font-family="sans" font-size="10.00">multiqc_demultiplex</text>
</g>
<!-- 1&#45;&gt;0 -->
<g id="edge4" class="edge">
<title>1&#45;&gt;0</title>
<path fill="none" stroke="grey" stroke-width="2" d="M336.27,-143.91C349.04,-135.02 362.5,-122.88 369.5,-108 376.31,-93.52 379.28,-84.66 369.5,-72 349.41,-45.99 256.76,-30.31 203.84,-23.33"/>
<polygon fill="grey" stroke="grey" stroke-width="2" points="204.18,-19.84 193.82,-22.04 203.29,-26.78 204.18,-19.84"/>
</g>
<!-- 4 -->
<g id="node5" class="node">
<title>4</title>
<path fill="none" stroke="#d88d56" stroke-width="2" d="M348.5,-108C348.5,-108 262.5,-108 262.5,-108 256.5,-108 250.5,-102 250.5,-96 250.5,-96 250.5,-84 250.5,-84 250.5,-78 256.5,-72 262.5,-72 262.5,-72 348.5,-72 348.5,-72 354.5,-72 360.5,-78 360.5,-84 360.5,-84 360.5,-96 360.5,-96 360.5,-102 354.5,-108 348.5,-108"/>
<text text-anchor="middle" x="305.5" y="-87.5" font-family="sans" font-size="10.00">report_demultiplex</text>
</g>
<!-- 1&#45;&gt;4 -->
<g id="edge10" class="edge">
<title>1&#45;&gt;4</title>
<path fill="none" stroke="grey" stroke-width="2" d="M305.5,-143.7C305.5,-135.98 305.5,-126.71 305.5,-118.11"/>
<polygon fill="grey" stroke="grey" stroke-width="2" points="309,-118.1 305.5,-108.1 302,-118.1 309,-118.1"/>
</g>
<!-- 2 -->
<g id="node3" class="node">
<title>2</title>
<path fill="none" stroke="#d8cb56" stroke-width="2" d="M212.5,-252C212.5,-252 78.5,-252 78.5,-252 72.5,-252 66.5,-246 66.5,-240 66.5,-240 66.5,-228 66.5,-228 66.5,-222 72.5,-216 78.5,-216 78.5,-216 212.5,-216 212.5,-216 218.5,-216 224.5,-222 224.5,-228 224.5,-228 224.5,-240 224.5,-240 224.5,-246 218.5,-252 212.5,-252"/>
<text text-anchor="middle" x="145.5" y="-231.5" font-family="sans" font-size="10.00">get_multi_fast5_per_barcode</text>
</g>
<!-- 2&#45;&gt;0 -->
<g id="edge3" class="edge">
<title>2&#45;&gt;0</title>
<path fill="none" stroke="grey" stroke-width="2" d="M131.07,-215.86C107.52,-185.65 65.88,-121.48 91.5,-72 99.82,-55.94 115.49,-43.7 130.37,-35.06"/>
<polygon fill="grey" stroke="grey" stroke-width="2" points="132.33,-37.98 139.46,-30.14 129,-31.82 132.33,-37.98"/>
</g>
<!-- 5 -->
<g id="node6" class="node">
<title>5</title>
<path fill="none" stroke="#56d892" stroke-width="2" d="M220,-108C220,-108 113,-108 113,-108 107,-108 101,-102 101,-96 101,-96 101,-84 101,-84 101,-78 107,-72 113,-72 113,-72 220,-72 220,-72 226,-72 232,-78 232,-84 232,-84 232,-96 232,-96 232,-102 226,-108 220,-108"/>
<text text-anchor="middle" x="166.5" y="-87.5" font-family="sans" font-size="10.00">get_reads_per_genome</text>
</g>
<!-- 2&#45;&gt;5 -->
<g id="edge11" class="edge">
<title>2&#45;&gt;5</title>
<path fill="none" stroke="grey" stroke-width="2" d="M148.03,-215.87C151.61,-191.67 158.19,-147.21 162.45,-118.39"/>
<polygon fill="grey" stroke="grey" stroke-width="2" points="165.96,-118.59 163.96,-108.19 159.03,-117.57 165.96,-118.59"/>
</g>
<!-- 3 -->
<g id="node4" class="node">
<title>3</title>
<path fill="none" stroke="#d85656" stroke-width="2" d="M87,-324C87,-324 12,-324 12,-324 6,-324 0,-318 0,-312 0,-312 0,-300 0,-300 0,-294 6,-288 12,-288 12,-288 87,-288 87,-288 93,-288 99,-294 99,-300 99,-300 99,-312 99,-312 99,-318 93,-324 87,-324"/>
<text text-anchor="middle" x="49.5" y="-303.5" font-family="sans" font-size="10.00">multiqc_basecall</text>
</g>
<!-- 3&#45;&gt;0 -->
<g id="edge1" class="edge">
<title>3&#45;&gt;0</title>
<path fill="none" stroke="grey" stroke-width="2" d="M46.88,-287.73C41.59,-246.52 33.71,-140.74 79.5,-72 91.52,-53.95 111.99,-41.03 130.05,-32.47"/>
<polygon fill="grey" stroke="grey" stroke-width="2" points="131.51,-35.65 139.22,-28.39 128.66,-29.26 131.51,-35.65"/>
</g>
<!-- 4&#45;&gt;0 -->
<g id="edge2" class="edge">
<title>4&#45;&gt;0</title>
<path fill="none" stroke="grey" stroke-width="2" d="M271.5,-71.88C250.63,-61.37 223.94,-47.92 202.68,-37.22"/>
<polygon fill="grey" stroke="grey" stroke-width="2" points="204.15,-34.04 193.64,-32.67 201,-40.29 204.15,-34.04"/>
</g>
<!-- 5&#45;&gt;0 -->
<g id="edge5" class="edge">
<title>5&#45;&gt;0</title>
<path fill="none" stroke="grey" stroke-width="2" d="M166.5,-71.7C166.5,-63.98 166.5,-54.71 166.5,-46.11"/>
<polygon fill="grey" stroke="grey" stroke-width="2" points="170,-46.1 166.5,-36.1 163,-46.1 170,-46.1"/>
</g>
<!-- 6 -->
<g id="node7" class="node">
<title>6</title>
<path fill="none" stroke="#59d856" stroke-width="2" d="M356,-252C356,-252 255,-252 255,-252 249,-252 243,-246 243,-240 243,-240 243,-228 243,-228 243,-222 249,-216 255,-216 255,-216 356,-216 356,-216 362,-216 368,-222 368,-228 368,-228 368,-240 368,-240 368,-246 362,-252 356,-252"/>
<text text-anchor="middle" x="305.5" y="-231.5" font-family="sans" font-size="10.00">minionqc_demultiplex</text>
</g>
<!-- 6&#45;&gt;1 -->
<g id="edge6" class="edge">
<title>6&#45;&gt;1</title>
<path fill="none" stroke="grey" stroke-width="2" d="M305.5,-215.7C305.5,-207.98 305.5,-198.71 305.5,-190.11"/>
<polygon fill="grey" stroke="grey" stroke-width="2" points="309,-190.1 305.5,-180.1 302,-190.1 309,-190.1"/>
</g>
<!-- 7 -->
<g id="node8" class="node">
<title>7</title>
<path fill="none" stroke="#56d8c9" stroke-width="2" d="M384.5,-324C384.5,-324 198.5,-324 198.5,-324 192.5,-324 186.5,-318 186.5,-312 186.5,-312 186.5,-300 186.5,-300 186.5,-294 192.5,-288 198.5,-288 198.5,-288 384.5,-288 384.5,-288 390.5,-288 396.5,-294 396.5,-300 396.5,-300 396.5,-312 396.5,-312 396.5,-318 390.5,-324 384.5,-324"/>
<text text-anchor="middle" x="291.5" y="-303.5" font-family="sans" font-size="10.00">get_sequencing_summary_per_barcode</text>
</g>
<!-- 7&#45;&gt;2 -->
<g id="edge7" class="edge">
<title>7&#45;&gt;2</title>
<path fill="none" stroke="grey" stroke-width="2" d="M255.78,-287.88C236,-278.39 211.23,-266.51 190.17,-256.42"/>
<polygon fill="grey" stroke="grey" stroke-width="2" points="191.63,-253.24 181.1,-252.07 188.6,-259.55 191.63,-253.24"/>
</g>
<!-- 7&#45;&gt;6 -->
<g id="edge12" class="edge">
<title>7&#45;&gt;6</title>
<path fill="none" stroke="grey" stroke-width="2" d="M294.96,-287.7C296.5,-279.98 298.36,-270.71 300.08,-262.11"/>
<polygon fill="grey" stroke="grey" stroke-width="2" points="303.55,-262.6 302.08,-252.1 296.69,-261.22 303.55,-262.6"/>
</g>
<!-- 8 -->
<g id="node9" class="node">
<title>8</title>
<path fill="none" stroke="#c6d856" stroke-width="2" d="M224,-612C224,-612 141,-612 141,-612 135,-612 129,-606 129,-600 129,-600 129,-588 129,-588 129,-582 135,-576 141,-576 141,-576 224,-576 224,-576 230,-576 236,-582 236,-588 236,-588 236,-600 236,-600 236,-606 230,-612 224,-612"/>
<text text-anchor="middle" x="182.5" y="-591.5" font-family="sans" font-size="10.00">guppy_basecalling</text>
</g>
<!-- 8&#45;&gt;2 -->
<g id="edge8" class="edge">
<title>8&#45;&gt;2</title>
<path fill="none" stroke="grey" stroke-width="2" d="M174.81,-575.91C163.71,-549.62 144.5,-497.45 144.5,-451 144.5,-451 144.5,-451 144.5,-377 144.5,-337 144.9,-290.65 145.2,-262.08"/>
<polygon fill="grey" stroke="grey" stroke-width="2" points="148.7,-262.09 145.3,-252.05 141.7,-262.01 148.7,-262.09"/>
</g>
<!-- 9 -->
<g id="node10" class="node">
<title>9</title>
<path fill="none" stroke="#56d873" stroke-width="2" d="M102,-540C102,-540 19,-540 19,-540 13,-540 7,-534 7,-528 7,-528 7,-516 7,-516 7,-510 13,-504 19,-504 19,-504 102,-504 102,-504 108,-504 114,-510 114,-516 114,-516 114,-528 114,-528 114,-534 108,-540 102,-540"/>
<text text-anchor="middle" x="60.5" y="-519.5" font-family="sans" font-size="10.00">minionqc_basecall</text>
</g>
<!-- 8&#45;&gt;9 -->
<g id="edge15" class="edge">
<title>8&#45;&gt;9</title>
<path fill="none" stroke="grey" stroke-width="2" d="M152.66,-575.88C136.56,-566.64 116.5,-555.13 99.21,-545.21"/>
<polygon fill="grey" stroke="grey" stroke-width="2" points="100.87,-542.13 90.46,-540.19 97.39,-548.2 100.87,-542.13"/>
</g>
<!-- 10 -->
<g id="node11" class="node">
<title>10</title>
<path fill="none" stroke="#5673d8" stroke-width="2" d="M285.5,-396C285.5,-396 217.5,-396 217.5,-396 211.5,-396 205.5,-390 205.5,-384 205.5,-384 205.5,-372 205.5,-372 205.5,-366 211.5,-360 217.5,-360 217.5,-360 285.5,-360 285.5,-360 291.5,-360 297.5,-366 297.5,-372 297.5,-372 297.5,-384 297.5,-384 297.5,-390 291.5,-396 285.5,-396"/>
<text text-anchor="middle" x="251.5" y="-375.5" font-family="sans" font-size="10.00">deepbinner_bin</text>
</g>
<!-- 8&#45;&gt;10 -->
<g id="edge16" class="edge">
<title>8&#45;&gt;10</title>
<path fill="none" stroke="grey" stroke-width="2" d="M181.1,-575.59C179.36,-544.98 178.99,-480.2 201.5,-432 206.46,-421.38 214.38,-411.51 222.46,-403.23"/>
<polygon fill="grey" stroke="grey" stroke-width="2" points="225.09,-405.56 229.85,-396.1 220.23,-400.52 225.09,-405.56"/>
</g>
<!-- 11 -->
<g id="node12" class="node">
<title>11</title>
<path fill="none" stroke="#d8ac56" stroke-width="2" d="M429,-396C429,-396 328,-396 328,-396 322,-396 316,-390 316,-384 316,-384 316,-372 316,-372 316,-366 322,-360 328,-360 328,-360 429,-360 429,-360 435,-360 441,-366 441,-372 441,-372 441,-384 441,-384 441,-390 435,-396 429,-396"/>
<text text-anchor="middle" x="378.5" y="-375.5" font-family="sans" font-size="10.00">guppy_demultiplexing</text>
</g>
<!-- 8&#45;&gt;11 -->
<g id="edge18" class="edge">
<title>8&#45;&gt;11</title>
<path fill="none" stroke="grey" stroke-width="2" d="M236.24,-589.43C272.55,-584.12 318.75,-571.18 346.5,-540 379.46,-502.96 382.4,-441.89 380.9,-406.57"/>
<polygon fill="grey" stroke="grey" stroke-width="2" points="384.39,-406.27 380.32,-396.49 377.4,-406.68 384.39,-406.27"/>
</g>
<!-- 13 -->
<g id="node14" class="node">
<title>13</title>
<path fill="none" stroke="#d87556" stroke-width="2" d="M325.5,-540C325.5,-540 227.5,-540 227.5,-540 221.5,-540 215.5,-534 215.5,-528 215.5,-528 215.5,-516 215.5,-516 215.5,-510 221.5,-504 227.5,-504 227.5,-504 325.5,-504 325.5,-504 331.5,-504 337.5,-510 337.5,-516 337.5,-516 337.5,-528 337.5,-528 337.5,-534 331.5,-540 325.5,-540"/>
<text text-anchor="middle" x="276.5" y="-519.5" font-family="sans" font-size="10.00">multi_to_single_fast5</text>
</g>
<!-- 8&#45;&gt;13 -->
<g id="edge20" class="edge">
<title>8&#45;&gt;13</title>
<path fill="none" stroke="grey" stroke-width="2" d="M205.74,-575.7C217.69,-566.8 232.42,-555.82 245.35,-546.2"/>
<polygon fill="grey" stroke="grey" stroke-width="2" points="247.6,-548.88 253.53,-540.1 243.42,-543.27 247.6,-548.88"/>
</g>
<!-- 9&#45;&gt;3 -->
<g id="edge9" class="edge">
<title>9&#45;&gt;3</title>
<path fill="none" stroke="grey" stroke-width="2" d="M59.62,-503.85C57.72,-466.83 53.21,-379.18 50.91,-334.39"/>
<polygon fill="grey" stroke="grey" stroke-width="2" points="54.39,-334.04 50.39,-324.23 47.4,-334.4 54.39,-334.04"/>
</g>
<!-- 10&#45;&gt;7 -->
<g id="edge14" class="edge">
<title>10&#45;&gt;7</title>
<path fill="none" stroke="grey" stroke-width="2" d="M261.39,-359.7C265.99,-351.64 271.56,-341.89 276.65,-332.98"/>
<polygon fill="grey" stroke="grey" stroke-width="2" points="279.8,-334.52 281.73,-324.1 273.73,-331.05 279.8,-334.52"/>
</g>
<!-- 11&#45;&gt;7 -->
<g id="edge13" class="edge">
<title>11&#45;&gt;7</title>
<path fill="none" stroke="grey" stroke-width="2" d="M356.99,-359.7C346.04,-350.88 332.55,-340.03 320.68,-330.47"/>
<polygon fill="grey" stroke="grey" stroke-width="2" points="322.74,-327.65 312.76,-324.1 318.36,-333.1 322.74,-327.65"/>
</g>
<!-- 12 -->
<g id="node13" class="node">
<title>12</title>
<path fill="none" stroke="#56a9d8" stroke-width="2" d="M338.5,-468C338.5,-468 222.5,-468 222.5,-468 216.5,-468 210.5,-462 210.5,-456 210.5,-456 210.5,-444 210.5,-444 210.5,-438 216.5,-432 222.5,-432 222.5,-432 338.5,-432 338.5,-432 344.5,-432 350.5,-438 350.5,-444 350.5,-444 350.5,-456 350.5,-456 350.5,-462 344.5,-468 338.5,-468"/>
<text text-anchor="middle" x="280.5" y="-447.5" font-family="sans" font-size="10.00">deepbinner_classification</text>
</g>
<!-- 12&#45;&gt;10 -->
<g id="edge17" class="edge">
<title>12&#45;&gt;10</title>
<path fill="none" stroke="grey" stroke-width="2" d="M273.33,-431.7C270.07,-423.81 266.13,-414.3 262.5,-405.55"/>
<polygon fill="grey" stroke="grey" stroke-width="2" points="265.65,-404 258.59,-396.1 259.18,-406.68 265.65,-404"/>
</g>
<!-- 13&#45;&gt;12 -->
<g id="edge19" class="edge">
<title>13&#45;&gt;12</title>
<path fill="none" stroke="grey" stroke-width="2" d="M277.49,-503.7C277.93,-495.98 278.46,-486.71 278.95,-478.11"/>
<polygon fill="grey" stroke="grey" stroke-width="2" points="282.45,-478.29 279.52,-468.1 275.46,-477.89 282.45,-478.29"/>
</g>
</g>
</svg>
