<?xml version="1.0" encoding="UTF-8" standalone="no"?>
<!DOCTYPE svg PUBLIC "-//W3C//DTD SVG 1.1//EN"
 "http://www.w3.org/Graphics/SVG/1.1/DTD/svg11.dtd">
<!-- Generated by graphviz version 2.42.3 (20191010.1750)
 -->
<!-- Title: snakemake_dag Pages: 1 -->
<svg width="196pt" height="260pt"
 viewBox="0.00 0.00 195.50 260.00" xmlns="http://www.w3.org/2000/svg" xmlns:xlink="http://www.w3.org/1999/xlink">
<g id="graph0" class="graph" transform="scale(1 1) rotate(0) translate(4 256)">
<title>snakemake_dag</title>
<polygon fill="white" stroke="transparent" points="-4,4 -4,-256 191.5,-256 191.5,4 -4,4"/>
<!-- 0 -->
<g id="node1" class="node">
<title>0</title>
<path fill="none" stroke="#68d856" stroke-width="2" d="M119.5,-36C119.5,-36 89.5,-36 89.5,-36 83.5,-36 77.5,-30 77.5,-24 77.5,-24 77.5,-12 77.5,-12 77.5,-6 83.5,0 89.5,0 89.5,0 119.5,0 119.5,0 125.5,0 131.5,-6 131.5,-12 131.5,-12 131.5,-24 131.5,-24 131.5,-30 125.5,-36 119.5,-36"/>
<text text-anchor="middle" x="104.5" y="-15.5" font-family="sans" font-size="10.00">finish</text>
</g>
<!-- 1 -->
<g id="node2" class="node">
<title>1</title>
<path fill="none" stroke="#56d8d8" stroke-width="2" d="M95,-108C95,-108 20,-108 20,-108 14,-108 8,-102 8,-96 8,-96 8,-84 8,-84 8,-78 14,-72 20,-72 20,-72 95,-72 95,-72 101,-72 107,-78 107,-84 107,-84 107,-96 107,-96 107,-102 101,-108 95,-108"/>
<text text-anchor="middle" x="57.5" y="-87.5" font-family="sans" font-size="10.00">multiqc_basecall</text>
</g>
<!-- 1&#45;&gt;0 -->
<g id="edge1" class="edge">
<title>1&#45;&gt;0</title>
<path fill="none" stroke="grey" stroke-width="2" d="M69.12,-71.7C74.64,-63.47 81.35,-53.48 87.43,-44.42"/>
<polygon fill="grey" stroke="grey" stroke-width="2" points="90.35,-46.36 93.02,-36.1 84.54,-42.46 90.35,-46.36"/>
</g>
<!-- 2 -->
<g id="node3" class="node">
<title>2</title>
<path fill="none" stroke="#d6d856" stroke-width="2" d="M169.5,-108C169.5,-108 139.5,-108 139.5,-108 133.5,-108 127.5,-102 127.5,-96 127.5,-96 127.5,-84 127.5,-84 127.5,-78 133.5,-72 139.5,-72 139.5,-72 169.5,-72 169.5,-72 175.5,-72 181.5,-78 181.5,-84 181.5,-84 181.5,-96 181.5,-96 181.5,-102 175.5,-108 169.5,-108"/>
<text text-anchor="middle" x="154.5" y="-87.5" font-family="sans" font-size="10.00">filtlong</text>
</g>
<!-- 2&#45;&gt;0 -->
<g id="edge2" class="edge">
<title>2&#45;&gt;0</title>
<path fill="none" stroke="grey" stroke-width="2" d="M142.14,-71.7C136.27,-63.47 129.13,-53.48 122.66,-44.42"/>
<polygon fill="grey" stroke="grey" stroke-width="2" points="125.38,-42.21 116.72,-36.1 119.68,-46.28 125.38,-42.21"/>
</g>
<!-- 3 -->
<g id="node4" class="node">
<title>3</title>
<path fill="none" stroke="#d88d56" stroke-width="2" d="M95,-180C95,-180 12,-180 12,-180 6,-180 0,-174 0,-168 0,-168 0,-156 0,-156 0,-150 6,-144 12,-144 12,-144 95,-144 95,-144 101,-144 107,-150 107,-156 107,-156 107,-168 107,-168 107,-174 101,-180 95,-180"/>
<text text-anchor="middle" x="53.5" y="-159.5" font-family="sans" font-size="10.00">minionqc_basecall</text>
</g>
<!-- 3&#45;&gt;1 -->
<g id="edge3" class="edge">
<title>3&#45;&gt;1</title>
<path fill="none" stroke="grey" stroke-width="2" d="M54.49,-143.7C54.93,-135.98 55.46,-126.71 55.95,-118.11"/>
<polygon fill="grey" stroke="grey" stroke-width="2" points="59.45,-118.29 56.52,-108.1 52.46,-117.89 59.45,-118.29"/>
</g>
<!-- 4 -->
<g id="node5" class="node">
<title>4</title>
<path fill="none" stroke="#d8c356" stroke-width="2" d="M175.5,-180C175.5,-180 137.5,-180 137.5,-180 131.5,-180 125.5,-174 125.5,-168 125.5,-168 125.5,-156 125.5,-156 125.5,-150 131.5,-144 137.5,-144 137.5,-144 175.5,-144 175.5,-144 181.5,-144 187.5,-150 187.5,-156 187.5,-156 187.5,-168 187.5,-168 187.5,-174 181.5,-180 175.5,-180"/>
<text text-anchor="middle" x="156.5" y="-159.5" font-family="sans" font-size="10.00">porechop</text>
</g>
<!-- 4&#45;&gt;2 -->
<g id="edge4" class="edge">
<title>4&#45;&gt;2</title>
<path fill="none" stroke="grey" stroke-width="2" d="M156.01,-143.7C155.79,-135.98 155.52,-126.71 155.27,-118.11"/>
<polygon fill="grey" stroke="grey" stroke-width="2" points="158.77,-118 154.99,-108.1 151.78,-118.2 158.77,-118"/>
</g>
<!-- 5 -->
<g id="node6" class="node">
<title>5</title>
<path fill="none" stroke="#78d856" stroke-width="2" d="M146,-252C146,-252 63,-252 63,-252 57,-252 51,-246 51,-240 51,-240 51,-228 51,-228 51,-222 57,-216 63,-216 63,-216 146,-216 146,-216 152,-216 158,-222 158,-228 158,-228 158,-240 158,-240 158,-246 152,-252 146,-252"/>
<text text-anchor="middle" x="104.5" y="-231.5" font-family="sans" font-size="10.00">guppy_basecalling</text>
</g>
<!-- 5&#45;&gt;3 -->
<g id="edge5" class="edge">
<title>5&#45;&gt;3</title>
<path fill="none" stroke="grey" stroke-width="2" d="M91.89,-215.7C85.9,-207.47 78.62,-197.48 72.02,-188.42"/>
<polygon fill="grey" stroke="grey" stroke-width="2" points="74.68,-186.13 65.96,-180.1 69.02,-190.25 74.68,-186.13"/>
</g>
<!-- 5&#45;&gt;4 -->
<g id="edge6" class="edge">
<title>5&#45;&gt;4</title>
<path fill="none" stroke="grey" stroke-width="2" d="M117.35,-215.7C123.53,-207.39 131.04,-197.28 137.82,-188.14"/>
<polygon fill="grey" stroke="grey" stroke-width="2" points="140.64,-190.22 143.79,-180.1 135.02,-186.04 140.64,-190.22"/>
</g>
</g>
</svg>
