<?xml version="1.0" encoding="UTF-8" standalone="no"?>
<!DOCTYPE svg PUBLIC "-//W3C//DTD SVG 1.1//EN"
 "http://www.w3.org/Graphics/SVG/1.1/DTD/svg11.dtd">
<!-- Generated by graphviz version 2.40.1 (20161225.0304)
 -->
<!-- Title: snakemake_dag Pages: 1 -->
<svg width="394pt" height="548pt"
 viewBox="0.00 0.00 393.50 548.00" xmlns="http://www.w3.org/2000/svg" xmlns:xlink="http://www.w3.org/1999/xlink">
<g id="graph0" class="graph" transform="scale(1 1) rotate(0) translate(4 544)">
<title>snakemake_dag</title>
<polygon fill="#ffffff" stroke="transparent" points="-4,4 -4,-544 389.5,-544 389.5,4 -4,4"/>
<!-- 0 -->
<g id="node1" class="node">
<title>0</title>
<path fill="none" stroke="#d89556" stroke-width="2" d="M159.5,-36C159.5,-36 129.5,-36 129.5,-36 123.5,-36 117.5,-30 117.5,-24 117.5,-24 117.5,-12 117.5,-12 117.5,-6 123.5,0 129.5,0 129.5,0 159.5,0 159.5,0 165.5,0 171.5,-6 171.5,-12 171.5,-12 171.5,-24 171.5,-24 171.5,-30 165.5,-36 159.5,-36"/>
<text text-anchor="middle" x="144.5" y="-15.5" font-family="sans" font-size="10.00" fill="#000000">finish</text>
</g>
<!-- 1 -->
<g id="node2" class="node">
<title>1</title>
<path fill="none" stroke="#56d8a2" stroke-width="2" d="M87,-324C87,-324 12,-324 12,-324 6,-324 0,-318 0,-312 0,-312 0,-300 0,-300 0,-294 6,-288 12,-288 12,-288 87,-288 87,-288 93,-288 99,-294 99,-300 99,-300 99,-312 99,-312 99,-318 93,-324 87,-324"/>
<text text-anchor="middle" x="49.5" y="-303.5" font-family="sans" font-size="10.00" fill="#000000">multiqc_basecall</text>
</g>
<!-- 1&#45;&gt;0 -->
<g id="edge1" class="edge">
<title>1&#45;&gt;0</title>
<path fill="none" stroke="#c0c0c0" stroke-width="2" d="M47.0726,-287.9049C43.6654,-257.32 39.6198,-193.8631 56.5,-144 69.6444,-105.1723 98.7057,-67.5684 119.8455,-43.7034"/>
<polygon fill="#c0c0c0" stroke="#c0c0c0" stroke-width="2" points="122.5618,-45.918 126.6765,-36.1548 117.3715,-41.2211 122.5618,-45.918"/>
</g>
<!-- 2 -->
<g id="node3" class="node">
<title>2</title>
<path fill="none" stroke="#d87556" stroke-width="2" d="M314,-108C314,-108 221,-108 221,-108 215,-108 209,-102 209,-96 209,-96 209,-84 209,-84 209,-78 215,-72 221,-72 221,-72 314,-72 314,-72 320,-72 326,-78 326,-84 326,-84 326,-96 326,-96 326,-102 320,-108 314,-108"/>
<text text-anchor="middle" x="267.5" y="-87.5" font-family="sans" font-size="10.00" fill="#000000">multiqc_demultiplex</text>
</g>
<!-- 2&#45;&gt;0 -->
<g id="edge2" class="edge">
<title>2&#45;&gt;0</title>
<path fill="none" stroke="#c0c0c0" stroke-width="2" d="M236.4619,-71.8314C219.4929,-61.8983 198.3846,-49.5422 180.6724,-39.1741"/>
<polygon fill="#c0c0c0" stroke="#c0c0c0" stroke-width="2" points="182.1578,-35.9881 171.7595,-33.9568 178.6215,-42.0292 182.1578,-35.9881"/>
</g>
<!-- 3 -->
<g id="node4" class="node">
<title>3</title>
<path fill="none" stroke="#5673d8" stroke-width="2" d="M211.5,-180C211.5,-180 77.5,-180 77.5,-180 71.5,-180 65.5,-174 65.5,-168 65.5,-168 65.5,-156 65.5,-156 65.5,-150 71.5,-144 77.5,-144 77.5,-144 211.5,-144 211.5,-144 217.5,-144 223.5,-150 223.5,-156 223.5,-156 223.5,-168 223.5,-168 223.5,-174 217.5,-180 211.5,-180"/>
<text text-anchor="middle" x="144.5" y="-159.5" font-family="sans" font-size="10.00" fill="#000000">get_multi_fast5_per_barcode</text>
</g>
<!-- 3&#45;&gt;0 -->
<g id="edge3" class="edge">
<title>3&#45;&gt;0</title>
<path fill="none" stroke="#c0c0c0" stroke-width="2" d="M144.5,-143.7623C144.5,-119.201 144.5,-75.2474 144.5,-46.3541"/>
<polygon fill="#c0c0c0" stroke="#c0c0c0" stroke-width="2" points="148.0001,-46.0896 144.5,-36.0896 141.0001,-46.0897 148.0001,-46.0896"/>
</g>
<!-- 4 -->
<g id="node5" class="node">
<title>4</title>
<path fill="none" stroke="#bed856" stroke-width="2" d="M97,-396C97,-396 14,-396 14,-396 8,-396 2,-390 2,-384 2,-384 2,-372 2,-372 2,-366 8,-360 14,-360 14,-360 97,-360 97,-360 103,-360 109,-366 109,-372 109,-372 109,-384 109,-384 109,-390 103,-396 97,-396"/>
<text text-anchor="middle" x="55.5" y="-375.5" font-family="sans" font-size="10.00" fill="#000000">minionqc_basecall</text>
</g>
<!-- 4&#45;&gt;1 -->
<g id="edge4" class="edge">
<title>4&#45;&gt;1</title>
<path fill="none" stroke="#c0c0c0" stroke-width="2" d="M53.9859,-359.8314C53.3442,-352.131 52.5812,-342.9743 51.8681,-334.4166"/>
<polygon fill="#c0c0c0" stroke="#c0c0c0" stroke-width="2" points="55.3529,-334.088 51.0344,-324.4133 48.3771,-334.6694 55.3529,-334.088"/>
</g>
<!-- 5 -->
<g id="node6" class="node">
<title>5</title>
<path fill="none" stroke="#d8b456" stroke-width="2" d="M354,-180C354,-180 253,-180 253,-180 247,-180 241,-174 241,-168 241,-168 241,-156 241,-156 241,-150 247,-144 253,-144 253,-144 354,-144 354,-144 360,-144 366,-150 366,-156 366,-156 366,-168 366,-168 366,-174 360,-180 354,-180"/>
<text text-anchor="middle" x="303.5" y="-159.5" font-family="sans" font-size="10.00" fill="#000000">minionqc_demultiplex</text>
</g>
<!-- 5&#45;&gt;2 -->
<g id="edge5" class="edge">
<title>5&#45;&gt;2</title>
<path fill="none" stroke="#c0c0c0" stroke-width="2" d="M294.4157,-143.8314C290.4385,-135.8771 285.6845,-126.369 281.2861,-117.5723"/>
<polygon fill="#c0c0c0" stroke="#c0c0c0" stroke-width="2" points="284.3093,-115.7923 276.7066,-108.4133 278.0483,-118.9228 284.3093,-115.7923"/>
</g>
<!-- 6 -->
<g id="node7" class="node">
<title>6</title>
<path fill="none" stroke="#56d0d8" stroke-width="2" d="M373.5,-252C373.5,-252 187.5,-252 187.5,-252 181.5,-252 175.5,-246 175.5,-240 175.5,-240 175.5,-228 175.5,-228 175.5,-222 181.5,-216 187.5,-216 187.5,-216 373.5,-216 373.5,-216 379.5,-216 385.5,-222 385.5,-228 385.5,-228 385.5,-240 385.5,-240 385.5,-246 379.5,-252 373.5,-252"/>
<text text-anchor="middle" x="280.5" y="-231.5" font-family="sans" font-size="10.00" fill="#000000">get_sequencing_summary_per_barcode</text>
</g>
<!-- 6&#45;&gt;3 -->
<g id="edge6" class="edge">
<title>6&#45;&gt;3</title>
<path fill="none" stroke="#c0c0c0" stroke-width="2" d="M246.1815,-215.8314C228.4641,-206.4516 206.6655,-194.9112 187.8016,-184.9244"/>
<polygon fill="#c0c0c0" stroke="#c0c0c0" stroke-width="2" points="189.2831,-181.7485 178.8076,-180.1628 186.0078,-187.935 189.2831,-181.7485"/>
</g>
<!-- 6&#45;&gt;5 -->
<g id="edge9" class="edge">
<title>6&#45;&gt;5</title>
<path fill="none" stroke="#c0c0c0" stroke-width="2" d="M286.3039,-215.8314C288.7908,-208.0463 291.7531,-198.7729 294.5125,-190.1347"/>
<polygon fill="#c0c0c0" stroke="#c0c0c0" stroke-width="2" points="297.909,-191.0041 297.618,-180.4133 291.2409,-188.874 297.909,-191.0041"/>
</g>
<!-- 7 -->
<g id="node8" class="node">
<title>7</title>
<path fill="none" stroke="#5692d8" stroke-width="2" d="M201,-540C201,-540 118,-540 118,-540 112,-540 106,-534 106,-528 106,-528 106,-516 106,-516 106,-510 112,-504 118,-504 118,-504 201,-504 201,-504 207,-504 213,-510 213,-516 213,-516 213,-528 213,-528 213,-534 207,-540 201,-540"/>
<text text-anchor="middle" x="159.5" y="-519.5" font-family="sans" font-size="10.00" fill="#000000">guppy_basecalling</text>
</g>
<!-- 7&#45;&gt;3 -->
<g id="edge7" class="edge">
<title>7&#45;&gt;3</title>
<path fill="none" stroke="#c0c0c0" stroke-width="2" d="M155.5632,-503.9156C149.998,-476.7281 140.5,-423.6422 140.5,-378 140.5,-378 140.5,-378 140.5,-306 140.5,-265.8605 142.0722,-219.4516 143.2453,-190.4112"/>
<polygon fill="#c0c0c0" stroke="#c0c0c0" stroke-width="2" points="146.7521,-190.3179 143.6712,-180.1809 139.7581,-190.0266 146.7521,-190.3179"/>
</g>
<!-- 7&#45;&gt;4 -->
<g id="edge8" class="edge">
<title>7&#45;&gt;4</title>
<path fill="none" stroke="#c0c0c0" stroke-width="2" d="M146.3283,-503.7623C128.1989,-478.66 95.4401,-433.3017 74.6151,-404.4671"/>
<polygon fill="#c0c0c0" stroke="#c0c0c0" stroke-width="2" points="77.2571,-402.1472 68.5647,-396.0896 71.5823,-406.2457 77.2571,-402.1472"/>
</g>
<!-- 8 -->
<g id="node9" class="node">
<title>8</title>
<path fill="none" stroke="#68d856" stroke-width="2" d="M248.5,-324C248.5,-324 180.5,-324 180.5,-324 174.5,-324 168.5,-318 168.5,-312 168.5,-312 168.5,-300 168.5,-300 168.5,-294 174.5,-288 180.5,-288 180.5,-288 248.5,-288 248.5,-288 254.5,-288 260.5,-294 260.5,-300 260.5,-300 260.5,-312 260.5,-312 260.5,-318 254.5,-324 248.5,-324"/>
<text text-anchor="middle" x="214.5" y="-303.5" font-family="sans" font-size="10.00" fill="#000000">deepbinner_bin</text>
</g>
<!-- 7&#45;&gt;8 -->
<g id="edge12" class="edge">
<title>7&#45;&gt;8</title>
<path fill="none" stroke="#c0c0c0" stroke-width="2" d="M163.2818,-503.9098C169.6674,-473.857 183.2872,-411.8186 197.5,-360 199.8288,-351.5093 202.6094,-342.3489 205.2403,-334.027"/>
<polygon fill="#c0c0c0" stroke="#c0c0c0" stroke-width="2" points="208.6088,-334.9848 208.335,-324.3935 201.9442,-332.8438 208.6088,-334.9848"/>
</g>
<!-- 10 -->
<g id="node11" class="node">
<title>10</title>
<path fill="none" stroke="#56d882" stroke-width="2" d="M320.5,-468C320.5,-468 222.5,-468 222.5,-468 216.5,-468 210.5,-462 210.5,-456 210.5,-456 210.5,-444 210.5,-444 210.5,-438 216.5,-432 222.5,-432 222.5,-432 320.5,-432 320.5,-432 326.5,-432 332.5,-438 332.5,-444 332.5,-444 332.5,-456 332.5,-456 332.5,-462 326.5,-468 320.5,-468"/>
<text text-anchor="middle" x="271.5" y="-447.5" font-family="sans" font-size="10.00" fill="#000000">multi_to_single_fast5</text>
</g>
<!-- 7&#45;&gt;10 -->
<g id="edge15" class="edge">
<title>7&#45;&gt;10</title>
<path fill="none" stroke="#c0c0c0" stroke-width="2" d="M187.7623,-503.8314C201.9552,-494.7074 219.3282,-483.539 234.5636,-473.7449"/>
<polygon fill="#c0c0c0" stroke="#c0c0c0" stroke-width="2" points="236.7276,-476.5146 243.2467,-468.1628 232.9422,-470.6263 236.7276,-476.5146"/>
</g>
<!-- 8&#45;&gt;6 -->
<g id="edge11" class="edge">
<title>8&#45;&gt;6</title>
<path fill="none" stroke="#c0c0c0" stroke-width="2" d="M231.1546,-287.8314C238.9114,-279.3694 248.2802,-269.1489 256.761,-259.8971"/>
<polygon fill="#c0c0c0" stroke="#c0c0c0" stroke-width="2" points="259.4439,-262.1499 263.6212,-252.4133 254.2838,-257.4198 259.4439,-262.1499"/>
</g>
<!-- 9 -->
<g id="node10" class="node">
<title>9</title>
<path fill="none" stroke="#88d856" stroke-width="2" d="M334.5,-396C334.5,-396 218.5,-396 218.5,-396 212.5,-396 206.5,-390 206.5,-384 206.5,-384 206.5,-372 206.5,-372 206.5,-366 212.5,-360 218.5,-360 218.5,-360 334.5,-360 334.5,-360 340.5,-360 346.5,-366 346.5,-372 346.5,-372 346.5,-384 346.5,-384 346.5,-390 340.5,-396 334.5,-396"/>
<text text-anchor="middle" x="276.5" y="-375.5" font-family="sans" font-size="10.00" fill="#000000">deepbinner_classification</text>
</g>
<!-- 9&#45;&gt;6 -->
<g id="edge10" class="edge">
<title>9&#45;&gt;6</title>
<path fill="none" stroke="#c0c0c0" stroke-width="2" d="M277.0066,-359.7623C277.6889,-335.201 278.9098,-291.2474 279.7124,-262.3541"/>
<polygon fill="#c0c0c0" stroke="#c0c0c0" stroke-width="2" points="283.2184,-262.183 279.9975,-252.0896 276.2211,-261.9885 283.2184,-262.183"/>
</g>
<!-- 9&#45;&gt;8 -->
<g id="edge13" class="edge">
<title>9&#45;&gt;8</title>
<path fill="none" stroke="#c0c0c0" stroke-width="2" d="M260.8548,-359.8314C253.6409,-351.454 244.943,-341.3531 237.0395,-332.1749"/>
<polygon fill="#c0c0c0" stroke="#c0c0c0" stroke-width="2" points="239.5333,-329.7071 230.3559,-324.4133 234.2289,-334.2748 239.5333,-329.7071"/>
</g>
<!-- 10&#45;&gt;9 -->
<g id="edge14" class="edge">
<title>10&#45;&gt;9</title>
<path fill="none" stroke="#c0c0c0" stroke-width="2" d="M272.7617,-431.8314C273.2965,-424.131 273.9323,-414.9743 274.5266,-406.4166"/>
<polygon fill="#c0c0c0" stroke="#c0c0c0" stroke-width="2" points="278.02,-406.6317 275.2213,-396.4133 271.0368,-406.1467 278.02,-406.6317"/>
</g>
</g>
</svg>
