<?xml version="1.0" encoding="UTF-8" standalone="no"?>
<!DOCTYPE svg PUBLIC "-//W3C//DTD SVG 1.1//EN"
 "http://www.w3.org/Graphics/SVG/1.1/DTD/svg11.dtd">
<!-- Generated by graphviz version 2.42.3 (20191010.1750)
 -->
<!-- Title: snakemake_dag Pages: 1 -->
<svg width="498pt" height="620pt"
 viewBox="0.00 0.00 497.50 620.00" xmlns="http://www.w3.org/2000/svg" xmlns:xlink="http://www.w3.org/1999/xlink">
<g id="graph0" class="graph" transform="scale(1 1) rotate(0) translate(4 616)">
<title>snakemake_dag</title>
<polygon fill="white" stroke="transparent" points="-4,4 -4,-616 493.5,-616 493.5,4 -4,4"/>
<!-- 0 -->
<g id="node1" class="node">
<title>0</title>
<path fill="none" stroke="#56d892" stroke-width="2" d="M266,-36C266,-36 236,-36 236,-36 230,-36 224,-30 224,-24 224,-24 224,-12 224,-12 224,-6 230,0 236,0 236,0 266,0 266,0 272,0 278,-6 278,-12 278,-12 278,-24 278,-24 278,-30 272,-36 266,-36"/>
<text text-anchor="middle" x="251" y="-15.5" font-family="sans" font-size="10.00">finish</text>
</g>
<!-- 1 -->
<g id="node2" class="node">
<title>1</title>
<path fill="none" stroke="#5673d8" stroke-width="2" d="M155.5,-180C155.5,-180 62.5,-180 62.5,-180 56.5,-180 50.5,-174 50.5,-168 50.5,-168 50.5,-156 50.5,-156 50.5,-150 56.5,-144 62.5,-144 62.5,-144 155.5,-144 155.5,-144 161.5,-144 167.5,-150 167.5,-156 167.5,-156 167.5,-168 167.5,-168 167.5,-174 161.5,-180 155.5,-180"/>
<text text-anchor="middle" x="109" y="-159.5" font-family="sans" font-size="10.00">multiqc_demultiplex</text>
</g>
<!-- 1&#45;&gt;0 -->
<g id="edge5" class="edge">
<title>1&#45;&gt;0</title>
<path fill="none" stroke="grey" stroke-width="2" d="M134.48,-143.98C148.3,-134.2 165.31,-121.25 179,-108 199.34,-88.31 219.33,-62.97 233.07,-44.38"/>
<polygon fill="grey" stroke="grey" stroke-width="2" points="236.05,-46.24 239.1,-36.09 230.39,-42.12 236.05,-46.24"/>
</g>
<!-- 4 -->
<g id="node5" class="node">
<title>4</title>
<path fill="none" stroke="#d88d56" stroke-width="2" d="M158,-108C158,-108 72,-108 72,-108 66,-108 60,-102 60,-96 60,-96 60,-84 60,-84 60,-78 66,-72 72,-72 72,-72 158,-72 158,-72 164,-72 170,-78 170,-84 170,-84 170,-96 170,-96 170,-102 164,-108 158,-108"/>
<text text-anchor="middle" x="115" y="-87.5" font-family="sans" font-size="10.00">report_demultiplex</text>
</g>
<!-- 1&#45;&gt;4 -->
<g id="edge10" class="edge">
<title>1&#45;&gt;4</title>
<path fill="none" stroke="grey" stroke-width="2" d="M110.48,-143.7C111.14,-135.98 111.94,-126.71 112.68,-118.11"/>
<polygon fill="grey" stroke="grey" stroke-width="2" points="116.17,-118.37 113.53,-108.1 109.19,-117.77 116.17,-118.37"/>
</g>
<!-- 2 -->
<g id="node3" class="node">
<title>2</title>
<path fill="none" stroke="#d87556" stroke-width="2" d="M412,-252C412,-252 278,-252 278,-252 272,-252 266,-246 266,-240 266,-240 266,-228 266,-228 266,-222 272,-216 278,-216 278,-216 412,-216 412,-216 418,-216 424,-222 424,-228 424,-228 424,-240 424,-240 424,-246 418,-252 412,-252"/>
<text text-anchor="middle" x="345" y="-231.5" font-family="sans" font-size="10.00">get_multi_fast5_per_barcode</text>
</g>
<!-- 2&#45;&gt;0 -->
<g id="edge2" class="edge">
<title>2&#45;&gt;0</title>
<path fill="none" stroke="grey" stroke-width="2" d="M343.04,-215.78C340.56,-197.49 335.44,-167.96 326,-144 311.54,-107.3 286.89,-68.96 269.81,-44.57"/>
<polygon fill="grey" stroke="grey" stroke-width="2" points="272.54,-42.37 263.9,-36.25 266.84,-46.43 272.54,-42.37"/>
</g>
<!-- 5 -->
<g id="node6" class="node">
<title>5</title>
<path fill="none" stroke="#70d856" stroke-width="2" d="M304.5,-180C304.5,-180 197.5,-180 197.5,-180 191.5,-180 185.5,-174 185.5,-168 185.5,-168 185.5,-156 185.5,-156 185.5,-150 191.5,-144 197.5,-144 197.5,-144 304.5,-144 304.5,-144 310.5,-144 316.5,-150 316.5,-156 316.5,-156 316.5,-168 316.5,-168 316.5,-174 310.5,-180 304.5,-180"/>
<text text-anchor="middle" x="251" y="-159.5" font-family="sans" font-size="10.00">get_reads_per_genome</text>
</g>
<!-- 2&#45;&gt;5 -->
<g id="edge11" class="edge">
<title>2&#45;&gt;5</title>
<path fill="none" stroke="grey" stroke-width="2" d="M321.76,-215.7C309.81,-206.8 295.08,-195.82 282.15,-186.2"/>
<polygon fill="grey" stroke="grey" stroke-width="2" points="284.08,-183.27 273.97,-180.1 279.9,-188.88 284.08,-183.27"/>
</g>
<!-- 3 -->
<g id="node4" class="node">
<title>3</title>
<path fill="none" stroke="#c6d856" stroke-width="2" d="M477.5,-396C477.5,-396 402.5,-396 402.5,-396 396.5,-396 390.5,-390 390.5,-384 390.5,-384 390.5,-372 390.5,-372 390.5,-366 396.5,-360 402.5,-360 402.5,-360 477.5,-360 477.5,-360 483.5,-360 489.5,-366 489.5,-372 489.5,-372 489.5,-384 489.5,-384 489.5,-390 483.5,-396 477.5,-396"/>
<text text-anchor="middle" x="440" y="-375.5" font-family="sans" font-size="10.00">multiqc_basecall</text>
</g>
<!-- 3&#45;&gt;0 -->
<g id="edge3" class="edge">
<title>3&#45;&gt;0</title>
<path fill="none" stroke="grey" stroke-width="2" d="M442.37,-359.99C445.87,-333.38 452,-280.28 452,-235 452,-235 452,-235 452,-161 452,-81.6 346.07,-42.65 288.01,-27.26"/>
<polygon fill="grey" stroke="grey" stroke-width="2" points="288.66,-23.81 278.11,-24.74 286.94,-30.6 288.66,-23.81"/>
</g>
<!-- 4&#45;&gt;0 -->
<g id="edge1" class="edge">
<title>4&#45;&gt;0</title>
<path fill="none" stroke="grey" stroke-width="2" d="M148.27,-71.88C168.32,-61.56 193.87,-48.4 214.48,-37.8"/>
<polygon fill="grey" stroke="grey" stroke-width="2" points="216.27,-40.81 223.56,-33.12 213.07,-34.59 216.27,-40.81"/>
</g>
<!-- 5&#45;&gt;0 -->
<g id="edge4" class="edge">
<title>5&#45;&gt;0</title>
<path fill="none" stroke="grey" stroke-width="2" d="M251,-143.87C251,-119.67 251,-75.21 251,-46.39"/>
<polygon fill="grey" stroke="grey" stroke-width="2" points="254.5,-46.19 251,-36.19 247.5,-46.19 254.5,-46.19"/>
</g>
<!-- 6 -->
<g id="node7" class="node">
<title>6</title>
<path fill="none" stroke="#56d8c9" stroke-width="2" d="M157.5,-252C157.5,-252 56.5,-252 56.5,-252 50.5,-252 44.5,-246 44.5,-240 44.5,-240 44.5,-228 44.5,-228 44.5,-222 50.5,-216 56.5,-216 56.5,-216 157.5,-216 157.5,-216 163.5,-216 169.5,-222 169.5,-228 169.5,-228 169.5,-240 169.5,-240 169.5,-246 163.5,-252 157.5,-252"/>
<text text-anchor="middle" x="107" y="-231.5" font-family="sans" font-size="10.00">minionqc_demultiplex</text>
</g>
<!-- 6&#45;&gt;1 -->
<g id="edge6" class="edge">
<title>6&#45;&gt;1</title>
<path fill="none" stroke="grey" stroke-width="2" d="M107.49,-215.7C107.71,-207.98 107.98,-198.71 108.23,-190.11"/>
<polygon fill="grey" stroke="grey" stroke-width="2" points="111.72,-190.2 108.51,-180.1 104.73,-190 111.72,-190.2"/>
</g>
<!-- 7 -->
<g id="node8" class="node">
<title>7</title>
<path fill="none" stroke="#afd856" stroke-width="2" d="M198,-324C198,-324 12,-324 12,-324 6,-324 0,-318 0,-312 0,-312 0,-300 0,-300 0,-294 6,-288 12,-288 12,-288 198,-288 198,-288 204,-288 210,-294 210,-300 210,-300 210,-312 210,-312 210,-318 204,-324 198,-324"/>
<text text-anchor="middle" x="105" y="-303.5" font-family="sans" font-size="10.00">get_sequencing_summary_per_barcode</text>
</g>
<!-- 7&#45;&gt;2 -->
<g id="edge8" class="edge">
<title>7&#45;&gt;2</title>
<path fill="none" stroke="grey" stroke-width="2" d="M163.4,-287.97C197.52,-278.01 240.75,-265.41 276.47,-254.99"/>
<polygon fill="grey" stroke="grey" stroke-width="2" points="277.71,-258.27 286.33,-252.11 275.75,-251.55 277.71,-258.27"/>
</g>
<!-- 7&#45;&gt;6 -->
<g id="edge13" class="edge">
<title>7&#45;&gt;6</title>
<path fill="none" stroke="grey" stroke-width="2" d="M105.49,-287.7C105.71,-279.98 105.98,-270.71 106.23,-262.11"/>
<polygon fill="grey" stroke="grey" stroke-width="2" points="109.72,-262.2 106.51,-252.1 102.73,-262 109.72,-262.2"/>
</g>
<!-- 8 -->
<g id="node9" class="node">
<title>8</title>
<path fill="none" stroke="#56d8a9" stroke-width="2" d="M347.5,-612C347.5,-612 264.5,-612 264.5,-612 258.5,-612 252.5,-606 252.5,-600 252.5,-600 252.5,-588 252.5,-588 252.5,-582 258.5,-576 264.5,-576 264.5,-576 347.5,-576 347.5,-576 353.5,-576 359.5,-582 359.5,-588 359.5,-588 359.5,-600 359.5,-600 359.5,-606 353.5,-612 347.5,-612"/>
<text text-anchor="middle" x="306" y="-591.5" font-family="sans" font-size="10.00">guppy_basecalling</text>
</g>
<!-- 8&#45;&gt;2 -->
<g id="edge7" class="edge">
<title>8&#45;&gt;2</title>
<path fill="none" stroke="grey" stroke-width="2" d="M315.32,-575.63C328.5,-549.41 351,-497.81 351,-451 351,-451 351,-451 351,-377 351,-336.96 348.59,-290.63 346.82,-262.07"/>
<polygon fill="grey" stroke="grey" stroke-width="2" points="350.31,-261.8 346.19,-252.04 343.33,-262.24 350.31,-261.8"/>
</g>
<!-- 9 -->
<g id="node10" class="node">
<title>9</title>
<path fill="none" stroke="#5692d8" stroke-width="2" d="M476.5,-540C476.5,-540 393.5,-540 393.5,-540 387.5,-540 381.5,-534 381.5,-528 381.5,-528 381.5,-516 381.5,-516 381.5,-510 387.5,-504 393.5,-504 393.5,-504 476.5,-504 476.5,-504 482.5,-504 488.5,-510 488.5,-516 488.5,-516 488.5,-528 488.5,-528 488.5,-534 482.5,-540 476.5,-540"/>
<text text-anchor="middle" x="435" y="-519.5" font-family="sans" font-size="10.00">minionqc_basecall</text>
</g>
<!-- 8&#45;&gt;9 -->
<g id="edge15" class="edge">
<title>8&#45;&gt;9</title>
<path fill="none" stroke="grey" stroke-width="2" d="M337.56,-575.88C354.66,-566.6 375.98,-555.03 394.32,-545.08"/>
<polygon fill="grey" stroke="grey" stroke-width="2" points="396.2,-548.04 403.32,-540.19 392.86,-541.88 396.2,-548.04"/>
</g>
<!-- 10 -->
<g id="node11" class="node">
<title>10</title>
<path fill="none" stroke="#56a9d8" stroke-width="2" d="M233,-396C233,-396 165,-396 165,-396 159,-396 153,-390 153,-384 153,-384 153,-372 153,-372 153,-366 159,-360 165,-360 165,-360 233,-360 233,-360 239,-360 245,-366 245,-372 245,-372 245,-384 245,-384 245,-390 239,-396 233,-396"/>
<text text-anchor="middle" x="199" y="-375.5" font-family="sans" font-size="10.00">deepbinner_bin</text>
</g>
<!-- 8&#45;&gt;10 -->
<g id="edge16" class="edge">
<title>8&#45;&gt;10</title>
<path fill="none" stroke="grey" stroke-width="2" d="M252.38,-581.2C228.92,-573.35 203.12,-560.55 187,-540 157.16,-501.96 163.43,-479.18 174,-432 176.01,-423.01 179.73,-413.75 183.7,-405.53"/>
<polygon fill="grey" stroke="grey" stroke-width="2" points="186.91,-406.94 188.37,-396.44 180.68,-403.73 186.91,-406.94"/>
</g>
<!-- 12 -->
<g id="node13" class="node">
<title>12</title>
<path fill="none" stroke="#56d873" stroke-width="2" d="M306,-540C306,-540 208,-540 208,-540 202,-540 196,-534 196,-528 196,-528 196,-516 196,-516 196,-510 202,-504 208,-504 208,-504 306,-504 306,-504 312,-504 318,-510 318,-516 318,-516 318,-528 318,-528 318,-534 312,-540 306,-540"/>
<text text-anchor="middle" x="257" y="-519.5" font-family="sans" font-size="10.00">multi_to_single_fast5</text>
</g>
<!-- 8&#45;&gt;12 -->
<g id="edge19" class="edge">
<title>8&#45;&gt;12</title>
<path fill="none" stroke="grey" stroke-width="2" d="M293.89,-575.7C288.13,-567.47 281.14,-557.48 274.79,-548.42"/>
<polygon fill="grey" stroke="grey" stroke-width="2" points="277.58,-546.29 268.97,-540.1 271.84,-550.3 277.58,-546.29"/>
</g>
<!-- 9&#45;&gt;3 -->
<g id="edge9" class="edge">
<title>9&#45;&gt;3</title>
<path fill="none" stroke="grey" stroke-width="2" d="M435.6,-503.87C436.46,-479.67 438.02,-435.21 439.04,-406.39"/>
<polygon fill="grey" stroke="grey" stroke-width="2" points="442.54,-406.31 439.39,-396.19 435.54,-406.06 442.54,-406.31"/>
</g>
<!-- 10&#45;&gt;5 -->
<g id="edge12" class="edge">
<title>10&#45;&gt;5</title>
<path fill="none" stroke="grey" stroke-width="2" d="M206.4,-359.58C210.54,-349.35 215.54,-336.1 219,-324 232.23,-277.72 241.93,-222.42 247,-190.15"/>
<polygon fill="grey" stroke="grey" stroke-width="2" points="250.48,-190.56 248.54,-180.14 243.56,-189.49 250.48,-190.56"/>
</g>
<!-- 10&#45;&gt;7 -->
<g id="edge14" class="edge">
<title>10&#45;&gt;7</title>
<path fill="none" stroke="grey" stroke-width="2" d="M175.76,-359.7C163.81,-350.8 149.08,-339.82 136.15,-330.2"/>
<polygon fill="grey" stroke="grey" stroke-width="2" points="138.08,-327.27 127.97,-324.1 133.9,-332.88 138.08,-327.27"/>
</g>
<!-- 11 -->
<g id="node12" class="node">
<title>11</title>
<path fill="none" stroke="#8fd856" stroke-width="2" d="M311,-468C311,-468 195,-468 195,-468 189,-468 183,-462 183,-456 183,-456 183,-444 183,-444 183,-438 189,-432 195,-432 195,-432 311,-432 311,-432 317,-432 323,-438 323,-444 323,-444 323,-456 323,-456 323,-462 317,-468 311,-468"/>
<text text-anchor="middle" x="253" y="-447.5" font-family="sans" font-size="10.00">deepbinner_classification</text>
</g>
<!-- 11&#45;&gt;10 -->
<g id="edge17" class="edge">
<title>11&#45;&gt;10</title>
<path fill="none" stroke="grey" stroke-width="2" d="M239.65,-431.7C233.24,-423.39 225.44,-413.28 218.39,-404.14"/>
<polygon fill="grey" stroke="grey" stroke-width="2" points="221.07,-401.88 212.19,-396.1 215.53,-406.16 221.07,-401.88"/>
</g>
<!-- 12&#45;&gt;11 -->
<g id="edge18" class="edge">
<title>12&#45;&gt;11</title>
<path fill="none" stroke="grey" stroke-width="2" d="M256.01,-503.7C255.57,-495.98 255.04,-486.71 254.55,-478.11"/>
<polygon fill="grey" stroke="grey" stroke-width="2" points="258.04,-477.89 253.98,-468.1 251.05,-478.29 258.04,-477.89"/>
</g>
</g>
</svg>
