<?xml version="1.0" encoding="UTF-8" standalone="no"?>
<!DOCTYPE svg PUBLIC "-//W3C//DTD SVG 1.1//EN"
 "http://www.w3.org/Graphics/SVG/1.1/DTD/svg11.dtd">
<!-- Generated by graphviz version 2.40.1 (20161225.0304)
 -->
<!-- Title: snakemake_dag Pages: 1 -->
<svg width="358pt" height="476pt"
 viewBox="0.00 0.00 358.08 476.00" xmlns="http://www.w3.org/2000/svg" xmlns:xlink="http://www.w3.org/1999/xlink">
<g id="graph0" class="graph" transform="scale(1 1) rotate(0) translate(4 472)">
<title>snakemake_dag</title>
<polygon fill="#ffffff" stroke="transparent" points="-4,4 -4,-472 354.0826,-472 354.0826,4 -4,4"/>
<!-- 0 -->
<g id="node1" class="node">
<title>0</title>
<path fill="none" stroke="#56d8c9" stroke-width="2" d="M202.5826,-36C202.5826,-36 172.5826,-36 172.5826,-36 166.5826,-36 160.5826,-30 160.5826,-24 160.5826,-24 160.5826,-12 160.5826,-12 160.5826,-6 166.5826,0 172.5826,0 172.5826,0 202.5826,0 202.5826,0 208.5826,0 214.5826,-6 214.5826,-12 214.5826,-12 214.5826,-24 214.5826,-24 214.5826,-30 208.5826,-36 202.5826,-36"/>
<text text-anchor="middle" x="187.5826" y="-15.5" font-family="sans" font-size="10.00" fill="#000000">finish</text>
</g>
<!-- 1 -->
<g id="node2" class="node">
<title>1</title>
<path fill="none" stroke="#70d856" stroke-width="2" d="M201.5826,-108C201.5826,-108 67.5826,-108 67.5826,-108 61.5826,-108 55.5826,-102 55.5826,-96 55.5826,-96 55.5826,-84 55.5826,-84 55.5826,-78 61.5826,-72 67.5826,-72 67.5826,-72 201.5826,-72 201.5826,-72 207.5826,-72 213.5826,-78 213.5826,-84 213.5826,-84 213.5826,-96 213.5826,-96 213.5826,-102 207.5826,-108 201.5826,-108"/>
<text text-anchor="middle" x="134.5826" y="-87.5" font-family="sans" font-size="10.00" fill="#000000">get_multi_fast5_per_barcode</text>
</g>
<!-- 1&#45;&gt;0 -->
<g id="edge2" class="edge">
<title>1&#45;&gt;0</title>
<path fill="none" stroke="#c0c0c0" stroke-width="2" d="M147.9568,-71.8314C153.9988,-63.6232 161.2589,-53.7606 167.9047,-44.7323"/>
<polygon fill="#c0c0c0" stroke="#c0c0c0" stroke-width="2" points="170.9189,-46.5415 174.0284,-36.4133 165.2815,-42.3918 170.9189,-46.5415"/>
</g>
<!-- 2 -->
<g id="node3" class="node">
<title>2</title>
<path fill="none" stroke="#d88d56" stroke-width="2" d="M337.5826,-180C337.5826,-180 269.5826,-180 269.5826,-180 263.5826,-180 257.5826,-174 257.5826,-168 257.5826,-168 257.5826,-156 257.5826,-156 257.5826,-150 263.5826,-144 269.5826,-144 269.5826,-144 337.5826,-144 337.5826,-144 343.5826,-144 349.5826,-150 349.5826,-156 349.5826,-156 349.5826,-168 349.5826,-168 349.5826,-174 343.5826,-180 337.5826,-180"/>
<text text-anchor="middle" x="303.5826" y="-159.5" font-family="sans" font-size="10.00" fill="#000000">report_basecall</text>
</g>
<!-- 2&#45;&gt;0 -->
<g id="edge1" class="edge">
<title>2&#45;&gt;0</title>
<path fill="none" stroke="#c0c0c0" stroke-width="2" d="M288.8911,-143.7623C268.5827,-118.5518 231.8159,-72.9103 208.6037,-44.0952"/>
<polygon fill="#c0c0c0" stroke="#c0c0c0" stroke-width="2" points="211.1538,-41.6815 202.1548,-36.0896 205.7025,-46.0728 211.1538,-41.6815"/>
</g>
<!-- 3 -->
<g id="node4" class="node">
<title>3</title>
<path fill="none" stroke="#56d8a9" stroke-width="2" d="M227.5826,-180C227.5826,-180 41.5826,-180 41.5826,-180 35.5826,-180 29.5826,-174 29.5826,-168 29.5826,-168 29.5826,-156 29.5826,-156 29.5826,-150 35.5826,-144 41.5826,-144 41.5826,-144 227.5826,-144 227.5826,-144 233.5826,-144 239.5826,-150 239.5826,-156 239.5826,-156 239.5826,-168 239.5826,-168 239.5826,-174 233.5826,-180 227.5826,-180"/>
<text text-anchor="middle" x="134.5826" y="-159.5" font-family="sans" font-size="10.00" fill="#000000">get_sequencing_summary_per_barcode</text>
</g>
<!-- 3&#45;&gt;1 -->
<g id="edge3" class="edge">
<title>3&#45;&gt;1</title>
<path fill="none" stroke="#c0c0c0" stroke-width="2" d="M134.5826,-143.8314C134.5826,-136.131 134.5826,-126.9743 134.5826,-118.4166"/>
<polygon fill="#c0c0c0" stroke="#c0c0c0" stroke-width="2" points="138.0827,-118.4132 134.5826,-108.4133 131.0827,-118.4133 138.0827,-118.4132"/>
</g>
<!-- 4 -->
<g id="node5" class="node">
<title>4</title>
<path fill="none" stroke="#5692d8" stroke-width="2" d="M197.0826,-468C197.0826,-468 114.0826,-468 114.0826,-468 108.0826,-468 102.0826,-462 102.0826,-456 102.0826,-456 102.0826,-444 102.0826,-444 102.0826,-438 108.0826,-432 114.0826,-432 114.0826,-432 197.0826,-432 197.0826,-432 203.0826,-432 209.0826,-438 209.0826,-444 209.0826,-444 209.0826,-456 209.0826,-456 209.0826,-462 203.0826,-468 197.0826,-468"/>
<text text-anchor="middle" x="155.5826" y="-447.5" font-family="sans" font-size="10.00" fill="#000000">guppy_basecalling</text>
</g>
<!-- 4&#45;&gt;1 -->
<g id="edge4" class="edge">
<title>4&#45;&gt;1</title>
<path fill="none" stroke="#c0c0c0" stroke-width="2" d="M101.8651,-435.5943C79.2318,-427.2112 54.1262,-414.538 36.5826,-396 7.0824,-364.8277 1.5826,-348.9182 1.5826,-306 1.5826,-306 1.5826,-306 1.5826,-234 1.5826,-193.1184 -4.7478,-176.0886 20.5826,-144 31.245,-130.4929 46.1025,-120.19 61.5751,-112.3969"/>
<polygon fill="#c0c0c0" stroke="#c0c0c0" stroke-width="2" points="63.1686,-115.5153 70.7292,-108.0932 60.1903,-109.1805 63.1686,-115.5153"/>
</g>
<!-- 6 -->
<g id="node7" class="node">
<title>6</title>
<path fill="none" stroke="#d85656" stroke-width="2" d="M210.5826,-252C210.5826,-252 142.5826,-252 142.5826,-252 136.5826,-252 130.5826,-246 130.5826,-240 130.5826,-240 130.5826,-228 130.5826,-228 130.5826,-222 136.5826,-216 142.5826,-216 142.5826,-216 210.5826,-216 210.5826,-216 216.5826,-216 222.5826,-222 222.5826,-228 222.5826,-228 222.5826,-240 222.5826,-240 222.5826,-246 216.5826,-252 210.5826,-252"/>
<text text-anchor="middle" x="176.5826" y="-231.5" font-family="sans" font-size="10.00" fill="#000000">deepbinner_bin</text>
</g>
<!-- 4&#45;&gt;6 -->
<g id="edge10" class="edge">
<title>4&#45;&gt;6</title>
<path fill="none" stroke="#c0c0c0" stroke-width="2" d="M164.1879,-431.9358C168.6849,-421.6432 173.8153,-408.3685 176.5826,-396 186.8444,-350.1344 183.709,-295.1185 180.2944,-262.4421"/>
<polygon fill="#c0c0c0" stroke="#c0c0c0" stroke-width="2" points="183.7449,-261.8065 179.1446,-252.2625 176.7891,-262.5922 183.7449,-261.8065"/>
</g>
<!-- 8 -->
<g id="node9" class="node">
<title>8</title>
<path fill="none" stroke="#8fd856" stroke-width="2" d="M330.0826,-396C330.0826,-396 247.0826,-396 247.0826,-396 241.0826,-396 235.0826,-390 235.0826,-384 235.0826,-384 235.0826,-372 235.0826,-372 235.0826,-366 241.0826,-360 247.0826,-360 247.0826,-360 330.0826,-360 330.0826,-360 336.0826,-360 342.0826,-366 342.0826,-372 342.0826,-372 342.0826,-384 342.0826,-384 342.0826,-390 336.0826,-396 330.0826,-396"/>
<text text-anchor="middle" x="288.5826" y="-375.5" font-family="sans" font-size="10.00" fill="#000000">minionqc_basecall</text>
</g>
<!-- 4&#45;&gt;8 -->
<g id="edge12" class="edge">
<title>4&#45;&gt;8</title>
<path fill="none" stroke="#c0c0c0" stroke-width="2" d="M189.1441,-431.8314C206.4707,-422.4516 227.7884,-410.9112 246.2362,-400.9244"/>
<polygon fill="#c0c0c0" stroke="#c0c0c0" stroke-width="2" points="247.904,-404.0015 255.0318,-396.1628 244.5715,-397.8457 247.904,-404.0015"/>
</g>
<!-- 9 -->
<g id="node10" class="node">
<title>9</title>
<path fill="none" stroke="#56a9d8" stroke-width="2" d="M155.5826,-396C155.5826,-396 57.5826,-396 57.5826,-396 51.5826,-396 45.5826,-390 45.5826,-384 45.5826,-384 45.5826,-372 45.5826,-372 45.5826,-366 51.5826,-360 57.5826,-360 57.5826,-360 155.5826,-360 155.5826,-360 161.5826,-360 167.5826,-366 167.5826,-372 167.5826,-372 167.5826,-384 167.5826,-384 167.5826,-390 161.5826,-396 155.5826,-396"/>
<text text-anchor="middle" x="106.5826" y="-375.5" font-family="sans" font-size="10.00" fill="#000000">multi_to_single_fast5</text>
</g>
<!-- 4&#45;&gt;9 -->
<g id="edge13" class="edge">
<title>4&#45;&gt;9</title>
<path fill="none" stroke="#c0c0c0" stroke-width="2" d="M143.2178,-431.8314C137.6318,-423.6232 130.9197,-413.7606 124.7754,-404.7323"/>
<polygon fill="#c0c0c0" stroke="#c0c0c0" stroke-width="2" points="127.6337,-402.7112 119.1139,-396.4133 121.8466,-406.6496 127.6337,-402.7112"/>
</g>
<!-- 5 -->
<g id="node6" class="node">
<title>5</title>
<path fill="none" stroke="#d87556" stroke-width="2" d="M338.0826,-324C338.0826,-324 263.0826,-324 263.0826,-324 257.0826,-324 251.0826,-318 251.0826,-312 251.0826,-312 251.0826,-300 251.0826,-300 251.0826,-294 257.0826,-288 263.0826,-288 263.0826,-288 338.0826,-288 338.0826,-288 344.0826,-288 350.0826,-294 350.0826,-300 350.0826,-300 350.0826,-312 350.0826,-312 350.0826,-318 344.0826,-324 338.0826,-324"/>
<text text-anchor="middle" x="300.5826" y="-303.5" font-family="sans" font-size="10.00" fill="#000000">multiqc_basecall</text>
</g>
<!-- 5&#45;&gt;2 -->
<g id="edge5" class="edge">
<title>5&#45;&gt;2</title>
<path fill="none" stroke="#c0c0c0" stroke-width="2" d="M300.9626,-287.7623C301.4743,-263.201 302.39,-219.2474 302.9919,-190.3541"/>
<polygon fill="#c0c0c0" stroke="#c0c0c0" stroke-width="2" points="306.4966,-190.1604 303.2057,-180.0896 299.4981,-190.0145 306.4966,-190.1604"/>
</g>
<!-- 6&#45;&gt;3 -->
<g id="edge6" class="edge">
<title>6&#45;&gt;3</title>
<path fill="none" stroke="#c0c0c0" stroke-width="2" d="M165.9842,-215.8314C161.2949,-207.7925 155.6798,-198.1666 150.5028,-189.2918"/>
<polygon fill="#c0c0c0" stroke="#c0c0c0" stroke-width="2" points="153.3857,-187.2875 145.3237,-180.4133 147.3392,-190.8146 153.3857,-187.2875"/>
</g>
<!-- 7 -->
<g id="node8" class="node">
<title>7</title>
<path fill="none" stroke="#afd856" stroke-width="2" d="M160.5826,-324C160.5826,-324 44.5826,-324 44.5826,-324 38.5826,-324 32.5826,-318 32.5826,-312 32.5826,-312 32.5826,-300 32.5826,-300 32.5826,-294 38.5826,-288 44.5826,-288 44.5826,-288 160.5826,-288 160.5826,-288 166.5826,-288 172.5826,-294 172.5826,-300 172.5826,-300 172.5826,-312 172.5826,-312 172.5826,-318 166.5826,-324 160.5826,-324"/>
<text text-anchor="middle" x="102.5826" y="-303.5" font-family="sans" font-size="10.00" fill="#000000">deepbinner_classification</text>
</g>
<!-- 7&#45;&gt;3 -->
<g id="edge7" class="edge">
<title>7&#45;&gt;3</title>
<path fill="none" stroke="#c0c0c0" stroke-width="2" d="M106.2893,-287.6956C110.0137,-269.4872 115.9882,-240.7674 121.5826,-216 123.4649,-207.667 125.6013,-198.6343 127.5905,-190.3842"/>
<polygon fill="#c0c0c0" stroke="#c0c0c0" stroke-width="2" points="131.0407,-191.008 130.0013,-180.4643 124.2387,-189.3549 131.0407,-191.008"/>
</g>
<!-- 7&#45;&gt;6 -->
<g id="edge9" class="edge">
<title>7&#45;&gt;6</title>
<path fill="none" stroke="#c0c0c0" stroke-width="2" d="M121.2559,-287.8314C130.1075,-279.219 140.8312,-268.7851 150.4721,-259.4048"/>
<polygon fill="#c0c0c0" stroke="#c0c0c0" stroke-width="2" points="153.1887,-261.645 157.9153,-252.1628 148.3072,-256.6279 153.1887,-261.645"/>
</g>
<!-- 8&#45;&gt;5 -->
<g id="edge8" class="edge">
<title>8&#45;&gt;5</title>
<path fill="none" stroke="#c0c0c0" stroke-width="2" d="M291.6107,-359.8314C292.8941,-352.131 294.4202,-342.9743 295.8465,-334.4166"/>
<polygon fill="#c0c0c0" stroke="#c0c0c0" stroke-width="2" points="299.322,-334.8526 297.5137,-324.4133 292.4173,-333.7018 299.322,-334.8526"/>
</g>
<!-- 9&#45;&gt;7 -->
<g id="edge11" class="edge">
<title>9&#45;&gt;7</title>
<path fill="none" stroke="#c0c0c0" stroke-width="2" d="M105.5732,-359.8314C105.1454,-352.131 104.6367,-342.9743 104.1613,-334.4166"/>
<polygon fill="#c0c0c0" stroke="#c0c0c0" stroke-width="2" points="107.655,-334.2037 103.6056,-324.4133 100.6658,-334.592 107.655,-334.2037"/>
</g>
</g>
</svg>
