<?xml version="1.0" encoding="UTF-8" standalone="no"?>
<!DOCTYPE svg PUBLIC "-//W3C//DTD SVG 1.1//EN"
 "http://www.w3.org/Graphics/SVG/1.1/DTD/svg11.dtd">
<!-- Generated by graphviz version 2.40.1 (20161225.0304)
 -->
<!-- Title: snakemake_dag Pages: 1 -->
<svg width="507pt" height="548pt"
 viewBox="0.00 0.00 507.34 548.00" xmlns="http://www.w3.org/2000/svg" xmlns:xlink="http://www.w3.org/1999/xlink">
<g id="graph0" class="graph" transform="scale(1 1) rotate(0) translate(4 544)">
<title>snakemake_dag</title>
<polygon fill="#ffffff" stroke="transparent" points="-4,4 -4,-544 503.3436,-544 503.3436,4 -4,4"/>
<!-- 0 -->
<g id="node1" class="node">
<title>0</title>
<path fill="none" stroke="#d87556" stroke-width="2" d="M193.5,-36C193.5,-36 163.5,-36 163.5,-36 157.5,-36 151.5,-30 151.5,-24 151.5,-24 151.5,-12 151.5,-12 151.5,-6 157.5,0 163.5,0 163.5,0 193.5,0 193.5,0 199.5,0 205.5,-6 205.5,-12 205.5,-12 205.5,-24 205.5,-24 205.5,-30 199.5,-36 193.5,-36"/>
<text text-anchor="middle" x="178.5" y="-15.5" font-family="sans" font-size="10.00" fill="#000000">finish</text>
</g>
<!-- 1 -->
<g id="node2" class="node">
<title>1</title>
<path fill="none" stroke="#bed856" stroke-width="2" d="M108,-108C108,-108 33,-108 33,-108 27,-108 21,-102 21,-96 21,-96 21,-84 21,-84 21,-78 27,-72 33,-72 33,-72 108,-72 108,-72 114,-72 120,-78 120,-84 120,-84 120,-96 120,-96 120,-102 114,-108 108,-108"/>
<text text-anchor="middle" x="70.5" y="-87.5" font-family="sans" font-size="10.00" fill="#000000">multiqc_basecall</text>
</g>
<!-- 1&#45;&gt;0 -->
<g id="edge1" class="edge">
<title>1&#45;&gt;0</title>
<path fill="none" stroke="#c0c0c0" stroke-width="2" d="M97.753,-71.8314C111.4389,-62.7074 128.1915,-51.539 142.8827,-41.7449"/>
<polygon fill="#c0c0c0" stroke="#c0c0c0" stroke-width="2" points="144.8767,-44.6221 151.2558,-36.1628 140.9938,-38.7977 144.8767,-44.6221"/>
</g>
<!-- 2 -->
<g id="node3" class="node">
<title>2</title>
<path fill="none" stroke="#9fd856" stroke-width="2" d="M371,-108C371,-108 278,-108 278,-108 272,-108 266,-102 266,-96 266,-96 266,-84 266,-84 266,-78 272,-72 278,-72 278,-72 371,-72 371,-72 377,-72 383,-78 383,-84 383,-84 383,-96 383,-96 383,-102 377,-108 371,-108"/>
<text text-anchor="middle" x="324.5" y="-87.5" font-family="sans" font-size="10.00" fill="#000000">multiqc_demultiplex</text>
</g>
<!-- 2&#45;&gt;0 -->
<g id="edge3" class="edge">
<title>2&#45;&gt;0</title>
<path fill="none" stroke="#c0c0c0" stroke-width="2" d="M287.658,-71.8314C265.3355,-60.823 236.9781,-46.8385 214.7613,-35.8823"/>
<polygon fill="#c0c0c0" stroke="#c0c0c0" stroke-width="2" points="216.1681,-32.6736 205.6513,-31.3897 213.072,-38.9517 216.1681,-32.6736"/>
</g>
<!-- 3 -->
<g id="node4" class="node">
<title>3</title>
<path fill="none" stroke="#88d856" stroke-width="2" d="M271.5,-180C271.5,-180 137.5,-180 137.5,-180 131.5,-180 125.5,-174 125.5,-168 125.5,-168 125.5,-156 125.5,-156 125.5,-150 131.5,-144 137.5,-144 137.5,-144 271.5,-144 271.5,-144 277.5,-144 283.5,-150 283.5,-156 283.5,-156 283.5,-168 283.5,-168 283.5,-174 277.5,-180 271.5,-180"/>
<text text-anchor="middle" x="204.5" y="-159.5" font-family="sans" font-size="10.00" fill="#000000">get_multi_fast5_per_barcode</text>
</g>
<!-- 3&#45;&gt;0 -->
<g id="edge2" class="edge">
<title>3&#45;&gt;0</title>
<path fill="none" stroke="#c0c0c0" stroke-width="2" d="M201.2071,-143.7623C196.7529,-119.0928 188.7663,-74.8598 183.5507,-45.9731"/>
<polygon fill="#c0c0c0" stroke="#c0c0c0" stroke-width="2" points="186.9874,-45.3086 181.7662,-36.0896 180.0988,-46.5524 186.9874,-45.3086"/>
</g>
<!-- 4 -->
<g id="node5" class="node">
<title>4</title>
<path fill="none" stroke="#56d8c1" stroke-width="2" d="M95,-180C95,-180 12,-180 12,-180 6,-180 0,-174 0,-168 0,-168 0,-156 0,-156 0,-150 6,-144 12,-144 12,-144 95,-144 95,-144 101,-144 107,-150 107,-156 107,-156 107,-168 107,-168 107,-174 101,-180 95,-180"/>
<text text-anchor="middle" x="53.5" y="-159.5" font-family="sans" font-size="10.00" fill="#000000">minionqc_basecall</text>
</g>
<!-- 4&#45;&gt;0 -->
<g id="edge4" class="edge">
<title>4&#45;&gt;0</title>
<path fill="none" stroke="#c0c0c0" stroke-width="2" d="M84.788,-143.9342C99.2863,-134.5118 116.0242,-122.0269 128.5,-108 145.0898,-89.3475 158.4593,-64.2616 167.1849,-45.3127"/>
<polygon fill="#c0c0c0" stroke="#c0c0c0" stroke-width="2" points="170.4479,-46.5887 171.3169,-36.0295 164.0528,-43.7421 170.4479,-46.5887"/>
</g>
<!-- 4&#45;&gt;1 -->
<g id="edge5" class="edge">
<title>4&#45;&gt;1</title>
<path fill="none" stroke="#c0c0c0" stroke-width="2" d="M57.7898,-143.8314C59.608,-136.131 61.7699,-126.9743 63.7905,-118.4166"/>
<polygon fill="#c0c0c0" stroke="#c0c0c0" stroke-width="2" points="67.2608,-118.95 66.1524,-108.4133 60.4481,-117.3414 67.2608,-118.95"/>
</g>
<!-- 5 -->
<g id="node6" class="node">
<title>5</title>
<path fill="none" stroke="#56b1d8" stroke-width="2" d="M414,-180C414,-180 313,-180 313,-180 307,-180 301,-174 301,-168 301,-168 301,-156 301,-156 301,-150 307,-144 313,-144 313,-144 414,-144 414,-144 420,-144 426,-150 426,-156 426,-156 426,-168 426,-168 426,-174 420,-180 414,-180"/>
<text text-anchor="middle" x="363.5" y="-159.5" font-family="sans" font-size="10.00" fill="#000000">minionqc_demultiplex</text>
</g>
<!-- 5&#45;&gt;2 -->
<g id="edge6" class="edge">
<title>5&#45;&gt;2</title>
<path fill="none" stroke="#c0c0c0" stroke-width="2" d="M353.6587,-143.8314C349.3043,-135.7925 344.0902,-126.1666 339.2831,-117.2918"/>
<polygon fill="#c0c0c0" stroke="#c0c0c0" stroke-width="2" points="342.3143,-115.5392 334.4739,-108.4133 336.1592,-118.8732 342.3143,-115.5392"/>
</g>
<!-- 6 -->
<g id="node7" class="node">
<title>6</title>
<path fill="none" stroke="#5692d8" stroke-width="2" d="M443.5,-252C443.5,-252 257.5,-252 257.5,-252 251.5,-252 245.5,-246 245.5,-240 245.5,-240 245.5,-228 245.5,-228 245.5,-222 251.5,-216 257.5,-216 257.5,-216 443.5,-216 443.5,-216 449.5,-216 455.5,-222 455.5,-228 455.5,-228 455.5,-240 455.5,-240 455.5,-246 449.5,-252 443.5,-252"/>
<text text-anchor="middle" x="350.5" y="-231.5" font-family="sans" font-size="10.00" fill="#000000">get_sequencing_summary_per_barcode</text>
</g>
<!-- 6&#45;&gt;3 -->
<g id="edge8" class="edge">
<title>6&#45;&gt;3</title>
<path fill="none" stroke="#c0c0c0" stroke-width="2" d="M313.658,-215.8314C294.3918,-206.3302 270.6301,-194.6121 250.2008,-184.5374"/>
<polygon fill="#c0c0c0" stroke="#c0c0c0" stroke-width="2" points="251.5938,-181.3219 241.077,-180.038 248.4977,-187.6 251.5938,-181.3219"/>
</g>
<!-- 6&#45;&gt;5 -->
<g id="edge10" class="edge">
<title>6&#45;&gt;5</title>
<path fill="none" stroke="#c0c0c0" stroke-width="2" d="M353.7804,-215.8314C355.1708,-208.131 356.8241,-198.9743 358.3692,-190.4166"/>
<polygon fill="#c0c0c0" stroke="#c0c0c0" stroke-width="2" points="361.8428,-190.8761 360.1754,-180.4133 354.9542,-189.6322 361.8428,-190.8761"/>
</g>
<!-- 7 -->
<g id="node8" class="node">
<title>7</title>
<path fill="none" stroke="#d8d356" stroke-width="2" d="M302,-540C302,-540 219,-540 219,-540 213,-540 207,-534 207,-528 207,-528 207,-516 207,-516 207,-510 213,-504 219,-504 219,-504 302,-504 302,-504 308,-504 314,-510 314,-516 314,-516 314,-528 314,-528 314,-534 308,-540 302,-540"/>
<text text-anchor="middle" x="260.5" y="-519.5" font-family="sans" font-size="10.00" fill="#000000">guppy_basecalling</text>
</g>
<!-- 7&#45;&gt;3 -->
<g id="edge7" class="edge">
<title>7&#45;&gt;3</title>
<path fill="none" stroke="#c0c0c0" stroke-width="2" d="M239.394,-503.8504C212.5117,-478.5934 169.5,-430.0495 169.5,-378 169.5,-378 169.5,-378 169.5,-306 169.5,-264.755 183.2253,-218.697 193.4858,-190.0283"/>
<polygon fill="#c0c0c0" stroke="#c0c0c0" stroke-width="2" points="196.8994,-190.8874 197.0774,-180.2941 190.3322,-188.4643 196.8994,-190.8874"/>
</g>
<!-- 7&#45;&gt;4 -->
<g id="edge9" class="edge">
<title>7&#45;&gt;4</title>
<path fill="none" stroke="#c0c0c0" stroke-width="2" d="M216.9114,-503.9296C171.0662,-481.6748 105.5,-439.1564 105.5,-378 105.5,-378 105.5,-378 105.5,-306 105.5,-263.2538 84.9787,-217.3861 69.7192,-189.1881"/>
<polygon fill="#c0c0c0" stroke="#c0c0c0" stroke-width="2" points="72.7092,-187.3634 64.7832,-180.3327 66.5949,-190.7715 72.7092,-187.3634"/>
</g>
<!-- 8 -->
<g id="node9" class="node">
<title>8</title>
<path fill="none" stroke="#d85656" stroke-width="2" d="M458.5,-324C458.5,-324 390.5,-324 390.5,-324 384.5,-324 378.5,-318 378.5,-312 378.5,-312 378.5,-300 378.5,-300 378.5,-294 384.5,-288 390.5,-288 390.5,-288 458.5,-288 458.5,-288 464.5,-288 470.5,-294 470.5,-300 470.5,-300 470.5,-312 470.5,-312 470.5,-318 464.5,-324 458.5,-324"/>
<text text-anchor="middle" x="424.5" y="-303.5" font-family="sans" font-size="10.00" fill="#000000">deepbinner_bin</text>
</g>
<!-- 7&#45;&gt;8 -->
<g id="edge14" class="edge">
<title>7&#45;&gt;8</title>
<path fill="none" stroke="#c0c0c0" stroke-width="2" d="M314.3028,-511.5217C362.7226,-501.2444 429.4049,-484.7231 450.5,-468 490.6114,-436.2018 512.4196,-406.2556 490.5,-360 484.9471,-348.2821 475.4683,-338.2614 465.3999,-330.1482"/>
<polygon fill="#c0c0c0" stroke="#c0c0c0" stroke-width="2" points="467.3649,-327.2472 457.2625,-324.0546 463.169,-332.8503 467.3649,-327.2472"/>
</g>
<!-- 10 -->
<g id="node11" class="node">
<title>10</title>
<path fill="none" stroke="#d89556" stroke-width="2" d="M311,-396C311,-396 210,-396 210,-396 204,-396 198,-390 198,-384 198,-384 198,-372 198,-372 198,-366 204,-360 210,-360 210,-360 311,-360 311,-360 317,-360 323,-366 323,-372 323,-372 323,-384 323,-384 323,-390 317,-396 311,-396"/>
<text text-anchor="middle" x="260.5" y="-375.5" font-family="sans" font-size="10.00" fill="#000000">guppy_demultiplexing</text>
</g>
<!-- 7&#45;&gt;10 -->
<g id="edge17" class="edge">
<title>7&#45;&gt;10</title>
<path fill="none" stroke="#c0c0c0" stroke-width="2" d="M260.5,-503.7623C260.5,-479.201 260.5,-435.2474 260.5,-406.3541"/>
<polygon fill="#c0c0c0" stroke="#c0c0c0" stroke-width="2" points="264.0001,-406.0896 260.5,-396.0896 257.0001,-406.0897 264.0001,-406.0896"/>
</g>
<!-- 11 -->
<g id="node12" class="node">
<title>11</title>
<path fill="none" stroke="#56d863" stroke-width="2" d="M429.5,-468C429.5,-468 331.5,-468 331.5,-468 325.5,-468 319.5,-462 319.5,-456 319.5,-456 319.5,-444 319.5,-444 319.5,-438 325.5,-432 331.5,-432 331.5,-432 429.5,-432 429.5,-432 435.5,-432 441.5,-438 441.5,-444 441.5,-444 441.5,-456 441.5,-456 441.5,-462 435.5,-468 429.5,-468"/>
<text text-anchor="middle" x="380.5" y="-447.5" font-family="sans" font-size="10.00" fill="#000000">multi_to_single_fast5</text>
</g>
<!-- 7&#45;&gt;11 -->
<g id="edge18" class="edge">
<title>7&#45;&gt;11</title>
<path fill="none" stroke="#c0c0c0" stroke-width="2" d="M290.7811,-503.8314C306.1298,-494.6221 324.9498,-483.3301 341.3823,-473.4706"/>
<polygon fill="#c0c0c0" stroke="#c0c0c0" stroke-width="2" points="343.4544,-476.3091 350.2286,-468.1628 339.8529,-470.3066 343.4544,-476.3091"/>
</g>
<!-- 8&#45;&gt;6 -->
<g id="edge11" class="edge">
<title>8&#45;&gt;6</title>
<path fill="none" stroke="#c0c0c0" stroke-width="2" d="M405.8267,-287.8314C396.9751,-279.219 386.2514,-268.7851 376.6105,-259.4048"/>
<polygon fill="#c0c0c0" stroke="#c0c0c0" stroke-width="2" points="378.7754,-256.6279 369.1674,-252.1628 373.8939,-261.645 378.7754,-256.6279"/>
</g>
<!-- 9 -->
<g id="node10" class="node">
<title>9</title>
<path fill="none" stroke="#d8b456" stroke-width="2" d="M469.5,-396C469.5,-396 353.5,-396 353.5,-396 347.5,-396 341.5,-390 341.5,-384 341.5,-384 341.5,-372 341.5,-372 341.5,-366 347.5,-360 353.5,-360 353.5,-360 469.5,-360 469.5,-360 475.5,-360 481.5,-366 481.5,-372 481.5,-372 481.5,-384 481.5,-384 481.5,-390 475.5,-396 469.5,-396"/>
<text text-anchor="middle" x="411.5" y="-375.5" font-family="sans" font-size="10.00" fill="#000000">deepbinner_classification</text>
</g>
<!-- 9&#45;&gt;6 -->
<g id="edge13" class="edge">
<title>9&#45;&gt;6</title>
<path fill="none" stroke="#c0c0c0" stroke-width="2" d="M394.0386,-359.906C385.4248,-350.0232 375.6002,-337.1431 369.5,-324 360.3954,-304.3839 355.6065,-280.3364 353.1151,-262.0351"/>
<polygon fill="#c0c0c0" stroke="#c0c0c0" stroke-width="2" points="356.5768,-261.5065 351.8985,-252.0005 349.6276,-262.3491 356.5768,-261.5065"/>
</g>
<!-- 9&#45;&gt;8 -->
<g id="edge15" class="edge">
<title>9&#45;&gt;8</title>
<path fill="none" stroke="#c0c0c0" stroke-width="2" d="M414.7804,-359.8314C416.1708,-352.131 417.8241,-342.9743 419.3692,-334.4166"/>
<polygon fill="#c0c0c0" stroke="#c0c0c0" stroke-width="2" points="422.8428,-334.8761 421.1754,-324.4133 415.9542,-333.6322 422.8428,-334.8761"/>
</g>
<!-- 10&#45;&gt;6 -->
<g id="edge12" class="edge">
<title>10&#45;&gt;6</title>
<path fill="none" stroke="#c0c0c0" stroke-width="2" d="M271.8986,-359.7623C287.5198,-334.7682 315.6923,-289.6924 333.7245,-260.8409"/>
<polygon fill="#c0c0c0" stroke="#c0c0c0" stroke-width="2" points="336.862,-262.4246 339.194,-252.0896 330.926,-258.7146 336.862,-262.4246"/>
</g>
<!-- 11&#45;&gt;9 -->
<g id="edge16" class="edge">
<title>11&#45;&gt;9</title>
<path fill="none" stroke="#c0c0c0" stroke-width="2" d="M388.3226,-431.8314C391.7109,-423.9617 395.7541,-414.5712 399.5076,-405.8533"/>
<polygon fill="#c0c0c0" stroke="#c0c0c0" stroke-width="2" points="402.8321,-406.9822 403.5721,-396.4133 396.4027,-404.214 402.8321,-406.9822"/>
</g>
</g>
</svg>
