<?xml version="1.0" encoding="UTF-8" standalone="no"?>
<!DOCTYPE svg PUBLIC "-//W3C//DTD SVG 1.1//EN"
 "http://www.w3.org/Graphics/SVG/1.1/DTD/svg11.dtd">
<!-- Generated by graphviz version 2.40.1 (20161225.0304)
 -->
<!-- Title: snakemake_dag Pages: 1 -->
<svg width="474pt" height="476pt"
 viewBox="0.00 0.00 474.22 476.00" xmlns="http://www.w3.org/2000/svg" xmlns:xlink="http://www.w3.org/1999/xlink">
<g id="graph0" class="graph" transform="scale(1 1) rotate(0) translate(4 472)">
<title>snakemake_dag</title>
<polygon fill="#ffffff" stroke="transparent" points="-4,4 -4,-472 470.2213,-472 470.2213,4 -4,4"/>
<!-- 0 -->
<g id="node1" class="node">
<title>0</title>
<path fill="none" stroke="#70d856" stroke-width="2" d="M373.7213,-36C373.7213,-36 343.7213,-36 343.7213,-36 337.7213,-36 331.7213,-30 331.7213,-24 331.7213,-24 331.7213,-12 331.7213,-12 331.7213,-6 337.7213,0 343.7213,0 343.7213,0 373.7213,0 373.7213,0 379.7213,0 385.7213,-6 385.7213,-12 385.7213,-12 385.7213,-24 385.7213,-24 385.7213,-30 379.7213,-36 373.7213,-36"/>
<text text-anchor="middle" x="358.7213" y="-15.5" font-family="sans" font-size="10.00" fill="#000000">finish</text>
</g>
<!-- 1 -->
<g id="node2" class="node">
<title>1</title>
<path fill="none" stroke="#8fd856" stroke-width="2" d="M372.7213,-108C372.7213,-108 238.7213,-108 238.7213,-108 232.7213,-108 226.7213,-102 226.7213,-96 226.7213,-96 226.7213,-84 226.7213,-84 226.7213,-78 232.7213,-72 238.7213,-72 238.7213,-72 372.7213,-72 372.7213,-72 378.7213,-72 384.7213,-78 384.7213,-84 384.7213,-84 384.7213,-96 384.7213,-96 384.7213,-102 378.7213,-108 372.7213,-108"/>
<text text-anchor="middle" x="305.7213" y="-87.5" font-family="sans" font-size="10.00" fill="#000000">get_multi_fast5_per_barcode</text>
</g>
<!-- 1&#45;&gt;0 -->
<g id="edge1" class="edge">
<title>1&#45;&gt;0</title>
<path fill="none" stroke="#c0c0c0" stroke-width="2" d="M319.0955,-71.8314C325.1376,-63.6232 332.3976,-53.7606 339.0434,-44.7323"/>
<polygon fill="#c0c0c0" stroke="#c0c0c0" stroke-width="2" points="342.0576,-46.5415 345.1671,-36.4133 336.4202,-42.3918 342.0576,-46.5415"/>
</g>
<!-- 2 -->
<g id="node3" class="node">
<title>2</title>
<path fill="none" stroke="#59d856" stroke-width="2" d="M446.7213,-180C446.7213,-180 378.7213,-180 378.7213,-180 372.7213,-180 366.7213,-174 366.7213,-168 366.7213,-168 366.7213,-156 366.7213,-156 366.7213,-150 372.7213,-144 378.7213,-144 378.7213,-144 446.7213,-144 446.7213,-144 452.7213,-144 458.7213,-150 458.7213,-156 458.7213,-156 458.7213,-168 458.7213,-168 458.7213,-174 452.7213,-180 446.7213,-180"/>
<text text-anchor="middle" x="412.7213" y="-159.5" font-family="sans" font-size="10.00" fill="#000000">report_basecall</text>
</g>
<!-- 2&#45;&gt;0 -->
<g id="edge2" class="edge">
<title>2&#45;&gt;0</title>
<path fill="none" stroke="#c0c0c0" stroke-width="2" d="M410.8675,-143.8348C408.5187,-125.235 403.5334,-95.7648 393.7213,-72 389.7975,-62.4965 384.1715,-52.8471 378.5744,-44.3849"/>
<polygon fill="#c0c0c0" stroke="#c0c0c0" stroke-width="2" points="381.3847,-42.295 372.8245,-36.0521 375.6232,-46.2706 381.3847,-42.295"/>
</g>
<!-- 3 -->
<g id="node4" class="node">
<title>3</title>
<path fill="none" stroke="#d8ac56" stroke-width="2" d="M281.7213,-180C281.7213,-180 95.7213,-180 95.7213,-180 89.7213,-180 83.7213,-174 83.7213,-168 83.7213,-168 83.7213,-156 83.7213,-156 83.7213,-150 89.7213,-144 95.7213,-144 95.7213,-144 281.7213,-144 281.7213,-144 287.7213,-144 293.7213,-150 293.7213,-156 293.7213,-156 293.7213,-168 293.7213,-168 293.7213,-174 287.7213,-180 281.7213,-180"/>
<text text-anchor="middle" x="188.7213" y="-159.5" font-family="sans" font-size="10.00" fill="#000000">get_sequencing_summary_per_barcode</text>
</g>
<!-- 3&#45;&gt;1 -->
<g id="edge3" class="edge">
<title>3&#45;&gt;1</title>
<path fill="none" stroke="#c0c0c0" stroke-width="2" d="M218.2454,-143.8314C233.2104,-134.6221 251.5599,-123.3301 267.5816,-113.4706"/>
<polygon fill="#c0c0c0" stroke="#c0c0c0" stroke-width="2" points="269.5245,-116.3847 276.2067,-108.1628 265.8558,-110.423 269.5245,-116.3847"/>
</g>
<!-- 4 -->
<g id="node5" class="node">
<title>4</title>
<path fill="none" stroke="#5673d8" stroke-width="2" d="M281.2213,-468C281.2213,-468 198.2213,-468 198.2213,-468 192.2213,-468 186.2213,-462 186.2213,-456 186.2213,-456 186.2213,-444 186.2213,-444 186.2213,-438 192.2213,-432 198.2213,-432 198.2213,-432 281.2213,-432 281.2213,-432 287.2213,-432 293.2213,-438 293.2213,-444 293.2213,-444 293.2213,-456 293.2213,-456 293.2213,-462 287.2213,-468 281.2213,-468"/>
<text text-anchor="middle" x="239.7213" y="-447.5" font-family="sans" font-size="10.00" fill="#000000">guppy_basecalling</text>
</g>
<!-- 4&#45;&gt;1 -->
<g id="edge4" class="edge">
<title>4&#45;&gt;1</title>
<path fill="none" stroke="#c0c0c0" stroke-width="2" d="M260.8273,-431.8504C287.7096,-406.5934 330.7213,-358.0495 330.7213,-306 330.7213,-306 330.7213,-306 330.7213,-234 330.7213,-193.0964 320.8083,-146.6076 313.4667,-117.7868"/>
<polygon fill="#c0c0c0" stroke="#c0c0c0" stroke-width="2" points="316.8251,-116.7952 310.9014,-108.0111 310.0543,-118.572 316.8251,-116.7952"/>
</g>
<!-- 6 -->
<g id="node7" class="node">
<title>6</title>
<path fill="none" stroke="#afd856" stroke-width="2" d="M122.7213,-252C122.7213,-252 54.7213,-252 54.7213,-252 48.7213,-252 42.7213,-246 42.7213,-240 42.7213,-240 42.7213,-228 42.7213,-228 42.7213,-222 48.7213,-216 54.7213,-216 54.7213,-216 122.7213,-216 122.7213,-216 128.7213,-216 134.7213,-222 134.7213,-228 134.7213,-228 134.7213,-240 134.7213,-240 134.7213,-246 128.7213,-252 122.7213,-252"/>
<text text-anchor="middle" x="88.7213" y="-231.5" font-family="sans" font-size="10.00" fill="#000000">deepbinner_bin</text>
</g>
<!-- 4&#45;&gt;6 -->
<g id="edge11" class="edge">
<title>4&#45;&gt;6</title>
<path fill="none" stroke="#c0c0c0" stroke-width="2" d="M185.9185,-439.5217C137.4987,-429.2444 70.8164,-412.7231 49.7213,-396 9.61,-364.2018 -14.1694,-333.269 9.7213,-288 16.2729,-275.5859 27.1054,-265.4839 38.6793,-257.5202"/>
<polygon fill="#c0c0c0" stroke="#c0c0c0" stroke-width="2" points="40.6362,-260.4235 47.1874,-252.0968 36.8735,-254.5207 40.6362,-260.4235"/>
</g>
<!-- 8 -->
<g id="node9" class="node">
<title>8</title>
<path fill="none" stroke="#56c9d8" stroke-width="2" d="M290.2213,-324C290.2213,-324 189.2213,-324 189.2213,-324 183.2213,-324 177.2213,-318 177.2213,-312 177.2213,-312 177.2213,-300 177.2213,-300 177.2213,-294 183.2213,-288 189.2213,-288 189.2213,-288 290.2213,-288 290.2213,-288 296.2213,-288 302.2213,-294 302.2213,-300 302.2213,-300 302.2213,-312 302.2213,-312 302.2213,-318 296.2213,-324 290.2213,-324"/>
<text text-anchor="middle" x="239.7213" y="-303.5" font-family="sans" font-size="10.00" fill="#000000">guppy_demultiplexing</text>
</g>
<!-- 4&#45;&gt;8 -->
<g id="edge13" class="edge">
<title>4&#45;&gt;8</title>
<path fill="none" stroke="#c0c0c0" stroke-width="2" d="M239.7213,-431.7623C239.7213,-407.201 239.7213,-363.2474 239.7213,-334.3541"/>
<polygon fill="#c0c0c0" stroke="#c0c0c0" stroke-width="2" points="243.2214,-334.0896 239.7213,-324.0896 236.2214,-334.0897 243.2214,-334.0896"/>
</g>
<!-- 9 -->
<g id="node10" class="node">
<title>9</title>
<path fill="none" stroke="#56d8a9" stroke-width="2" d="M454.2213,-396C454.2213,-396 371.2213,-396 371.2213,-396 365.2213,-396 359.2213,-390 359.2213,-384 359.2213,-384 359.2213,-372 359.2213,-372 359.2213,-366 365.2213,-360 371.2213,-360 371.2213,-360 454.2213,-360 454.2213,-360 460.2213,-360 466.2213,-366 466.2213,-372 466.2213,-372 466.2213,-384 466.2213,-384 466.2213,-390 460.2213,-396 454.2213,-396"/>
<text text-anchor="middle" x="412.7213" y="-375.5" font-family="sans" font-size="10.00" fill="#000000">minionqc_basecall</text>
</g>
<!-- 4&#45;&gt;9 -->
<g id="edge14" class="edge">
<title>4&#45;&gt;9</title>
<path fill="none" stroke="#c0c0c0" stroke-width="2" d="M283.3765,-431.8314C306.6171,-422.159 335.3781,-410.1891 359.8736,-399.9944"/>
<polygon fill="#c0c0c0" stroke="#c0c0c0" stroke-width="2" points="361.4926,-403.1117 369.3801,-396.038 358.8029,-396.6491 361.4926,-403.1117"/>
</g>
<!-- 10 -->
<g id="node11" class="node">
<title>10</title>
<path fill="none" stroke="#5692d8" stroke-width="2" d="M168.7213,-396C168.7213,-396 70.7213,-396 70.7213,-396 64.7213,-396 58.7213,-390 58.7213,-384 58.7213,-384 58.7213,-372 58.7213,-372 58.7213,-366 64.7213,-360 70.7213,-360 70.7213,-360 168.7213,-360 168.7213,-360 174.7213,-360 180.7213,-366 180.7213,-372 180.7213,-372 180.7213,-384 180.7213,-384 180.7213,-390 174.7213,-396 168.7213,-396"/>
<text text-anchor="middle" x="119.7213" y="-375.5" font-family="sans" font-size="10.00" fill="#000000">multi_to_single_fast5</text>
</g>
<!-- 4&#45;&gt;10 -->
<g id="edge15" class="edge">
<title>4&#45;&gt;10</title>
<path fill="none" stroke="#c0c0c0" stroke-width="2" d="M209.4403,-431.8314C194.0915,-422.6221 175.2715,-411.3301 158.839,-401.4706"/>
<polygon fill="#c0c0c0" stroke="#c0c0c0" stroke-width="2" points="160.3684,-398.3066 149.9927,-396.1628 156.7669,-404.3091 160.3684,-398.3066"/>
</g>
<!-- 5 -->
<g id="node6" class="node">
<title>5</title>
<path fill="none" stroke="#56a9d8" stroke-width="2" d="M450.2213,-324C450.2213,-324 375.2213,-324 375.2213,-324 369.2213,-324 363.2213,-318 363.2213,-312 363.2213,-312 363.2213,-300 363.2213,-300 363.2213,-294 369.2213,-288 375.2213,-288 375.2213,-288 450.2213,-288 450.2213,-288 456.2213,-288 462.2213,-294 462.2213,-300 462.2213,-300 462.2213,-312 462.2213,-312 462.2213,-318 456.2213,-324 450.2213,-324"/>
<text text-anchor="middle" x="412.7213" y="-303.5" font-family="sans" font-size="10.00" fill="#000000">multiqc_basecall</text>
</g>
<!-- 5&#45;&gt;2 -->
<g id="edge5" class="edge">
<title>5&#45;&gt;2</title>
<path fill="none" stroke="#c0c0c0" stroke-width="2" d="M412.7213,-287.7623C412.7213,-263.201 412.7213,-219.2474 412.7213,-190.3541"/>
<polygon fill="#c0c0c0" stroke="#c0c0c0" stroke-width="2" points="416.2214,-190.0896 412.7213,-180.0896 409.2214,-190.0897 416.2214,-190.0896"/>
</g>
<!-- 6&#45;&gt;3 -->
<g id="edge7" class="edge">
<title>6&#45;&gt;3</title>
<path fill="none" stroke="#c0c0c0" stroke-width="2" d="M113.9556,-215.8314C126.5093,-206.7927 141.8497,-195.7476 155.3605,-186.0198"/>
<polygon fill="#c0c0c0" stroke="#c0c0c0" stroke-width="2" points="157.4249,-188.8463 163.4952,-180.1628 153.3347,-183.1655 157.4249,-188.8463"/>
</g>
<!-- 7 -->
<g id="node8" class="node">
<title>7</title>
<path fill="none" stroke="#d87556" stroke-width="2" d="M146.7213,-324C146.7213,-324 30.7213,-324 30.7213,-324 24.7213,-324 18.7213,-318 18.7213,-312 18.7213,-312 18.7213,-300 18.7213,-300 18.7213,-294 24.7213,-288 30.7213,-288 30.7213,-288 146.7213,-288 146.7213,-288 152.7213,-288 158.7213,-294 158.7213,-300 158.7213,-300 158.7213,-312 158.7213,-312 158.7213,-318 152.7213,-324 146.7213,-324"/>
<text text-anchor="middle" x="88.7213" y="-303.5" font-family="sans" font-size="10.00" fill="#000000">deepbinner_classification</text>
</g>
<!-- 7&#45;&gt;3 -->
<g id="edge6" class="edge">
<title>7&#45;&gt;3</title>
<path fill="none" stroke="#c0c0c0" stroke-width="2" d="M110.2575,-287.9529C121.1735,-278.0828 134.115,-265.2 143.7213,-252 157.837,-232.6038 169.7572,-208.1201 177.7756,-189.5879"/>
<polygon fill="#c0c0c0" stroke="#c0c0c0" stroke-width="2" points="181.058,-190.8113 181.711,-180.2366 174.6061,-188.0961 181.058,-190.8113"/>
</g>
<!-- 7&#45;&gt;6 -->
<g id="edge10" class="edge">
<title>7&#45;&gt;6</title>
<path fill="none" stroke="#c0c0c0" stroke-width="2" d="M88.7213,-287.8314C88.7213,-280.131 88.7213,-270.9743 88.7213,-262.4166"/>
<polygon fill="#c0c0c0" stroke="#c0c0c0" stroke-width="2" points="92.2214,-262.4132 88.7213,-252.4133 85.2214,-262.4133 92.2214,-262.4132"/>
</g>
<!-- 8&#45;&gt;3 -->
<g id="edge8" class="edge">
<title>8&#45;&gt;3</title>
<path fill="none" stroke="#c0c0c0" stroke-width="2" d="M233.2622,-287.7623C224.4867,-262.9846 208.7216,-218.4714 198.4942,-189.5939"/>
<polygon fill="#c0c0c0" stroke="#c0c0c0" stroke-width="2" points="201.7658,-188.3474 195.1281,-180.0896 195.1674,-190.6844 201.7658,-188.3474"/>
</g>
<!-- 9&#45;&gt;5 -->
<g id="edge9" class="edge">
<title>9&#45;&gt;5</title>
<path fill="none" stroke="#c0c0c0" stroke-width="2" d="M412.7213,-359.8314C412.7213,-352.131 412.7213,-342.9743 412.7213,-334.4166"/>
<polygon fill="#c0c0c0" stroke="#c0c0c0" stroke-width="2" points="416.2214,-334.4132 412.7213,-324.4133 409.2214,-334.4133 416.2214,-334.4132"/>
</g>
<!-- 10&#45;&gt;7 -->
<g id="edge12" class="edge">
<title>10&#45;&gt;7</title>
<path fill="none" stroke="#c0c0c0" stroke-width="2" d="M111.8987,-359.8314C108.5104,-351.9617 104.4673,-342.5712 100.7137,-333.8533"/>
<polygon fill="#c0c0c0" stroke="#c0c0c0" stroke-width="2" points="103.8186,-332.214 96.6493,-324.4133 97.3892,-334.9822 103.8186,-332.214"/>
</g>
</g>
</svg>
