<?xml version="1.0" encoding="UTF-8" standalone="no"?>
<!DOCTYPE svg PUBLIC "-//W3C//DTD SVG 1.1//EN"
 "http://www.w3.org/Graphics/SVG/1.1/DTD/svg11.dtd">
<!-- Generated by graphviz version 2.43.0 (0)
 -->
<!-- Title: snakemake_dag Pages: 1 -->
<svg width="440pt" height="692pt"
 viewBox="0.00 0.00 439.50 692.00" xmlns="http://www.w3.org/2000/svg" xmlns:xlink="http://www.w3.org/1999/xlink">
<g id="graph0" class="graph" transform="scale(1 1) rotate(0) translate(4 688)">
<title>snakemake_dag</title>
<polygon fill="white" stroke="transparent" points="-4,4 -4,-688 435.5,-688 435.5,4 -4,4"/>
<!-- 0 -->
<g id="node1" class="node">
<title>0</title>
<path fill="none" stroke="#56d8d8" stroke-width="2" d="M248,-36C248,-36 218,-36 218,-36 212,-36 206,-30 206,-24 206,-24 206,-12 206,-12 206,-6 212,0 218,0 218,0 248,0 248,0 254,0 260,-6 260,-12 260,-12 260,-24 260,-24 260,-30 254,-36 248,-36"/>
<text text-anchor="middle" x="233" y="-15.5" font-family="sans" font-size="10.00">finish</text>
</g>
<!-- 1 -->
<g id="node2" class="node">
<title>1</title>
<path fill="none" stroke="#d88d56" stroke-width="2" d="M308.5,-180C308.5,-180 215.5,-180 215.5,-180 209.5,-180 203.5,-174 203.5,-168 203.5,-168 203.5,-156 203.5,-156 203.5,-150 209.5,-144 215.5,-144 215.5,-144 308.5,-144 308.5,-144 314.5,-144 320.5,-150 320.5,-156 320.5,-156 320.5,-168 320.5,-168 320.5,-174 314.5,-180 308.5,-180"/>
<text text-anchor="middle" x="262" y="-159.5" font-family="sans" font-size="10.00">multiqc_demultiplex</text>
</g>
<!-- 1&#45;&gt;0 -->
<g id="edge2" class="edge">
<title>1&#45;&gt;0</title>
<path fill="none" stroke="grey" stroke-width="2" d="M259.58,-143.85C256.94,-125.86 252.36,-96.81 247,-72 245.16,-63.5 242.85,-54.31 240.64,-46.01"/>
<polygon fill="grey" stroke="grey" stroke-width="2" points="243.95,-44.82 237.94,-36.09 237.19,-46.66 243.95,-44.82"/>
</g>
<!-- 2 -->
<g id="node3" class="node">
<title>2</title>
<path fill="none" stroke="#56d88a" stroke-width="2" d="M296.5,-324C296.5,-324 195.5,-324 195.5,-324 189.5,-324 183.5,-318 183.5,-312 183.5,-312 183.5,-300 183.5,-300 183.5,-294 189.5,-288 195.5,-288 195.5,-288 296.5,-288 296.5,-288 302.5,-288 308.5,-294 308.5,-300 308.5,-300 308.5,-312 308.5,-312 308.5,-318 302.5,-324 296.5,-324"/>
<text text-anchor="middle" x="246" y="-303.5" font-family="sans" font-size="10.00">minionqc_demultiplex</text>
</g>
<!-- 2&#45;&gt;1 -->
<g id="edge6" class="edge">
<title>2&#45;&gt;1</title>
<path fill="none" stroke="grey" stroke-width="2" d="M247.93,-287.87C250.66,-263.67 255.67,-219.21 258.91,-190.39"/>
<polygon fill="grey" stroke="grey" stroke-width="2" points="262.42,-190.52 260.06,-180.19 255.47,-189.73 262.42,-190.52"/>
</g>
<!-- 3 -->
<g id="node4" class="node">
<title>3</title>
<path fill="none" stroke="#d86e56" stroke-width="2" d="M264,-396C264,-396 78,-396 78,-396 72,-396 66,-390 66,-384 66,-384 66,-372 66,-372 66,-366 72,-360 78,-360 78,-360 264,-360 264,-360 270,-360 276,-366 276,-372 276,-372 276,-384 276,-384 276,-390 270,-396 264,-396"/>
<text text-anchor="middle" x="171" y="-375.5" font-family="sans" font-size="10.00">get_sequencing_summary_per_barcode</text>
</g>
<!-- 3&#45;&gt;2 -->
<g id="edge7" class="edge">
<title>3&#45;&gt;2</title>
<path fill="none" stroke="grey" stroke-width="2" d="M189.54,-359.7C198.8,-351.05 210.16,-340.45 220.26,-331.03"/>
<polygon fill="grey" stroke="grey" stroke-width="2" points="222.75,-333.49 227.67,-324.1 217.98,-328.37 222.75,-333.49"/>
</g>
<!-- 14 -->
<g id="node15" class="node">
<title>14</title>
<path fill="none" stroke="#56d873" stroke-width="2" d="M135.5,-324C135.5,-324 28.5,-324 28.5,-324 22.5,-324 16.5,-318 16.5,-312 16.5,-312 16.5,-300 16.5,-300 16.5,-294 22.5,-288 28.5,-288 28.5,-288 135.5,-288 135.5,-288 141.5,-288 147.5,-294 147.5,-300 147.5,-300 147.5,-312 147.5,-312 147.5,-318 141.5,-324 135.5,-324"/>
<text text-anchor="middle" x="82" y="-303.5" font-family="sans" font-size="10.00">get_reads_per_genome</text>
</g>
<!-- 3&#45;&gt;14 -->
<g id="edge21" class="edge">
<title>3&#45;&gt;14</title>
<path fill="none" stroke="grey" stroke-width="2" d="M149,-359.7C137.79,-350.88 124,-340.03 111.85,-330.47"/>
<polygon fill="grey" stroke="grey" stroke-width="2" points="113.77,-327.54 103.75,-324.1 109.44,-333.04 113.77,-327.54"/>
</g>
<!-- 4 -->
<g id="node5" class="node">
<title>4</title>
<path fill="none" stroke="#70d856" stroke-width="2" d="M312.5,-468C312.5,-468 211.5,-468 211.5,-468 205.5,-468 199.5,-462 199.5,-456 199.5,-456 199.5,-444 199.5,-444 199.5,-438 205.5,-432 211.5,-432 211.5,-432 312.5,-432 312.5,-432 318.5,-432 324.5,-438 324.5,-444 324.5,-444 324.5,-456 324.5,-456 324.5,-462 318.5,-468 312.5,-468"/>
<text text-anchor="middle" x="262" y="-447.5" font-family="sans" font-size="10.00">guppy_demultiplexing</text>
</g>
<!-- 4&#45;&gt;3 -->
<g id="edge9" class="edge">
<title>4&#45;&gt;3</title>
<path fill="none" stroke="grey" stroke-width="2" d="M239.51,-431.7C228.04,-422.88 213.94,-412.03 201.52,-402.47"/>
<polygon fill="grey" stroke="grey" stroke-width="2" points="203.3,-399.43 193.24,-396.1 199.03,-404.98 203.3,-399.43"/>
</g>
<!-- 4&#45;&gt;14 -->
<g id="edge23" class="edge">
<title>4&#45;&gt;14</title>
<path fill="none" stroke="grey" stroke-width="2" d="M274.31,-431.86C286.54,-412.54 301.29,-381.09 285,-360 276.86,-349.47 211.85,-333.69 157.56,-322.08"/>
<polygon fill="grey" stroke="grey" stroke-width="2" points="158.07,-318.61 147.56,-319.97 156.62,-325.46 158.07,-318.61"/>
</g>
<!-- 5 -->
<g id="node6" class="node">
<title>5</title>
<path fill="none" stroke="#d8bc56" stroke-width="2" d="M205.5,-684C205.5,-684 122.5,-684 122.5,-684 116.5,-684 110.5,-678 110.5,-672 110.5,-672 110.5,-660 110.5,-660 110.5,-654 116.5,-648 122.5,-648 122.5,-648 205.5,-648 205.5,-648 211.5,-648 217.5,-654 217.5,-660 217.5,-660 217.5,-672 217.5,-672 217.5,-678 211.5,-684 205.5,-684"/>
<text text-anchor="middle" x="164" y="-663.5" font-family="sans" font-size="10.00">guppy_basecalling</text>
</g>
<!-- 5&#45;&gt;4 -->
<g id="edge10" class="edge">
<title>5&#45;&gt;4</title>
<path fill="none" stroke="grey" stroke-width="2" d="M196.37,-647.87C210.08,-638.97 224.95,-626.84 234,-612 259.32,-570.47 263.28,-512.35 263.14,-478.5"/>
<polygon fill="grey" stroke="grey" stroke-width="2" points="266.64,-478.35 262.97,-468.41 259.64,-478.47 266.64,-478.35"/>
</g>
<!-- 6 -->
<g id="node7" class="node">
<title>6</title>
<path fill="none" stroke="#d8a456" stroke-width="2" d="M139,-468C139,-468 71,-468 71,-468 65,-468 59,-462 59,-456 59,-456 59,-444 59,-444 59,-438 65,-432 71,-432 71,-432 139,-432 139,-432 145,-432 151,-438 151,-444 151,-444 151,-456 151,-456 151,-462 145,-468 139,-468"/>
<text text-anchor="middle" x="105" y="-447.5" font-family="sans" font-size="10.00">deepbinner_bin</text>
</g>
<!-- 5&#45;&gt;6 -->
<g id="edge11" class="edge">
<title>5&#45;&gt;6</title>
<path fill="none" stroke="grey" stroke-width="2" d="M130.94,-647.83C117.26,-638.99 102.61,-626.92 94,-612 69.92,-570.29 76.36,-551.38 85,-504 86.61,-495.2 89.6,-485.95 92.79,-477.7"/>
<polygon fill="grey" stroke="grey" stroke-width="2" points="96.12,-478.79 96.69,-468.21 89.65,-476.12 96.12,-478.79"/>
</g>
<!-- 8 -->
<g id="node9" class="node">
<title>8</title>
<path fill="none" stroke="#56a2d8" stroke-width="2" d="M213,-612C213,-612 115,-612 115,-612 109,-612 103,-606 103,-600 103,-600 103,-588 103,-588 103,-582 109,-576 115,-576 115,-576 213,-576 213,-576 219,-576 225,-582 225,-588 225,-588 225,-600 225,-600 225,-606 219,-612 213,-612"/>
<text text-anchor="middle" x="164" y="-591.5" font-family="sans" font-size="10.00">multi_to_single_fast5</text>
</g>
<!-- 5&#45;&gt;8 -->
<g id="edge14" class="edge">
<title>5&#45;&gt;8</title>
<path fill="none" stroke="grey" stroke-width="2" d="M164,-647.7C164,-639.98 164,-630.71 164,-622.11"/>
<polygon fill="grey" stroke="grey" stroke-width="2" points="167.5,-622.1 164,-612.1 160.5,-622.1 167.5,-622.1"/>
</g>
<!-- 10 -->
<g id="node11" class="node">
<title>10</title>
<path fill="none" stroke="#56d8c1" stroke-width="2" d="M397.5,-612C397.5,-612 314.5,-612 314.5,-612 308.5,-612 302.5,-606 302.5,-600 302.5,-600 302.5,-588 302.5,-588 302.5,-582 308.5,-576 314.5,-576 314.5,-576 397.5,-576 397.5,-576 403.5,-576 409.5,-582 409.5,-588 409.5,-588 409.5,-600 409.5,-600 409.5,-606 403.5,-612 397.5,-612"/>
<text text-anchor="middle" x="356" y="-591.5" font-family="sans" font-size="10.00">minionqc_basecall</text>
</g>
<!-- 5&#45;&gt;10 -->
<g id="edge16" class="edge">
<title>5&#45;&gt;10</title>
<path fill="none" stroke="grey" stroke-width="2" d="M210.97,-647.88C237.68,-638.14 271.32,-625.87 299.47,-615.61"/>
<polygon fill="grey" stroke="grey" stroke-width="2" points="300.99,-618.78 309.18,-612.07 298.59,-612.21 300.99,-618.78"/>
</g>
<!-- 5&#45;&gt;14 -->
<g id="edge20" class="edge">
<title>5&#45;&gt;14</title>
<path fill="none" stroke="grey" stroke-width="2" d="M117.44,-647.87C68.96,-626.67 0,-585.52 0,-523 0,-523 0,-523 0,-449 0,-402.88 32.84,-358.26 56.96,-331.72"/>
<polygon fill="grey" stroke="grey" stroke-width="2" points="59.52,-334.1 63.8,-324.4 54.41,-329.31 59.52,-334.1"/>
</g>
<!-- 6&#45;&gt;3 -->
<g id="edge8" class="edge">
<title>6&#45;&gt;3</title>
<path fill="none" stroke="grey" stroke-width="2" d="M121.31,-431.7C129.31,-423.22 139.07,-412.86 147.82,-403.58"/>
<polygon fill="grey" stroke="grey" stroke-width="2" points="150.56,-405.78 154.87,-396.1 145.47,-400.98 150.56,-405.78"/>
</g>
<!-- 6&#45;&gt;14 -->
<g id="edge22" class="edge">
<title>6&#45;&gt;14</title>
<path fill="none" stroke="grey" stroke-width="2" d="M83.29,-431.79C73.24,-422.41 62.36,-409.9 57,-396 49.06,-375.4 56.87,-351.25 65.79,-333.31"/>
<polygon fill="grey" stroke="grey" stroke-width="2" points="69.12,-334.5 70.77,-324.04 62.96,-331.19 69.12,-334.5"/>
</g>
<!-- 7 -->
<g id="node8" class="node">
<title>7</title>
<path fill="none" stroke="#59d856" stroke-width="2" d="M222,-540C222,-540 106,-540 106,-540 100,-540 94,-534 94,-528 94,-528 94,-516 94,-516 94,-510 100,-504 106,-504 106,-504 222,-504 222,-504 228,-504 234,-510 234,-516 234,-516 234,-528 234,-528 234,-534 228,-540 222,-540"/>
<text text-anchor="middle" x="164" y="-519.5" font-family="sans" font-size="10.00">deepbinner_classification</text>
</g>
<!-- 7&#45;&gt;6 -->
<g id="edge12" class="edge">
<title>7&#45;&gt;6</title>
<path fill="none" stroke="grey" stroke-width="2" d="M149.42,-503.7C142.34,-495.3 133.72,-485.07 125.95,-475.86"/>
<polygon fill="grey" stroke="grey" stroke-width="2" points="128.54,-473.49 119.42,-468.1 123.19,-478.01 128.54,-473.49"/>
</g>
<!-- 8&#45;&gt;7 -->
<g id="edge13" class="edge">
<title>8&#45;&gt;7</title>
<path fill="none" stroke="grey" stroke-width="2" d="M164,-575.7C164,-567.98 164,-558.71 164,-550.11"/>
<polygon fill="grey" stroke="grey" stroke-width="2" points="167.5,-550.1 164,-540.1 160.5,-550.1 167.5,-550.1"/>
</g>
<!-- 9 -->
<g id="node10" class="node">
<title>9</title>
<path fill="none" stroke="#568ad8" stroke-width="2" d="M419.5,-396C419.5,-396 344.5,-396 344.5,-396 338.5,-396 332.5,-390 332.5,-384 332.5,-384 332.5,-372 332.5,-372 332.5,-366 338.5,-360 344.5,-360 344.5,-360 419.5,-360 419.5,-360 425.5,-360 431.5,-366 431.5,-372 431.5,-372 431.5,-384 431.5,-384 431.5,-390 425.5,-396 419.5,-396"/>
<text text-anchor="middle" x="382" y="-375.5" font-family="sans" font-size="10.00">multiqc_basecall</text>
</g>
<!-- 9&#45;&gt;0 -->
<g id="edge5" class="edge">
<title>9&#45;&gt;0</title>
<path fill="none" stroke="grey" stroke-width="2" d="M375.73,-359.78C366.67,-333.32 351,-280.92 351,-235 351,-235 351,-235 351,-161 351,-108.85 303.33,-65.62 268.59,-41.05"/>
<polygon fill="grey" stroke="grey" stroke-width="2" points="270.3,-37.98 260.07,-35.21 266.34,-43.75 270.3,-37.98"/>
</g>
<!-- 10&#45;&gt;9 -->
<g id="edge15" class="edge">
<title>10&#45;&gt;9</title>
<path fill="none" stroke="grey" stroke-width="2" d="M358.08,-575.85C362.58,-538.83 373.23,-451.18 378.67,-406.39"/>
<polygon fill="grey" stroke="grey" stroke-width="2" points="382.17,-406.58 379.91,-396.23 375.23,-405.74 382.17,-406.58"/>
</g>
<!-- 11 -->
<g id="node12" class="node">
<title>11</title>
<path fill="none" stroke="#88d856" stroke-width="2" d="M193,-108C193,-108 107,-108 107,-108 101,-108 95,-102 95,-96 95,-96 95,-84 95,-84 95,-78 101,-72 107,-72 107,-72 193,-72 193,-72 199,-72 205,-78 205,-84 205,-84 205,-96 205,-96 205,-102 199,-108 193,-108"/>
<text text-anchor="middle" x="150" y="-87.5" font-family="sans" font-size="10.00">report_demultiplex</text>
</g>
<!-- 11&#45;&gt;0 -->
<g id="edge3" class="edge">
<title>11&#45;&gt;0</title>
<path fill="none" stroke="grey" stroke-width="2" d="M170.52,-71.7C180.87,-62.97 193.59,-52.24 204.84,-42.75"/>
<polygon fill="grey" stroke="grey" stroke-width="2" points="207.33,-45.23 212.72,-36.1 202.82,-39.88 207.33,-45.23"/>
</g>
<!-- 12 -->
<g id="node13" class="node">
<title>12</title>
<path fill="none" stroke="#56c1d8" stroke-width="2" d="M165,-180C165,-180 135,-180 135,-180 129,-180 123,-174 123,-168 123,-168 123,-156 123,-156 123,-150 129,-144 135,-144 135,-144 165,-144 165,-144 171,-144 177,-150 177,-156 177,-156 177,-168 177,-168 177,-174 171,-180 165,-180"/>
<text text-anchor="middle" x="150" y="-159.5" font-family="sans" font-size="10.00">filtlong</text>
</g>
<!-- 12&#45;&gt;0 -->
<g id="edge4" class="edge">
<title>12&#45;&gt;0</title>
<path fill="none" stroke="grey" stroke-width="2" d="M177.08,-144.78C190.16,-135.59 204.95,-122.93 214,-108 225.29,-89.36 229.93,-64.97 231.81,-46.44"/>
<polygon fill="grey" stroke="grey" stroke-width="2" points="235.31,-46.54 232.63,-36.29 228.34,-45.98 235.31,-46.54"/>
</g>
<!-- 12&#45;&gt;11 -->
<g id="edge17" class="edge">
<title>12&#45;&gt;11</title>
<path fill="none" stroke="grey" stroke-width="2" d="M150,-143.7C150,-135.98 150,-126.71 150,-118.11"/>
<polygon fill="grey" stroke="grey" stroke-width="2" points="153.5,-118.1 150,-108.1 146.5,-118.1 153.5,-118.1"/>
</g>
<!-- 13 -->
<g id="node14" class="node">
<title>13</title>
<path fill="none" stroke="#5673d8" stroke-width="2" d="M157,-252C157,-252 119,-252 119,-252 113,-252 107,-246 107,-240 107,-240 107,-228 107,-228 107,-222 113,-216 119,-216 119,-216 157,-216 157,-216 163,-216 169,-222 169,-228 169,-228 169,-240 169,-240 169,-246 163,-252 157,-252"/>
<text text-anchor="middle" x="138" y="-231.5" font-family="sans" font-size="10.00">porechop</text>
</g>
<!-- 13&#45;&gt;12 -->
<g id="edge18" class="edge">
<title>13&#45;&gt;12</title>
<path fill="none" stroke="grey" stroke-width="2" d="M140.97,-215.7C142.29,-207.98 143.88,-198.71 145.35,-190.11"/>
<polygon fill="grey" stroke="grey" stroke-width="2" points="148.83,-190.55 147.07,-180.1 141.93,-189.37 148.83,-190.55"/>
</g>
<!-- 14&#45;&gt;0 -->
<g id="edge1" class="edge">
<title>14&#45;&gt;0</title>
<path fill="none" stroke="grey" stroke-width="2" d="M76.3,-287.76C63.7,-246.17 38.22,-138.8 86,-72 110.89,-37.21 160.89,-25.17 195.62,-21.05"/>
<polygon fill="grey" stroke="grey" stroke-width="2" points="196.27,-24.5 205.87,-20.01 195.57,-17.54 196.27,-24.5"/>
</g>
<!-- 14&#45;&gt;13 -->
<g id="edge19" class="edge">
<title>14&#45;&gt;13</title>
<path fill="none" stroke="grey" stroke-width="2" d="M95.84,-287.7C102.49,-279.39 110.58,-269.28 117.89,-260.14"/>
<polygon fill="grey" stroke="grey" stroke-width="2" points="120.8,-262.1 124.32,-252.1 115.34,-257.73 120.8,-262.1"/>
</g>
</g>
</svg>
