<?xml version="1.0" encoding="UTF-8" standalone="no"?>
<!DOCTYPE svg PUBLIC "-//W3C//DTD SVG 1.1//EN"
 "http://www.w3.org/Graphics/SVG/1.1/DTD/svg11.dtd">
<!-- Generated by graphviz version 2.40.1 (20161225.0304)
 -->
<!-- Title: snakemake_dag Pages: 1 -->
<svg width="471pt" height="548pt"
 viewBox="0.00 0.00 471.14 548.00" xmlns="http://www.w3.org/2000/svg" xmlns:xlink="http://www.w3.org/1999/xlink">
<g id="graph0" class="graph" transform="scale(1 1) rotate(0) translate(4 544)">
<title>snakemake_dag</title>
<polygon fill="#ffffff" stroke="transparent" points="-4,4 -4,-544 467.1394,-544 467.1394,4 -4,4"/>
<!-- 0 -->
<g id="node1" class="node">
<title>0</title>
<path fill="none" stroke="#d87556" stroke-width="2" d="M159.5,-36C159.5,-36 129.5,-36 129.5,-36 123.5,-36 117.5,-30 117.5,-24 117.5,-24 117.5,-12 117.5,-12 117.5,-6 123.5,0 129.5,0 129.5,0 159.5,0 159.5,0 165.5,0 171.5,-6 171.5,-12 171.5,-12 171.5,-24 171.5,-24 171.5,-30 165.5,-36 159.5,-36"/>
<text text-anchor="middle" x="144.5" y="-15.5" font-family="sans" font-size="10.00" fill="#000000">finish</text>
</g>
<!-- 1 -->
<g id="node2" class="node">
<title>1</title>
<path fill="none" stroke="#56d863" stroke-width="2" d="M87,-324C87,-324 12,-324 12,-324 6,-324 0,-318 0,-312 0,-312 0,-300 0,-300 0,-294 6,-288 12,-288 12,-288 87,-288 87,-288 93,-288 99,-294 99,-300 99,-300 99,-312 99,-312 99,-318 93,-324 87,-324"/>
<text text-anchor="middle" x="49.5" y="-303.5" font-family="sans" font-size="10.00" fill="#000000">multiqc_basecall</text>
</g>
<!-- 1&#45;&gt;0 -->
<g id="edge2" class="edge">
<title>1&#45;&gt;0</title>
<path fill="none" stroke="#c0c0c0" stroke-width="2" d="M47.0726,-287.9049C43.6654,-257.32 39.6198,-193.8631 56.5,-144 69.6444,-105.1723 98.7057,-67.5684 119.8455,-43.7034"/>
<polygon fill="#c0c0c0" stroke="#c0c0c0" stroke-width="2" points="122.5618,-45.918 126.6765,-36.1548 117.3715,-41.2211 122.5618,-45.918"/>
</g>
<!-- 2 -->
<g id="node3" class="node">
<title>2</title>
<path fill="none" stroke="#88d856" stroke-width="2" d="M314,-108C314,-108 221,-108 221,-108 215,-108 209,-102 209,-96 209,-96 209,-84 209,-84 209,-78 215,-72 221,-72 221,-72 314,-72 314,-72 320,-72 326,-78 326,-84 326,-84 326,-96 326,-96 326,-102 320,-108 314,-108"/>
<text text-anchor="middle" x="267.5" y="-87.5" font-family="sans" font-size="10.00" fill="#000000">multiqc_demultiplex</text>
</g>
<!-- 2&#45;&gt;0 -->
<g id="edge1" class="edge">
<title>2&#45;&gt;0</title>
<path fill="none" stroke="#c0c0c0" stroke-width="2" d="M236.4619,-71.8314C219.4929,-61.8983 198.3846,-49.5422 180.6724,-39.1741"/>
<polygon fill="#c0c0c0" stroke="#c0c0c0" stroke-width="2" points="182.1578,-35.9881 171.7595,-33.9568 178.6215,-42.0292 182.1578,-35.9881"/>
</g>
<!-- 3 -->
<g id="node4" class="node">
<title>3</title>
<path fill="none" stroke="#bed856" stroke-width="2" d="M211.5,-180C211.5,-180 77.5,-180 77.5,-180 71.5,-180 65.5,-174 65.5,-168 65.5,-168 65.5,-156 65.5,-156 65.5,-150 71.5,-144 77.5,-144 77.5,-144 211.5,-144 211.5,-144 217.5,-144 223.5,-150 223.5,-156 223.5,-156 223.5,-168 223.5,-168 223.5,-174 217.5,-180 211.5,-180"/>
<text text-anchor="middle" x="144.5" y="-159.5" font-family="sans" font-size="10.00" fill="#000000">get_multi_fast5_per_barcode</text>
</g>
<!-- 3&#45;&gt;0 -->
<g id="edge3" class="edge">
<title>3&#45;&gt;0</title>
<path fill="none" stroke="#c0c0c0" stroke-width="2" d="M144.5,-143.7623C144.5,-119.201 144.5,-75.2474 144.5,-46.3541"/>
<polygon fill="#c0c0c0" stroke="#c0c0c0" stroke-width="2" points="148.0001,-46.0896 144.5,-36.0896 141.0001,-46.0897 148.0001,-46.0896"/>
</g>
<!-- 4 -->
<g id="node5" class="node">
<title>4</title>
<path fill="none" stroke="#56d8c1" stroke-width="2" d="M97,-396C97,-396 14,-396 14,-396 8,-396 2,-390 2,-384 2,-384 2,-372 2,-372 2,-366 8,-360 14,-360 14,-360 97,-360 97,-360 103,-360 109,-366 109,-372 109,-372 109,-384 109,-384 109,-390 103,-396 97,-396"/>
<text text-anchor="middle" x="55.5" y="-375.5" font-family="sans" font-size="10.00" fill="#000000">minionqc_basecall</text>
</g>
<!-- 4&#45;&gt;1 -->
<g id="edge4" class="edge">
<title>4&#45;&gt;1</title>
<path fill="none" stroke="#c0c0c0" stroke-width="2" d="M53.9859,-359.8314C53.3442,-352.131 52.5812,-342.9743 51.8681,-334.4166"/>
<polygon fill="#c0c0c0" stroke="#c0c0c0" stroke-width="2" points="55.3529,-334.088 51.0344,-324.4133 48.3771,-334.6694 55.3529,-334.088"/>
</g>
<!-- 5 -->
<g id="node6" class="node">
<title>5</title>
<path fill="none" stroke="#9fd856" stroke-width="2" d="M354,-180C354,-180 253,-180 253,-180 247,-180 241,-174 241,-168 241,-168 241,-156 241,-156 241,-150 247,-144 253,-144 253,-144 354,-144 354,-144 360,-144 366,-150 366,-156 366,-156 366,-168 366,-168 366,-174 360,-180 354,-180"/>
<text text-anchor="middle" x="303.5" y="-159.5" font-family="sans" font-size="10.00" fill="#000000">minionqc_demultiplex</text>
</g>
<!-- 5&#45;&gt;2 -->
<g id="edge5" class="edge">
<title>5&#45;&gt;2</title>
<path fill="none" stroke="#c0c0c0" stroke-width="2" d="M294.4157,-143.8314C290.4385,-135.8771 285.6845,-126.369 281.2861,-117.5723"/>
<polygon fill="#c0c0c0" stroke="#c0c0c0" stroke-width="2" points="284.3093,-115.7923 276.7066,-108.4133 278.0483,-118.9228 284.3093,-115.7923"/>
</g>
<!-- 6 -->
<g id="node7" class="node">
<title>6</title>
<path fill="none" stroke="#d85656" stroke-width="2" d="M389.5,-252C389.5,-252 203.5,-252 203.5,-252 197.5,-252 191.5,-246 191.5,-240 191.5,-240 191.5,-228 191.5,-228 191.5,-222 197.5,-216 203.5,-216 203.5,-216 389.5,-216 389.5,-216 395.5,-216 401.5,-222 401.5,-228 401.5,-228 401.5,-240 401.5,-240 401.5,-246 395.5,-252 389.5,-252"/>
<text text-anchor="middle" x="296.5" y="-231.5" font-family="sans" font-size="10.00" fill="#000000">get_sequencing_summary_per_barcode</text>
</g>
<!-- 6&#45;&gt;3 -->
<g id="edge6" class="edge">
<title>6&#45;&gt;3</title>
<path fill="none" stroke="#c0c0c0" stroke-width="2" d="M258.144,-215.8314C237.9956,-206.2874 213.1248,-194.5065 191.7917,-184.4013"/>
<polygon fill="#c0c0c0" stroke="#c0c0c0" stroke-width="2" points="193.1159,-181.1558 182.5802,-180.038 190.1193,-187.482 193.1159,-181.1558"/>
</g>
<!-- 6&#45;&gt;5 -->
<g id="edge9" class="edge">
<title>6&#45;&gt;5</title>
<path fill="none" stroke="#c0c0c0" stroke-width="2" d="M298.2664,-215.8314C299.015,-208.131 299.9053,-198.9743 300.7373,-190.4166"/>
<polygon fill="#c0c0c0" stroke="#c0c0c0" stroke-width="2" points="304.2256,-190.7051 301.7098,-180.4133 297.2585,-190.0276 304.2256,-190.7051"/>
</g>
<!-- 7 -->
<g id="node8" class="node">
<title>7</title>
<path fill="none" stroke="#d89556" stroke-width="2" d="M273,-540C273,-540 190,-540 190,-540 184,-540 178,-534 178,-528 178,-528 178,-516 178,-516 178,-510 184,-504 190,-504 190,-504 273,-504 273,-504 279,-504 285,-510 285,-516 285,-516 285,-528 285,-528 285,-534 279,-540 273,-540"/>
<text text-anchor="middle" x="231.5" y="-519.5" font-family="sans" font-size="10.00" fill="#000000">guppy_basecalling</text>
</g>
<!-- 7&#45;&gt;3 -->
<g id="edge7" class="edge">
<title>7&#45;&gt;3</title>
<path fill="none" stroke="#c0c0c0" stroke-width="2" d="M197.7166,-503.9698C183.8667,-494.9355 168.9093,-482.7552 159.5,-468 137.519,-433.5305 140.5,-418.8816 140.5,-378 140.5,-378 140.5,-378 140.5,-306 140.5,-265.8605 142.0722,-219.4516 143.2453,-190.4112"/>
<polygon fill="#c0c0c0" stroke="#c0c0c0" stroke-width="2" points="146.7521,-190.3179 143.6712,-180.1809 139.7581,-190.0266 146.7521,-190.3179"/>
</g>
<!-- 7&#45;&gt;4 -->
<g id="edge8" class="edge">
<title>7&#45;&gt;4</title>
<path fill="none" stroke="#c0c0c0" stroke-width="2" d="M186.2906,-503.939C166.7343,-494.864 144.3012,-482.6603 126.5,-468 104.5183,-449.8969 84.9285,-423.9143 71.9239,-404.5158"/>
<polygon fill="#c0c0c0" stroke="#c0c0c0" stroke-width="2" points="74.8324,-402.5685 66.4273,-396.1183 68.9755,-406.4021 74.8324,-402.5685"/>
</g>
<!-- 8 -->
<g id="node9" class="node">
<title>8</title>
<path fill="none" stroke="#56d0d8" stroke-width="2" d="M404.5,-324C404.5,-324 336.5,-324 336.5,-324 330.5,-324 324.5,-318 324.5,-312 324.5,-312 324.5,-300 324.5,-300 324.5,-294 330.5,-288 336.5,-288 336.5,-288 404.5,-288 404.5,-288 410.5,-288 416.5,-294 416.5,-300 416.5,-300 416.5,-312 416.5,-312 416.5,-318 410.5,-324 404.5,-324"/>
<text text-anchor="middle" x="370.5" y="-303.5" font-family="sans" font-size="10.00" fill="#000000">deepbinner_bin</text>
</g>
<!-- 7&#45;&gt;8 -->
<g id="edge13" class="edge">
<title>7&#45;&gt;8</title>
<path fill="none" stroke="#c0c0c0" stroke-width="2" d="M285.0197,-515.8296C341.2599,-508.1141 424.2131,-492.8154 443.5,-468 472.9558,-430.1007 465.108,-402.8613 443.5,-360 439.4284,-351.9236 424.3397,-340.2378 408.9286,-329.8011"/>
<polygon fill="#c0c0c0" stroke="#c0c0c0" stroke-width="2" points="410.6734,-326.7589 400.4016,-324.1623 406.8122,-332.5977 410.6734,-326.7589"/>
</g>
<!-- 10 -->
<g id="node11" class="node">
<title>10</title>
<path fill="none" stroke="#56d882" stroke-width="2" d="M282,-468C282,-468 181,-468 181,-468 175,-468 169,-462 169,-456 169,-456 169,-444 169,-444 169,-438 175,-432 181,-432 181,-432 282,-432 282,-432 288,-432 294,-438 294,-444 294,-444 294,-456 294,-456 294,-462 288,-468 282,-468"/>
<text text-anchor="middle" x="231.5" y="-447.5" font-family="sans" font-size="10.00" fill="#000000">guppy_demultiplexing</text>
</g>
<!-- 7&#45;&gt;10 -->
<g id="edge16" class="edge">
<title>7&#45;&gt;10</title>
<path fill="none" stroke="#c0c0c0" stroke-width="2" d="M231.5,-503.8314C231.5,-496.131 231.5,-486.9743 231.5,-478.4166"/>
<polygon fill="#c0c0c0" stroke="#c0c0c0" stroke-width="2" points="235.0001,-478.4132 231.5,-468.4133 228.0001,-478.4133 235.0001,-478.4132"/>
</g>
<!-- 11 -->
<g id="node12" class="node">
<title>11</title>
<path fill="none" stroke="#d8d356" stroke-width="2" d="M422.5,-468C422.5,-468 324.5,-468 324.5,-468 318.5,-468 312.5,-462 312.5,-456 312.5,-456 312.5,-444 312.5,-444 312.5,-438 318.5,-432 324.5,-432 324.5,-432 422.5,-432 422.5,-432 428.5,-432 434.5,-438 434.5,-444 434.5,-444 434.5,-456 434.5,-456 434.5,-462 428.5,-468 422.5,-468"/>
<text text-anchor="middle" x="373.5" y="-447.5" font-family="sans" font-size="10.00" fill="#000000">multi_to_single_fast5</text>
</g>
<!-- 7&#45;&gt;11 -->
<g id="edge17" class="edge">
<title>7&#45;&gt;11</title>
<path fill="none" stroke="#c0c0c0" stroke-width="2" d="M267.3326,-503.8314C285.9157,-494.4089 308.7989,-482.8062 328.5565,-472.7883"/>
<polygon fill="#c0c0c0" stroke="#c0c0c0" stroke-width="2" points="330.3427,-475.8069 337.6789,-468.1628 327.177,-469.5635 330.3427,-475.8069"/>
</g>
<!-- 8&#45;&gt;6 -->
<g id="edge12" class="edge">
<title>8&#45;&gt;6</title>
<path fill="none" stroke="#c0c0c0" stroke-width="2" d="M351.8267,-287.8314C342.9751,-279.219 332.2514,-268.7851 322.6105,-259.4048"/>
<polygon fill="#c0c0c0" stroke="#c0c0c0" stroke-width="2" points="324.7754,-256.6279 315.1674,-252.1628 319.8939,-261.645 324.7754,-256.6279"/>
</g>
<!-- 9 -->
<g id="node10" class="node">
<title>9</title>
<path fill="none" stroke="#56d8a2" stroke-width="2" d="M422.5,-396C422.5,-396 306.5,-396 306.5,-396 300.5,-396 294.5,-390 294.5,-384 294.5,-384 294.5,-372 294.5,-372 294.5,-366 300.5,-360 306.5,-360 306.5,-360 422.5,-360 422.5,-360 428.5,-360 434.5,-366 434.5,-372 434.5,-372 434.5,-384 434.5,-384 434.5,-390 428.5,-396 422.5,-396"/>
<text text-anchor="middle" x="364.5" y="-375.5" font-family="sans" font-size="10.00" fill="#000000">deepbinner_classification</text>
</g>
<!-- 9&#45;&gt;6 -->
<g id="edge11" class="edge">
<title>9&#45;&gt;6</title>
<path fill="none" stroke="#c0c0c0" stroke-width="2" d="M343.5595,-359.925C333.6121,-350.2376 322.4134,-337.5269 315.5,-324 305.6582,-304.7432 300.912,-280.6749 298.6245,-262.2742"/>
<polygon fill="#c0c0c0" stroke="#c0c0c0" stroke-width="2" points="302.0878,-261.7443 297.5418,-252.1743 295.1277,-262.4905 302.0878,-261.7443"/>
</g>
<!-- 9&#45;&gt;8 -->
<g id="edge14" class="edge">
<title>9&#45;&gt;8</title>
<path fill="none" stroke="#c0c0c0" stroke-width="2" d="M366.0141,-359.8314C366.6558,-352.131 367.4188,-342.9743 368.1319,-334.4166"/>
<polygon fill="#c0c0c0" stroke="#c0c0c0" stroke-width="2" points="371.6229,-334.6694 368.9656,-324.4133 364.6471,-334.088 371.6229,-334.6694"/>
</g>
<!-- 10&#45;&gt;6 -->
<g id="edge10" class="edge">
<title>10&#45;&gt;6</title>
<path fill="none" stroke="#c0c0c0" stroke-width="2" d="M236.9301,-431.9555C248.2811,-394.235 274.5869,-306.8188 288.1222,-261.8399"/>
<polygon fill="#c0c0c0" stroke="#c0c0c0" stroke-width="2" points="291.5095,-262.7295 291.0397,-252.1451 284.8065,-260.7123 291.5095,-262.7295"/>
</g>
<!-- 11&#45;&gt;9 -->
<g id="edge15" class="edge">
<title>11&#45;&gt;9</title>
<path fill="none" stroke="#c0c0c0" stroke-width="2" d="M371.2289,-431.8314C370.2664,-424.131 369.1218,-414.9743 368.0521,-406.4166"/>
<polygon fill="#c0c0c0" stroke="#c0c0c0" stroke-width="2" points="371.5151,-405.9019 366.8017,-396.4133 364.5691,-406.7702 371.5151,-405.9019"/>
</g>
</g>
</svg>
