<?xml version="1.0" encoding="UTF-8" standalone="no"?>
<!DOCTYPE svg PUBLIC "-//W3C//DTD SVG 1.1//EN"
 "http://www.w3.org/Graphics/SVG/1.1/DTD/svg11.dtd">
<!-- Generated by graphviz version 2.42.3 (20191010.1750)
 -->
<!-- Title: snakemake_dag Pages: 1 -->
<svg width="518pt" height="764pt"
 viewBox="0.00 0.00 517.74 764.00" xmlns="http://www.w3.org/2000/svg" xmlns:xlink="http://www.w3.org/1999/xlink">
<g id="graph0" class="graph" transform="scale(1 1) rotate(0) translate(4 760)">
<title>snakemake_dag</title>
<polygon fill="white" stroke="transparent" points="-4,4 -4,-760 513.74,-760 513.74,4 -4,4"/>
<!-- 0 -->
<g id="node1" class="node">
<title>0</title>
<path fill="none" stroke="#9fd856" stroke-width="2" d="M285.24,-36C285.24,-36 255.24,-36 255.24,-36 249.24,-36 243.24,-30 243.24,-24 243.24,-24 243.24,-12 243.24,-12 243.24,-6 249.24,0 255.24,0 255.24,0 285.24,0 285.24,0 291.24,0 297.24,-6 297.24,-12 297.24,-12 297.24,-24 297.24,-24 297.24,-30 291.24,-36 285.24,-36"/>
<text text-anchor="middle" x="270.24" y="-15.5" font-family="sans" font-size="10.00">finish</text>
</g>
<!-- 1 -->
<g id="node2" class="node">
<title>1</title>
<path fill="none" stroke="#56d8c9" stroke-width="2" d="M171.74,-252C171.74,-252 78.74,-252 78.74,-252 72.74,-252 66.74,-246 66.74,-240 66.74,-240 66.74,-228 66.74,-228 66.74,-222 72.74,-216 78.74,-216 78.74,-216 171.74,-216 171.74,-216 177.74,-216 183.74,-222 183.74,-228 183.74,-228 183.74,-240 183.74,-240 183.74,-246 177.74,-252 171.74,-252"/>
<text text-anchor="middle" x="125.24" y="-231.5" font-family="sans" font-size="10.00">multiqc_demultiplex</text>
</g>
<!-- 1&#45;&gt;0 -->
<g id="edge5" class="edge">
<title>1&#45;&gt;0</title>
<path fill="none" stroke="grey" stroke-width="2" d="M129.84,-215.94C138.87,-184.75 161.34,-117.54 198.24,-72 208.25,-59.65 221.76,-48.71 234.39,-40.01"/>
<polygon fill="grey" stroke="grey" stroke-width="2" points="236.52,-42.8 242.93,-34.37 232.65,-36.96 236.52,-42.8"/>
</g>
<!-- 2 -->
<g id="node3" class="node">
<title>2</title>
<path fill="none" stroke="#d87d56" stroke-width="2" d="M497.74,-468C497.74,-468 422.74,-468 422.74,-468 416.74,-468 410.74,-462 410.74,-456 410.74,-456 410.74,-444 410.74,-444 410.74,-438 416.74,-432 422.74,-432 422.74,-432 497.74,-432 497.74,-432 503.74,-432 509.74,-438 509.74,-444 509.74,-444 509.74,-456 509.74,-456 509.74,-462 503.74,-468 497.74,-468"/>
<text text-anchor="middle" x="460.24" y="-447.5" font-family="sans" font-size="10.00">multiqc_basecall</text>
</g>
<!-- 2&#45;&gt;0 -->
<g id="edge4" class="edge">
<title>2&#45;&gt;0</title>
<path fill="none" stroke="grey" stroke-width="2" d="M461.82,-431.97C464.16,-405.33 468.24,-352.19 468.24,-307 468.24,-307 468.24,-307 468.24,-161 468.24,-82.59 364.43,-43.28 307.14,-27.56"/>
<polygon fill="grey" stroke="grey" stroke-width="2" points="307.92,-24.14 297.36,-24.98 306.14,-30.91 307.92,-24.14"/>
</g>
<!-- 3 -->
<g id="node4" class="node">
<title>3</title>
<path fill="none" stroke="#d86656" stroke-width="2" d="M313.24,-108C313.24,-108 227.24,-108 227.24,-108 221.24,-108 215.24,-102 215.24,-96 215.24,-96 215.24,-84 215.24,-84 215.24,-78 221.24,-72 227.24,-72 227.24,-72 313.24,-72 313.24,-72 319.24,-72 325.24,-78 325.24,-84 325.24,-84 325.24,-96 325.24,-96 325.24,-102 319.24,-108 313.24,-108"/>
<text text-anchor="middle" x="270.24" y="-87.5" font-family="sans" font-size="10.00">report_demultiplex</text>
</g>
<!-- 3&#45;&gt;0 -->
<g id="edge2" class="edge">
<title>3&#45;&gt;0</title>
<path fill="none" stroke="grey" stroke-width="2" d="M270.24,-71.7C270.24,-63.98 270.24,-54.71 270.24,-46.11"/>
<polygon fill="grey" stroke="grey" stroke-width="2" points="273.74,-46.1 270.24,-36.1 266.74,-46.1 273.74,-46.1"/>
</g>
<!-- 4 -->
<g id="node5" class="node">
<title>4</title>
<path fill="none" stroke="#8fd856" stroke-width="2" d="M332.74,-324C332.74,-324 225.74,-324 225.74,-324 219.74,-324 213.74,-318 213.74,-312 213.74,-312 213.74,-300 213.74,-300 213.74,-294 219.74,-288 225.74,-288 225.74,-288 332.74,-288 332.74,-288 338.74,-288 344.74,-294 344.74,-300 344.74,-300 344.74,-312 344.74,-312 344.74,-318 338.74,-324 332.74,-324"/>
<text text-anchor="middle" x="279.24" y="-303.5" font-family="sans" font-size="10.00">get_reads_per_genome</text>
</g>
<!-- 4&#45;&gt;0 -->
<g id="edge3" class="edge">
<title>4&#45;&gt;0</title>
<path fill="none" stroke="grey" stroke-width="2" d="M290.69,-287.83C315.61,-248.12 369.8,-147.6 334.24,-72 328.07,-58.87 316.87,-47.87 305.54,-39.36"/>
<polygon fill="grey" stroke="grey" stroke-width="2" points="307.54,-36.49 297.34,-33.61 303.52,-42.22 307.54,-36.49"/>
</g>
<!-- 4&#45;&gt;3 -->
<g id="edge9" class="edge">
<title>4&#45;&gt;3</title>
<path fill="none" stroke="grey" stroke-width="2" d="M278.52,-287.85C276.97,-250.83 273.28,-163.18 271.4,-118.39"/>
<polygon fill="grey" stroke="grey" stroke-width="2" points="274.89,-118.08 270.97,-108.23 267.89,-118.37 274.89,-118.08"/>
</g>
<!-- 11 -->
<g id="node12" class="node">
<title>11</title>
<path fill="none" stroke="#568ad8" stroke-width="2" d="M252.24,-252C252.24,-252 214.24,-252 214.24,-252 208.24,-252 202.24,-246 202.24,-240 202.24,-240 202.24,-228 202.24,-228 202.24,-222 208.24,-216 214.24,-216 214.24,-216 252.24,-216 252.24,-216 258.24,-216 264.24,-222 264.24,-228 264.24,-228 264.24,-240 264.24,-240 264.24,-246 258.24,-252 252.24,-252"/>
<text text-anchor="middle" x="233.24" y="-231.5" font-family="sans" font-size="10.00">porechop</text>
</g>
<!-- 4&#45;&gt;11 -->
<g id="edge21" class="edge">
<title>4&#45;&gt;11</title>
<path fill="none" stroke="grey" stroke-width="2" d="M267.87,-287.7C262.53,-279.56 256.04,-269.69 250.13,-260.7"/>
<polygon fill="grey" stroke="grey" stroke-width="2" points="252.9,-258.54 244.48,-252.1 247.05,-262.38 252.9,-258.54"/>
</g>
<!-- 5 -->
<g id="node6" class="node">
<title>5</title>
<path fill="none" stroke="#56c9d8" stroke-width="2" d="M248.24,-180C248.24,-180 218.24,-180 218.24,-180 212.24,-180 206.24,-174 206.24,-168 206.24,-168 206.24,-156 206.24,-156 206.24,-150 212.24,-144 218.24,-144 218.24,-144 248.24,-144 248.24,-144 254.24,-144 260.24,-150 260.24,-156 260.24,-156 260.24,-168 260.24,-168 260.24,-174 254.24,-180 248.24,-180"/>
<text text-anchor="middle" x="233.24" y="-159.5" font-family="sans" font-size="10.00">filtlong</text>
</g>
<!-- 5&#45;&gt;0 -->
<g id="edge1" class="edge">
<title>5&#45;&gt;0</title>
<path fill="none" stroke="grey" stroke-width="2" d="M220.71,-143.73C209.05,-125.39 195.04,-95.82 206.24,-72 212.42,-58.87 223.62,-47.87 234.95,-39.36"/>
<polygon fill="grey" stroke="grey" stroke-width="2" points="236.97,-42.22 243.15,-33.61 232.95,-36.49 236.97,-42.22"/>
</g>
<!-- 5&#45;&gt;3 -->
<g id="edge8" class="edge">
<title>5&#45;&gt;3</title>
<path fill="none" stroke="grey" stroke-width="2" d="M242.39,-143.7C246.65,-135.64 251.8,-125.89 256.51,-116.98"/>
<polygon fill="grey" stroke="grey" stroke-width="2" points="259.62,-118.58 261.2,-108.1 253.44,-115.31 259.62,-118.58"/>
</g>
<!-- 6 -->
<g id="node7" class="node">
<title>6</title>
<path fill="none" stroke="#d6d856" stroke-width="2" d="M175.74,-396C175.74,-396 74.74,-396 74.74,-396 68.74,-396 62.74,-390 62.74,-384 62.74,-384 62.74,-372 62.74,-372 62.74,-366 68.74,-360 74.74,-360 74.74,-360 175.74,-360 175.74,-360 181.74,-360 187.74,-366 187.74,-372 187.74,-372 187.74,-384 187.74,-384 187.74,-390 181.74,-396 175.74,-396"/>
<text text-anchor="middle" x="125.24" y="-375.5" font-family="sans" font-size="10.00">minionqc_demultiplex</text>
</g>
<!-- 6&#45;&gt;1 -->
<g id="edge6" class="edge">
<title>6&#45;&gt;1</title>
<path fill="none" stroke="grey" stroke-width="2" d="M125.24,-359.87C125.24,-335.67 125.24,-291.21 125.24,-262.39"/>
<polygon fill="grey" stroke="grey" stroke-width="2" points="128.74,-262.19 125.24,-252.19 121.74,-262.19 128.74,-262.19"/>
</g>
<!-- 7 -->
<g id="node8" class="node">
<title>7</title>
<path fill="none" stroke="#d85656" stroke-width="2" d="M492.74,-684C492.74,-684 409.74,-684 409.74,-684 403.74,-684 397.74,-678 397.74,-672 397.74,-672 397.74,-660 397.74,-660 397.74,-654 403.74,-648 409.74,-648 409.74,-648 492.74,-648 492.74,-648 498.74,-648 504.74,-654 504.74,-660 504.74,-660 504.74,-672 504.74,-672 504.74,-678 498.74,-684 492.74,-684"/>
<text text-anchor="middle" x="451.24" y="-663.5" font-family="sans" font-size="10.00">minionqc_basecall</text>
</g>
<!-- 7&#45;&gt;2 -->
<g id="edge7" class="edge">
<title>7&#45;&gt;2</title>
<path fill="none" stroke="grey" stroke-width="2" d="M451.97,-647.85C453.52,-610.83 457.21,-523.18 459.09,-478.39"/>
<polygon fill="grey" stroke="grey" stroke-width="2" points="462.6,-478.37 459.52,-468.23 455.6,-478.08 462.6,-478.37"/>
</g>
<!-- 8 -->
<g id="node9" class="node">
<title>8</title>
<path fill="none" stroke="#d8c356" stroke-width="2" d="M428.24,-396C428.24,-396 294.24,-396 294.24,-396 288.24,-396 282.24,-390 282.24,-384 282.24,-384 282.24,-372 282.24,-372 282.24,-366 288.24,-360 294.24,-360 294.24,-360 428.24,-360 428.24,-360 434.24,-360 440.24,-366 440.24,-372 440.24,-372 440.24,-384 440.24,-384 440.24,-390 434.24,-396 428.24,-396"/>
<text text-anchor="middle" x="361.24" y="-375.5" font-family="sans" font-size="10.00">get_multi_fast5_per_barcode</text>
</g>
<!-- 8&#45;&gt;4 -->
<g id="edge11" class="edge">
<title>8&#45;&gt;4</title>
<path fill="none" stroke="grey" stroke-width="2" d="M340.97,-359.7C330.75,-350.97 318.18,-340.24 307.07,-330.75"/>
<polygon fill="grey" stroke="grey" stroke-width="2" points="309.16,-327.94 299.28,-324.1 304.61,-333.26 309.16,-327.94"/>
</g>
<!-- 9 -->
<g id="node10" class="node">
<title>9</title>
<path fill="none" stroke="#56d86b" stroke-width="2" d="M308.74,-540C308.74,-540 207.74,-540 207.74,-540 201.74,-540 195.74,-534 195.74,-528 195.74,-528 195.74,-516 195.74,-516 195.74,-510 201.74,-504 207.74,-504 207.74,-504 308.74,-504 308.74,-504 314.74,-504 320.74,-510 320.74,-516 320.74,-516 320.74,-528 320.74,-528 320.74,-534 314.74,-540 308.74,-540"/>
<text text-anchor="middle" x="258.24" y="-519.5" font-family="sans" font-size="10.00">guppy_demultiplexing</text>
</g>
<!-- 9&#45;&gt;4 -->
<g id="edge10" class="edge">
<title>9&#45;&gt;4</title>
<path fill="none" stroke="grey" stroke-width="2" d="M259.75,-503.6C262.34,-474.06 267.86,-412.22 273.24,-360 274.11,-351.58 275.13,-342.42 276.07,-334.11"/>
<polygon fill="grey" stroke="grey" stroke-width="2" points="279.55,-334.51 277.21,-324.18 272.59,-333.71 279.55,-334.51"/>
</g>
<!-- 12 -->
<g id="node13" class="node">
<title>12</title>
<path fill="none" stroke="#d8b456" stroke-width="2" d="M218.24,-468C218.24,-468 32.24,-468 32.24,-468 26.24,-468 20.24,-462 20.24,-456 20.24,-456 20.24,-444 20.24,-444 20.24,-438 26.24,-432 32.24,-432 32.24,-432 218.24,-432 218.24,-432 224.24,-432 230.24,-438 230.24,-444 230.24,-444 230.24,-456 230.24,-456 230.24,-462 224.24,-468 218.24,-468"/>
<text text-anchor="middle" x="125.24" y="-447.5" font-family="sans" font-size="10.00">get_sequencing_summary_per_barcode</text>
</g>
<!-- 9&#45;&gt;12 -->
<g id="edge22" class="edge">
<title>9&#45;&gt;12</title>
<path fill="none" stroke="grey" stroke-width="2" d="M225.71,-503.88C208,-494.55 185.89,-482.92 166.93,-472.94"/>
<polygon fill="grey" stroke="grey" stroke-width="2" points="168.38,-469.75 157.9,-468.19 165.12,-475.94 168.38,-469.75"/>
</g>
<!-- 10 -->
<g id="node11" class="node">
<title>10</title>
<path fill="none" stroke="#56d88a" stroke-width="2" d="M159.24,-540C159.24,-540 91.24,-540 91.24,-540 85.24,-540 79.24,-534 79.24,-528 79.24,-528 79.24,-516 79.24,-516 79.24,-510 85.24,-504 91.24,-504 91.24,-504 159.24,-504 159.24,-504 165.24,-504 171.24,-510 171.24,-516 171.24,-516 171.24,-528 171.24,-528 171.24,-534 165.24,-540 159.24,-540"/>
<text text-anchor="middle" x="125.24" y="-519.5" font-family="sans" font-size="10.00">deepbinner_bin</text>
</g>
<!-- 10&#45;&gt;4 -->
<g id="edge12" class="edge">
<title>10&#45;&gt;4</title>
<path fill="none" stroke="grey" stroke-width="2" d="M79.22,-512.08C54.55,-504.7 26.21,-491.46 11.24,-468 -16.45,-424.58 11.83,-390.61 53.24,-360 96.57,-327.97 156.28,-314.94 203.44,-309.8"/>
<polygon fill="grey" stroke="grey" stroke-width="2" points="204.01,-313.26 213.61,-308.79 203.32,-306.3 204.01,-313.26"/>
</g>
<!-- 10&#45;&gt;12 -->
<g id="edge23" class="edge">
<title>10&#45;&gt;12</title>
<path fill="none" stroke="grey" stroke-width="2" d="M125.24,-503.7C125.24,-495.98 125.24,-486.71 125.24,-478.11"/>
<polygon fill="grey" stroke="grey" stroke-width="2" points="128.74,-478.1 125.24,-468.1 121.74,-478.1 128.74,-478.1"/>
</g>
<!-- 11&#45;&gt;5 -->
<g id="edge13" class="edge">
<title>11&#45;&gt;5</title>
<path fill="none" stroke="grey" stroke-width="2" d="M233.24,-215.7C233.24,-207.98 233.24,-198.71 233.24,-190.11"/>
<polygon fill="grey" stroke="grey" stroke-width="2" points="236.74,-190.1 233.24,-180.1 229.74,-190.1 236.74,-190.1"/>
</g>
<!-- 12&#45;&gt;6 -->
<g id="edge14" class="edge">
<title>12&#45;&gt;6</title>
<path fill="none" stroke="grey" stroke-width="2" d="M125.24,-431.7C125.24,-423.98 125.24,-414.71 125.24,-406.11"/>
<polygon fill="grey" stroke="grey" stroke-width="2" points="128.74,-406.1 125.24,-396.1 121.74,-406.1 128.74,-406.1"/>
</g>
<!-- 12&#45;&gt;8 -->
<g id="edge16" class="edge">
<title>12&#45;&gt;8</title>
<path fill="none" stroke="grey" stroke-width="2" d="M182.67,-431.97C216.22,-422.01 258.73,-409.41 293.86,-398.99"/>
<polygon fill="grey" stroke="grey" stroke-width="2" points="294.96,-402.31 303.56,-396.11 292.97,-395.6 294.96,-402.31"/>
</g>
<!-- 13 -->
<g id="node14" class="node">
<title>13</title>
<path fill="none" stroke="#b6d856" stroke-width="2" d="M302.74,-756C302.74,-756 219.74,-756 219.74,-756 213.74,-756 207.74,-750 207.74,-744 207.74,-744 207.74,-732 207.74,-732 207.74,-726 213.74,-720 219.74,-720 219.74,-720 302.74,-720 302.74,-720 308.74,-720 314.74,-726 314.74,-732 314.74,-732 314.74,-744 314.74,-744 314.74,-750 308.74,-756 302.74,-756"/>
<text text-anchor="middle" x="261.24" y="-735.5" font-family="sans" font-size="10.00">guppy_basecalling</text>
</g>
<!-- 13&#45;&gt;7 -->
<g id="edge15" class="edge">
<title>13&#45;&gt;7</title>
<path fill="none" stroke="grey" stroke-width="2" d="M307.72,-719.88C334.16,-710.14 367.45,-697.87 395.31,-687.61"/>
<polygon fill="grey" stroke="grey" stroke-width="2" points="396.74,-690.81 404.92,-684.07 394.32,-684.24 396.74,-690.81"/>
</g>
<!-- 13&#45;&gt;8 -->
<g id="edge17" class="edge">
<title>13&#45;&gt;8</title>
<path fill="none" stroke="grey" stroke-width="2" d="M283.03,-719.83C311.35,-695.39 357.24,-647.67 357.24,-595 357.24,-595 357.24,-595 357.24,-521 357.24,-480.98 358.85,-434.64 360.03,-406.07"/>
<polygon fill="grey" stroke="grey" stroke-width="2" points="363.53,-406.18 360.45,-396.04 356.53,-405.89 363.53,-406.18"/>
</g>
<!-- 13&#45;&gt;9 -->
<g id="edge18" class="edge">
<title>13&#45;&gt;9</title>
<path fill="none" stroke="grey" stroke-width="2" d="M261,-719.85C260.49,-682.83 259.26,-595.18 258.63,-550.39"/>
<polygon fill="grey" stroke="grey" stroke-width="2" points="262.13,-550.18 258.49,-540.23 255.13,-550.28 262.13,-550.18"/>
</g>
<!-- 13&#45;&gt;10 -->
<g id="edge19" class="edge">
<title>13&#45;&gt;10</title>
<path fill="none" stroke="grey" stroke-width="2" d="M258.8,-719.79C253.61,-688.34 238.97,-620.74 204.24,-576 194.86,-563.92 181.93,-553.64 169.24,-545.44"/>
<polygon fill="grey" stroke="grey" stroke-width="2" points="170.9,-542.35 160.54,-540.1 167.23,-548.32 170.9,-542.35"/>
</g>
<!-- 15 -->
<g id="node16" class="node">
<title>15</title>
<path fill="none" stroke="#567bd8" stroke-width="2" d="M179.24,-684C179.24,-684 81.24,-684 81.24,-684 75.24,-684 69.24,-678 69.24,-672 69.24,-672 69.24,-660 69.24,-660 69.24,-654 75.24,-648 81.24,-648 81.24,-648 179.24,-648 179.24,-648 185.24,-648 191.24,-654 191.24,-660 191.24,-660 191.24,-672 191.24,-672 191.24,-678 185.24,-684 179.24,-684"/>
<text text-anchor="middle" x="130.24" y="-663.5" font-family="sans" font-size="10.00">multi_to_single_fast5</text>
</g>
<!-- 13&#45;&gt;15 -->
<g id="edge25" class="edge">
<title>13&#45;&gt;15</title>
<path fill="none" stroke="grey" stroke-width="2" d="M229.2,-719.88C211.75,-710.55 189.98,-698.92 171.3,-688.94"/>
<polygon fill="grey" stroke="grey" stroke-width="2" points="172.88,-685.82 162.41,-684.19 169.58,-691.99 172.88,-685.82"/>
</g>
<!-- 14 -->
<g id="node15" class="node">
<title>14</title>
<path fill="none" stroke="#56a2d8" stroke-width="2" d="M183.24,-612C183.24,-612 67.24,-612 67.24,-612 61.24,-612 55.24,-606 55.24,-600 55.24,-600 55.24,-588 55.24,-588 55.24,-582 61.24,-576 67.24,-576 67.24,-576 183.24,-576 183.24,-576 189.24,-576 195.24,-582 195.24,-588 195.24,-588 195.24,-600 195.24,-600 195.24,-606 189.24,-612 183.24,-612"/>
<text text-anchor="middle" x="125.24" y="-591.5" font-family="sans" font-size="10.00">deepbinner_classification</text>
</g>
<!-- 14&#45;&gt;10 -->
<g id="edge20" class="edge">
<title>14&#45;&gt;10</title>
<path fill="none" stroke="grey" stroke-width="2" d="M125.24,-575.7C125.24,-567.98 125.24,-558.71 125.24,-550.11"/>
<polygon fill="grey" stroke="grey" stroke-width="2" points="128.74,-550.1 125.24,-540.1 121.74,-550.1 128.74,-550.1"/>
</g>
<!-- 15&#45;&gt;14 -->
<g id="edge24" class="edge">
<title>15&#45;&gt;14</title>
<path fill="none" stroke="grey" stroke-width="2" d="M129.01,-647.7C128.46,-639.98 127.8,-630.71 127.18,-622.11"/>
<polygon fill="grey" stroke="grey" stroke-width="2" points="130.67,-621.83 126.47,-612.1 123.69,-622.33 130.67,-621.83"/>
</g>
</g>
</svg>
