<?xml version="1.0" encoding="UTF-8" standalone="no"?>
<!DOCTYPE svg PUBLIC "-//W3C//DTD SVG 1.1//EN"
 "http://www.w3.org/Graphics/SVG/1.1/DTD/svg11.dtd">
<!-- Generated by graphviz version 2.42.3 (20191010.1750)
 -->
<!-- Title: snakemake_dag Pages: 1 -->
<svg width="519pt" height="620pt"
 viewBox="0.00 0.00 518.57 620.00" xmlns="http://www.w3.org/2000/svg" xmlns:xlink="http://www.w3.org/1999/xlink">
<g id="graph0" class="graph" transform="scale(1 1) rotate(0) translate(4 616)">
<title>snakemake_dag</title>
<polygon fill="white" stroke="transparent" points="-4,4 -4,-616 514.57,-616 514.57,4 -4,4"/>
<!-- 0 -->
<g id="node1" class="node">
<title>0</title>
<path fill="none" stroke="#d85656" stroke-width="2" d="M278.07,-36C278.07,-36 248.07,-36 248.07,-36 242.07,-36 236.07,-30 236.07,-24 236.07,-24 236.07,-12 236.07,-12 236.07,-6 242.07,0 248.07,0 248.07,0 278.07,0 278.07,0 284.07,0 290.07,-6 290.07,-12 290.07,-12 290.07,-24 290.07,-24 290.07,-30 284.07,-36 278.07,-36"/>
<text text-anchor="middle" x="263.07" y="-15.5" font-family="sans" font-size="10.00">finish</text>
</g>
<!-- 1 -->
<g id="node2" class="node">
<title>1</title>
<path fill="none" stroke="#56a9d8" stroke-width="2" d="M167.57,-180C167.57,-180 74.57,-180 74.57,-180 68.57,-180 62.57,-174 62.57,-168 62.57,-168 62.57,-156 62.57,-156 62.57,-150 68.57,-144 74.57,-144 74.57,-144 167.57,-144 167.57,-144 173.57,-144 179.57,-150 179.57,-156 179.57,-156 179.57,-168 179.57,-168 179.57,-174 173.57,-180 167.57,-180"/>
<text text-anchor="middle" x="121.07" y="-159.5" font-family="sans" font-size="10.00">multiqc_demultiplex</text>
</g>
<!-- 1&#45;&gt;0 -->
<g id="edge5" class="edge">
<title>1&#45;&gt;0</title>
<path fill="none" stroke="grey" stroke-width="2" d="M146.55,-143.98C160.37,-134.2 177.38,-121.25 191.07,-108 211.41,-88.31 231.4,-62.97 245.14,-44.38"/>
<polygon fill="grey" stroke="grey" stroke-width="2" points="248.11,-46.24 251.17,-36.09 242.46,-42.12 248.11,-46.24"/>
</g>
<!-- 4 -->
<g id="node5" class="node">
<title>4</title>
<path fill="none" stroke="#d8ac56" stroke-width="2" d="M170.07,-108C170.07,-108 84.07,-108 84.07,-108 78.07,-108 72.07,-102 72.07,-96 72.07,-96 72.07,-84 72.07,-84 72.07,-78 78.07,-72 84.07,-72 84.07,-72 170.07,-72 170.07,-72 176.07,-72 182.07,-78 182.07,-84 182.07,-84 182.07,-96 182.07,-96 182.07,-102 176.07,-108 170.07,-108"/>
<text text-anchor="middle" x="127.07" y="-87.5" font-family="sans" font-size="10.00">report_demultiplex</text>
</g>
<!-- 1&#45;&gt;4 -->
<g id="edge10" class="edge">
<title>1&#45;&gt;4</title>
<path fill="none" stroke="grey" stroke-width="2" d="M122.55,-143.7C123.21,-135.98 124.01,-126.71 124.75,-118.11"/>
<polygon fill="grey" stroke="grey" stroke-width="2" points="128.24,-118.37 125.6,-108.1 121.26,-117.77 128.24,-118.37"/>
</g>
<!-- 2 -->
<g id="node3" class="node">
<title>2</title>
<path fill="none" stroke="#d87556" stroke-width="2" d="M425.07,-252C425.07,-252 291.07,-252 291.07,-252 285.07,-252 279.07,-246 279.07,-240 279.07,-240 279.07,-228 279.07,-228 279.07,-222 285.07,-216 291.07,-216 291.07,-216 425.07,-216 425.07,-216 431.07,-216 437.07,-222 437.07,-228 437.07,-228 437.07,-240 437.07,-240 437.07,-246 431.07,-252 425.07,-252"/>
<text text-anchor="middle" x="358.07" y="-231.5" font-family="sans" font-size="10.00">get_multi_fast5_per_barcode</text>
</g>
<!-- 2&#45;&gt;0 -->
<g id="edge1" class="edge">
<title>2&#45;&gt;0</title>
<path fill="none" stroke="grey" stroke-width="2" d="M355.87,-215.79C353.15,-197.49 347.66,-167.97 338.07,-144 323.41,-107.38 298.8,-69.02 281.79,-44.61"/>
<polygon fill="grey" stroke="grey" stroke-width="2" points="284.53,-42.42 275.9,-36.27 278.82,-46.46 284.53,-42.42"/>
</g>
<!-- 5 -->
<g id="node6" class="node">
<title>5</title>
<path fill="none" stroke="#56d8a9" stroke-width="2" d="M316.57,-180C316.57,-180 209.57,-180 209.57,-180 203.57,-180 197.57,-174 197.57,-168 197.57,-168 197.57,-156 197.57,-156 197.57,-150 203.57,-144 209.57,-144 209.57,-144 316.57,-144 316.57,-144 322.57,-144 328.57,-150 328.57,-156 328.57,-156 328.57,-168 328.57,-168 328.57,-174 322.57,-180 316.57,-180"/>
<text text-anchor="middle" x="263.07" y="-159.5" font-family="sans" font-size="10.00">get_reads_per_genome</text>
</g>
<!-- 2&#45;&gt;5 -->
<g id="edge11" class="edge">
<title>2&#45;&gt;5</title>
<path fill="none" stroke="grey" stroke-width="2" d="M334.59,-215.7C322.51,-206.8 307.62,-195.82 294.55,-186.2"/>
<polygon fill="grey" stroke="grey" stroke-width="2" points="296.41,-183.22 286.28,-180.1 292.26,-188.85 296.41,-183.22"/>
</g>
<!-- 3 -->
<g id="node4" class="node">
<title>3</title>
<path fill="none" stroke="#56d892" stroke-width="2" d="M498.57,-324C498.57,-324 423.57,-324 423.57,-324 417.57,-324 411.57,-318 411.57,-312 411.57,-312 411.57,-300 411.57,-300 411.57,-294 417.57,-288 423.57,-288 423.57,-288 498.57,-288 498.57,-288 504.57,-288 510.57,-294 510.57,-300 510.57,-300 510.57,-312 510.57,-312 510.57,-318 504.57,-324 498.57,-324"/>
<text text-anchor="middle" x="461.07" y="-303.5" font-family="sans" font-size="10.00">multiqc_basecall</text>
</g>
<!-- 3&#45;&gt;0 -->
<g id="edge3" class="edge">
<title>3&#45;&gt;0</title>
<path fill="none" stroke="grey" stroke-width="2" d="M460.83,-287.82C459.97,-269.29 456.85,-239.33 446.07,-216 411.46,-141.12 337.43,-75.74 294.9,-42.43"/>
<polygon fill="grey" stroke="grey" stroke-width="2" points="296.88,-39.55 286.83,-36.21 292.61,-45.09 296.88,-39.55"/>
</g>
<!-- 4&#45;&gt;0 -->
<g id="edge2" class="edge">
<title>4&#45;&gt;0</title>
<path fill="none" stroke="grey" stroke-width="2" d="M160.34,-71.88C180.39,-61.56 205.94,-48.4 226.55,-37.8"/>
<polygon fill="grey" stroke="grey" stroke-width="2" points="228.34,-40.81 235.63,-33.12 225.14,-34.59 228.34,-40.81"/>
</g>
<!-- 5&#45;&gt;0 -->
<g id="edge4" class="edge">
<title>5&#45;&gt;0</title>
<path fill="none" stroke="grey" stroke-width="2" d="M263.07,-143.87C263.07,-119.67 263.07,-75.21 263.07,-46.39"/>
<polygon fill="grey" stroke="grey" stroke-width="2" points="266.57,-46.19 263.07,-36.19 259.57,-46.19 266.57,-46.19"/>
</g>
<!-- 6 -->
<g id="node7" class="node">
<title>6</title>
<path fill="none" stroke="#8fd856" stroke-width="2" d="M169.57,-252C169.57,-252 68.57,-252 68.57,-252 62.57,-252 56.57,-246 56.57,-240 56.57,-240 56.57,-228 56.57,-228 56.57,-222 62.57,-216 68.57,-216 68.57,-216 169.57,-216 169.57,-216 175.57,-216 181.57,-222 181.57,-228 181.57,-228 181.57,-240 181.57,-240 181.57,-246 175.57,-252 169.57,-252"/>
<text text-anchor="middle" x="119.07" y="-231.5" font-family="sans" font-size="10.00">minionqc_demultiplex</text>
</g>
<!-- 6&#45;&gt;1 -->
<g id="edge6" class="edge">
<title>6&#45;&gt;1</title>
<path fill="none" stroke="grey" stroke-width="2" d="M119.56,-215.7C119.78,-207.98 120.05,-198.71 120.29,-190.11"/>
<polygon fill="grey" stroke="grey" stroke-width="2" points="123.79,-190.2 120.58,-180.1 116.8,-190 123.79,-190.2"/>
</g>
<!-- 7 -->
<g id="node8" class="node">
<title>7</title>
<path fill="none" stroke="#5673d8" stroke-width="2" d="M212.07,-324C212.07,-324 26.07,-324 26.07,-324 20.07,-324 14.07,-318 14.07,-312 14.07,-312 14.07,-300 14.07,-300 14.07,-294 20.07,-288 26.07,-288 26.07,-288 212.07,-288 212.07,-288 218.07,-288 224.07,-294 224.07,-300 224.07,-300 224.07,-312 224.07,-312 224.07,-318 218.07,-324 212.07,-324"/>
<text text-anchor="middle" x="119.07" y="-303.5" font-family="sans" font-size="10.00">get_sequencing_summary_per_barcode</text>
</g>
<!-- 7&#45;&gt;2 -->
<g id="edge8" class="edge">
<title>7&#45;&gt;2</title>
<path fill="none" stroke="grey" stroke-width="2" d="M177.23,-287.97C211.2,-278.01 254.25,-265.41 289.83,-254.99"/>
<polygon fill="grey" stroke="grey" stroke-width="2" points="291.04,-258.28 299.65,-252.11 289.07,-251.56 291.04,-258.28"/>
</g>
<!-- 7&#45;&gt;6 -->
<g id="edge14" class="edge">
<title>7&#45;&gt;6</title>
<path fill="none" stroke="grey" stroke-width="2" d="M119.07,-287.7C119.07,-279.98 119.07,-270.71 119.07,-262.11"/>
<polygon fill="grey" stroke="grey" stroke-width="2" points="122.57,-262.1 119.07,-252.1 115.57,-262.1 122.57,-262.1"/>
</g>
<!-- 8 -->
<g id="node9" class="node">
<title>8</title>
<path fill="none" stroke="#d8cb56" stroke-width="2" d="M301.57,-612C301.57,-612 218.57,-612 218.57,-612 212.57,-612 206.57,-606 206.57,-600 206.57,-600 206.57,-588 206.57,-588 206.57,-582 212.57,-576 218.57,-576 218.57,-576 301.57,-576 301.57,-576 307.57,-576 313.57,-582 313.57,-588 313.57,-588 313.57,-600 313.57,-600 313.57,-606 307.57,-612 301.57,-612"/>
<text text-anchor="middle" x="260.07" y="-591.5" font-family="sans" font-size="10.00">guppy_basecalling</text>
</g>
<!-- 8&#45;&gt;2 -->
<g id="edge7" class="edge">
<title>8&#45;&gt;2</title>
<path fill="none" stroke="grey" stroke-width="2" d="M290.49,-575.99C304.29,-566.9 319.8,-554.58 330.07,-540 353.95,-506.1 358.07,-492.47 358.07,-451 358.07,-451 358.07,-451 358.07,-377 358.07,-337 358.07,-290.65 358.07,-262.08"/>
<polygon fill="grey" stroke="grey" stroke-width="2" points="361.57,-262.05 358.07,-252.05 354.57,-262.05 361.57,-262.05"/>
</g>
<!-- 9 -->
<g id="node10" class="node">
<title>9</title>
<path fill="none" stroke="#afd856" stroke-width="2" d="M487.57,-540C487.57,-540 404.57,-540 404.57,-540 398.57,-540 392.57,-534 392.57,-528 392.57,-528 392.57,-516 392.57,-516 392.57,-510 398.57,-504 404.57,-504 404.57,-504 487.57,-504 487.57,-504 493.57,-504 499.57,-510 499.57,-516 499.57,-516 499.57,-528 499.57,-528 499.57,-534 493.57,-540 487.57,-540"/>
<text text-anchor="middle" x="446.07" y="-519.5" font-family="sans" font-size="10.00">minionqc_basecall</text>
</g>
<!-- 8&#45;&gt;9 -->
<g id="edge17" class="edge">
<title>8&#45;&gt;9</title>
<path fill="none" stroke="grey" stroke-width="2" d="M305.57,-575.88C331.45,-566.14 364.04,-553.87 391.31,-543.61"/>
<polygon fill="grey" stroke="grey" stroke-width="2" points="392.59,-546.87 400.72,-540.07 390.12,-540.31 392.59,-546.87"/>
</g>
<!-- 10 -->
<g id="node11" class="node">
<title>10</title>
<path fill="none" stroke="#56d873" stroke-width="2" d="M283.07,-396C283.07,-396 215.07,-396 215.07,-396 209.07,-396 203.07,-390 203.07,-384 203.07,-384 203.07,-372 203.07,-372 203.07,-366 209.07,-360 215.07,-360 215.07,-360 283.07,-360 283.07,-360 289.07,-360 295.07,-366 295.07,-372 295.07,-372 295.07,-384 295.07,-384 295.07,-390 289.07,-396 283.07,-396"/>
<text text-anchor="middle" x="249.07" y="-375.5" font-family="sans" font-size="10.00">deepbinner_bin</text>
</g>
<!-- 8&#45;&gt;10 -->
<g id="edge18" class="edge">
<title>8&#45;&gt;10</title>
<path fill="none" stroke="grey" stroke-width="2" d="M227.01,-575.83C213.33,-566.99 198.68,-554.92 190.07,-540 173.95,-512.07 183.07,-500.19 181.07,-468 180.08,-452.03 174.05,-446.38 181.07,-432 186.88,-420.11 196.78,-410.12 207.25,-402.12"/>
<polygon fill="grey" stroke="grey" stroke-width="2" points="209.57,-404.78 215.71,-396.14 205.53,-399.06 209.57,-404.78"/>
</g>
<!-- 11 -->
<g id="node12" class="node">
<title>11</title>
<path fill="none" stroke="#5692d8" stroke-width="2" d="M169.57,-396C169.57,-396 68.57,-396 68.57,-396 62.57,-396 56.57,-390 56.57,-384 56.57,-384 56.57,-372 56.57,-372 56.57,-366 62.57,-360 68.57,-360 68.57,-360 169.57,-360 169.57,-360 175.57,-360 181.57,-366 181.57,-372 181.57,-372 181.57,-384 181.57,-384 181.57,-390 175.57,-396 169.57,-396"/>
<text text-anchor="middle" x="119.07" y="-375.5" font-family="sans" font-size="10.00">guppy_demultiplexing</text>
</g>
<!-- 8&#45;&gt;11 -->
<g id="edge20" class="edge">
<title>8&#45;&gt;11</title>
<path fill="none" stroke="grey" stroke-width="2" d="M222.6,-575.99C206.71,-567.19 189.13,-555.09 177.07,-540 145.11,-500 129.89,-440.88 123.36,-406.52"/>
<polygon fill="grey" stroke="grey" stroke-width="2" points="126.74,-405.52 121.54,-396.29 119.85,-406.75 126.74,-405.52"/>
</g>
<!-- 13 -->
<g id="node14" class="node">
<title>13</title>
<path fill="none" stroke="#56c9d8" stroke-width="2" d="M309.07,-540C309.07,-540 211.07,-540 211.07,-540 205.07,-540 199.07,-534 199.07,-528 199.07,-528 199.07,-516 199.07,-516 199.07,-510 205.07,-504 211.07,-504 211.07,-504 309.07,-504 309.07,-504 315.07,-504 321.07,-510 321.07,-516 321.07,-516 321.07,-528 321.07,-528 321.07,-534 315.07,-540 309.07,-540"/>
<text text-anchor="middle" x="260.07" y="-519.5" font-family="sans" font-size="10.00">multi_to_single_fast5</text>
</g>
<!-- 8&#45;&gt;13 -->
<g id="edge22" class="edge">
<title>8&#45;&gt;13</title>
<path fill="none" stroke="grey" stroke-width="2" d="M260.07,-575.7C260.07,-567.98 260.07,-558.71 260.07,-550.11"/>
<polygon fill="grey" stroke="grey" stroke-width="2" points="263.57,-550.1 260.07,-540.1 256.57,-550.1 263.57,-550.1"/>
</g>
<!-- 9&#45;&gt;3 -->
<g id="edge9" class="edge">
<title>9&#45;&gt;3</title>
<path fill="none" stroke="grey" stroke-width="2" d="M447.27,-503.85C449.87,-466.83 456.01,-379.18 459.15,-334.39"/>
<polygon fill="grey" stroke="grey" stroke-width="2" points="462.65,-334.45 459.86,-324.23 455.67,-333.96 462.65,-334.45"/>
</g>
<!-- 10&#45;&gt;5 -->
<g id="edge12" class="edge">
<title>10&#45;&gt;5</title>
<path fill="none" stroke="grey" stroke-width="2" d="M250.19,-359.85C252.61,-322.83 258.35,-235.18 261.28,-190.39"/>
<polygon fill="grey" stroke="grey" stroke-width="2" points="264.78,-190.44 261.94,-180.23 257.8,-189.98 264.78,-190.44"/>
</g>
<!-- 10&#45;&gt;7 -->
<g id="edge15" class="edge">
<title>10&#45;&gt;7</title>
<path fill="none" stroke="grey" stroke-width="2" d="M217.27,-359.88C199.96,-350.55 178.35,-338.92 159.81,-328.94"/>
<polygon fill="grey" stroke="grey" stroke-width="2" points="161.46,-325.85 150.99,-324.19 158.14,-332.01 161.46,-325.85"/>
</g>
<!-- 11&#45;&gt;5 -->
<g id="edge13" class="edge">
<title>11&#45;&gt;5</title>
<path fill="none" stroke="grey" stroke-width="2" d="M56.44,-362.32C36.57,-354.39 16.75,-342.31 5.07,-324 -3.54,-310.51 0.89,-303.45 5.07,-288 14.74,-252.24 17.39,-238.17 47.07,-216 50.02,-213.79 126.35,-195.35 187.44,-180.83"/>
<polygon fill="grey" stroke="grey" stroke-width="2" points="188.56,-184.16 197.49,-178.45 186.95,-177.35 188.56,-184.16"/>
</g>
<!-- 11&#45;&gt;7 -->
<g id="edge16" class="edge">
<title>11&#45;&gt;7</title>
<path fill="none" stroke="grey" stroke-width="2" d="M119.07,-359.7C119.07,-351.98 119.07,-342.71 119.07,-334.11"/>
<polygon fill="grey" stroke="grey" stroke-width="2" points="122.57,-334.1 119.07,-324.1 115.57,-334.1 122.57,-334.1"/>
</g>
<!-- 12 -->
<g id="node13" class="node">
<title>12</title>
<path fill="none" stroke="#59d856" stroke-width="2" d="M318.07,-468C318.07,-468 202.07,-468 202.07,-468 196.07,-468 190.07,-462 190.07,-456 190.07,-456 190.07,-444 190.07,-444 190.07,-438 196.07,-432 202.07,-432 202.07,-432 318.07,-432 318.07,-432 324.07,-432 330.07,-438 330.07,-444 330.07,-444 330.07,-456 330.07,-456 330.07,-462 324.07,-468 318.07,-468"/>
<text text-anchor="middle" x="260.07" y="-447.5" font-family="sans" font-size="10.00">deepbinner_classification</text>
</g>
<!-- 12&#45;&gt;10 -->
<g id="edge19" class="edge">
<title>12&#45;&gt;10</title>
<path fill="none" stroke="grey" stroke-width="2" d="M257.35,-431.7C256.14,-423.98 254.68,-414.71 253.33,-406.11"/>
<polygon fill="grey" stroke="grey" stroke-width="2" points="256.77,-405.44 251.76,-396.1 249.85,-406.53 256.77,-405.44"/>
</g>
<!-- 13&#45;&gt;12 -->
<g id="edge21" class="edge">
<title>13&#45;&gt;12</title>
<path fill="none" stroke="grey" stroke-width="2" d="M260.07,-503.7C260.07,-495.98 260.07,-486.71 260.07,-478.11"/>
<polygon fill="grey" stroke="grey" stroke-width="2" points="263.57,-478.1 260.07,-468.1 256.57,-478.1 263.57,-478.1"/>
</g>
</g>
</svg>
