<?xml version="1.0" encoding="UTF-8" standalone="no"?>
<!DOCTYPE svg PUBLIC "-//W3C//DTD SVG 1.1//EN"
 "http://www.w3.org/Graphics/SVG/1.1/DTD/svg11.dtd">
<!-- Generated by graphviz version 2.40.1 (20161225.0304)
 -->
<!-- Title: snakemake_dag Pages: 1 -->
<svg width="354pt" height="332pt"
 viewBox="0.00 0.00 353.56 332.00" xmlns="http://www.w3.org/2000/svg" xmlns:xlink="http://www.w3.org/1999/xlink">
<g id="graph0" class="graph" transform="scale(1 1) rotate(0) translate(4 328)">
<title>snakemake_dag</title>
<polygon fill="#ffffff" stroke="transparent" points="-4,4 -4,-328 349.5627,-328 349.5627,4 -4,4"/>
<!-- 0 -->
<g id="node1" class="node">
<title>0</title>
<path fill="none" stroke="#d88d56" stroke-width="2" d="M209.0627,-36C209.0627,-36 179.0627,-36 179.0627,-36 173.0627,-36 167.0627,-30 167.0627,-24 167.0627,-24 167.0627,-12 167.0627,-12 167.0627,-6 173.0627,0 179.0627,0 179.0627,0 209.0627,0 209.0627,0 215.0627,0 221.0627,-6 221.0627,-12 221.0627,-12 221.0627,-24 221.0627,-24 221.0627,-30 215.0627,-36 209.0627,-36"/>
<text text-anchor="middle" x="194.0627" y="-15.5" font-family="sans" font-size="10.00" fill="#000000">finish</text>
</g>
<!-- 1 -->
<g id="node2" class="node">
<title>1</title>
<path fill="none" stroke="#56d892" stroke-width="2" d="M190.0627,-108C190.0627,-108 56.0627,-108 56.0627,-108 50.0627,-108 44.0627,-102 44.0627,-96 44.0627,-96 44.0627,-84 44.0627,-84 44.0627,-78 50.0627,-72 56.0627,-72 56.0627,-72 190.0627,-72 190.0627,-72 196.0627,-72 202.0627,-78 202.0627,-84 202.0627,-84 202.0627,-96 202.0627,-96 202.0627,-102 196.0627,-108 190.0627,-108"/>
<text text-anchor="middle" x="123.0627" y="-87.5" font-family="sans" font-size="10.00" fill="#000000">get_multi_fast5_per_barcode</text>
</g>
<!-- 1&#45;&gt;0 -->
<g id="edge2" class="edge">
<title>1&#45;&gt;0</title>
<path fill="none" stroke="#c0c0c0" stroke-width="2" d="M140.979,-71.8314C149.4069,-63.2848 159.6037,-52.9443 168.7987,-43.6198"/>
<polygon fill="#c0c0c0" stroke="#c0c0c0" stroke-width="2" points="171.3759,-45.9912 175.9052,-36.4133 166.3916,-41.0761 171.3759,-45.9912"/>
</g>
<!-- 2 -->
<g id="node3" class="node">
<title>2</title>
<path fill="none" stroke="#d8cb56" stroke-width="2" d="M315.0627,-108C315.0627,-108 247.0627,-108 247.0627,-108 241.0627,-108 235.0627,-102 235.0627,-96 235.0627,-96 235.0627,-84 235.0627,-84 235.0627,-78 241.0627,-72 247.0627,-72 247.0627,-72 315.0627,-72 315.0627,-72 321.0627,-72 327.0627,-78 327.0627,-84 327.0627,-84 327.0627,-96 327.0627,-96 327.0627,-102 321.0627,-108 315.0627,-108"/>
<text text-anchor="middle" x="281.0627" y="-87.5" font-family="sans" font-size="10.00" fill="#000000">report_basecall</text>
</g>
<!-- 2&#45;&gt;0 -->
<g id="edge1" class="edge">
<title>2&#45;&gt;0</title>
<path fill="none" stroke="#c0c0c0" stroke-width="2" d="M259.109,-71.8314C248.3933,-62.9632 235.3439,-52.1637 223.7537,-42.5718"/>
<polygon fill="#c0c0c0" stroke="#c0c0c0" stroke-width="2" points="225.9449,-39.8422 216.0095,-36.1628 221.4819,-45.2349 225.9449,-39.8422"/>
</g>
<!-- 3 -->
<g id="node4" class="node">
<title>3</title>
<path fill="none" stroke="#d87556" stroke-width="2" d="M216.0627,-180C216.0627,-180 30.0627,-180 30.0627,-180 24.0627,-180 18.0627,-174 18.0627,-168 18.0627,-168 18.0627,-156 18.0627,-156 18.0627,-150 24.0627,-144 30.0627,-144 30.0627,-144 216.0627,-144 216.0627,-144 222.0627,-144 228.0627,-150 228.0627,-156 228.0627,-156 228.0627,-168 228.0627,-168 228.0627,-174 222.0627,-180 216.0627,-180"/>
<text text-anchor="middle" x="123.0627" y="-159.5" font-family="sans" font-size="10.00" fill="#000000">get_sequencing_summary_per_barcode</text>
</g>
<!-- 3&#45;&gt;1 -->
<g id="edge4" class="edge">
<title>3&#45;&gt;1</title>
<path fill="none" stroke="#c0c0c0" stroke-width="2" d="M123.0627,-143.8314C123.0627,-136.131 123.0627,-126.9743 123.0627,-118.4166"/>
<polygon fill="#c0c0c0" stroke="#c0c0c0" stroke-width="2" points="126.5628,-118.4132 123.0627,-108.4133 119.5628,-118.4133 126.5628,-118.4132"/>
</g>
<!-- 4 -->
<g id="node5" class="node">
<title>4</title>
<path fill="none" stroke="#8fd856" stroke-width="2" d="M164.5627,-324C164.5627,-324 81.5627,-324 81.5627,-324 75.5627,-324 69.5627,-318 69.5627,-312 69.5627,-312 69.5627,-300 69.5627,-300 69.5627,-294 75.5627,-288 81.5627,-288 81.5627,-288 164.5627,-288 164.5627,-288 170.5627,-288 176.5627,-294 176.5627,-300 176.5627,-300 176.5627,-312 176.5627,-312 176.5627,-318 170.5627,-324 164.5627,-324"/>
<text text-anchor="middle" x="123.0627" y="-303.5" font-family="sans" font-size="10.00" fill="#000000">guppy_basecalling</text>
</g>
<!-- 4&#45;&gt;1 -->
<g id="edge3" class="edge">
<title>4&#45;&gt;1</title>
<path fill="none" stroke="#c0c0c0" stroke-width="2" d="M93.7693,-287.9351C49.7254,-258.4227 -24.9596,-197.7621 9.0627,-144 17.6455,-130.4375 30.6574,-120.2146 44.859,-112.5309"/>
<polygon fill="#c0c0c0" stroke="#c0c0c0" stroke-width="2" points="46.4335,-115.6568 53.8263,-108.0676 43.3143,-109.3902 46.4335,-115.6568"/>
</g>
<!-- 6 -->
<g id="node7" class="node">
<title>6</title>
<path fill="none" stroke="#d85656" stroke-width="2" d="M173.5627,-252C173.5627,-252 72.5627,-252 72.5627,-252 66.5627,-252 60.5627,-246 60.5627,-240 60.5627,-240 60.5627,-228 60.5627,-228 60.5627,-222 66.5627,-216 72.5627,-216 72.5627,-216 173.5627,-216 173.5627,-216 179.5627,-216 185.5627,-222 185.5627,-228 185.5627,-228 185.5627,-240 185.5627,-240 185.5627,-246 179.5627,-252 173.5627,-252"/>
<text text-anchor="middle" x="123.0627" y="-231.5" font-family="sans" font-size="10.00" fill="#000000">guppy_demultiplexing</text>
</g>
<!-- 4&#45;&gt;6 -->
<g id="edge8" class="edge">
<title>4&#45;&gt;6</title>
<path fill="none" stroke="#c0c0c0" stroke-width="2" d="M123.0627,-287.8314C123.0627,-280.131 123.0627,-270.9743 123.0627,-262.4166"/>
<polygon fill="#c0c0c0" stroke="#c0c0c0" stroke-width="2" points="126.5628,-262.4132 123.0627,-252.4133 119.5628,-262.4133 126.5628,-262.4132"/>
</g>
<!-- 7 -->
<g id="node8" class="node">
<title>7</title>
<path fill="none" stroke="#70d856" stroke-width="2" d="M317.5627,-252C317.5627,-252 234.5627,-252 234.5627,-252 228.5627,-252 222.5627,-246 222.5627,-240 222.5627,-240 222.5627,-228 222.5627,-228 222.5627,-222 228.5627,-216 234.5627,-216 234.5627,-216 317.5627,-216 317.5627,-216 323.5627,-216 329.5627,-222 329.5627,-228 329.5627,-228 329.5627,-240 329.5627,-240 329.5627,-246 323.5627,-252 317.5627,-252"/>
<text text-anchor="middle" x="276.0627" y="-231.5" font-family="sans" font-size="10.00" fill="#000000">minionqc_basecall</text>
</g>
<!-- 4&#45;&gt;7 -->
<g id="edge9" class="edge">
<title>4&#45;&gt;7</title>
<path fill="none" stroke="#c0c0c0" stroke-width="2" d="M161.6711,-287.8314C181.952,-278.2874 206.9865,-266.5065 228.4599,-256.4013"/>
<polygon fill="#c0c0c0" stroke="#c0c0c0" stroke-width="2" points="230.1741,-259.4629 237.732,-252.038 227.1935,-253.1291 230.1741,-259.4629"/>
</g>
<!-- 5 -->
<g id="node6" class="node">
<title>5</title>
<path fill="none" stroke="#5673d8" stroke-width="2" d="M333.5627,-180C333.5627,-180 258.5627,-180 258.5627,-180 252.5627,-180 246.5627,-174 246.5627,-168 246.5627,-168 246.5627,-156 246.5627,-156 246.5627,-150 252.5627,-144 258.5627,-144 258.5627,-144 333.5627,-144 333.5627,-144 339.5627,-144 345.5627,-150 345.5627,-156 345.5627,-156 345.5627,-168 345.5627,-168 345.5627,-174 339.5627,-180 333.5627,-180"/>
<text text-anchor="middle" x="296.0627" y="-159.5" font-family="sans" font-size="10.00" fill="#000000">multiqc_basecall</text>
</g>
<!-- 5&#45;&gt;2 -->
<g id="edge5" class="edge">
<title>5&#45;&gt;2</title>
<path fill="none" stroke="#c0c0c0" stroke-width="2" d="M292.2776,-143.8314C290.6733,-136.131 288.7657,-126.9743 286.9829,-118.4166"/>
<polygon fill="#c0c0c0" stroke="#c0c0c0" stroke-width="2" points="290.3649,-117.4892 284.8988,-108.4133 283.512,-118.9169 290.3649,-117.4892"/>
</g>
<!-- 6&#45;&gt;3 -->
<g id="edge6" class="edge">
<title>6&#45;&gt;3</title>
<path fill="none" stroke="#c0c0c0" stroke-width="2" d="M123.0627,-215.8314C123.0627,-208.131 123.0627,-198.9743 123.0627,-190.4166"/>
<polygon fill="#c0c0c0" stroke="#c0c0c0" stroke-width="2" points="126.5628,-190.4132 123.0627,-180.4133 119.5628,-190.4133 126.5628,-190.4132"/>
</g>
<!-- 7&#45;&gt;5 -->
<g id="edge7" class="edge">
<title>7&#45;&gt;5</title>
<path fill="none" stroke="#c0c0c0" stroke-width="2" d="M281.1096,-215.8314C283.2721,-208.0463 285.848,-198.7729 288.2475,-190.1347"/>
<polygon fill="#c0c0c0" stroke="#c0c0c0" stroke-width="2" points="291.6437,-190.9852 290.9479,-180.4133 284.8991,-189.1117 291.6437,-190.9852"/>
</g>
</g>
</svg>
