<?xml version="1.0" encoding="UTF-8" standalone="no"?>
<!DOCTYPE svg PUBLIC "-//W3C//DTD SVG 1.1//EN"
 "http://www.w3.org/Graphics/SVG/1.1/DTD/svg11.dtd">
<!-- Generated by graphviz version 2.42.3 (20191010.1750)
 -->
<!-- Title: snakemake_dag Pages: 1 -->
<svg width="501pt" height="476pt"
 viewBox="0.00 0.00 500.50 476.00" xmlns="http://www.w3.org/2000/svg" xmlns:xlink="http://www.w3.org/1999/xlink">
<g id="graph0" class="graph" transform="scale(1 1) rotate(0) translate(4 472)">
<title>snakemake_dag</title>
<polygon fill="white" stroke="transparent" points="-4,4 -4,-472 496.5,-472 496.5,4 -4,4"/>
<!-- 0 -->
<g id="node1" class="node">
<title>0</title>
<path fill="none" stroke="#d85656" stroke-width="2" d="M266,-36C266,-36 236,-36 236,-36 230,-36 224,-30 224,-24 224,-24 224,-12 224,-12 224,-6 230,0 236,0 236,0 266,0 266,0 272,0 278,-6 278,-12 278,-12 278,-24 278,-24 278,-30 272,-36 266,-36"/>
<text text-anchor="middle" x="251" y="-15.5" font-family="sans" font-size="10.00">finish</text>
</g>
<!-- 1 -->
<g id="node2" class="node">
<title>1</title>
<path fill="none" stroke="#70d856" stroke-width="2" d="M155.5,-180C155.5,-180 62.5,-180 62.5,-180 56.5,-180 50.5,-174 50.5,-168 50.5,-168 50.5,-156 50.5,-156 50.5,-150 56.5,-144 62.5,-144 62.5,-144 155.5,-144 155.5,-144 161.5,-144 167.5,-150 167.5,-156 167.5,-156 167.5,-168 167.5,-168 167.5,-174 161.5,-180 155.5,-180"/>
<text text-anchor="middle" x="109" y="-159.5" font-family="sans" font-size="10.00">multiqc_demultiplex</text>
</g>
<!-- 1&#45;&gt;0 -->
<g id="edge3" class="edge">
<title>1&#45;&gt;0</title>
<path fill="none" stroke="grey" stroke-width="2" d="M134.48,-143.98C148.3,-134.2 165.31,-121.25 179,-108 199.34,-88.31 219.33,-62.97 233.07,-44.38"/>
<polygon fill="grey" stroke="grey" stroke-width="2" points="236.05,-46.24 239.1,-36.09 230.39,-42.12 236.05,-46.24"/>
</g>
<!-- 4 -->
<g id="node5" class="node">
<title>4</title>
<path fill="none" stroke="#8fd856" stroke-width="2" d="M158,-108C158,-108 72,-108 72,-108 66,-108 60,-102 60,-96 60,-96 60,-84 60,-84 60,-78 66,-72 72,-72 72,-72 158,-72 158,-72 164,-72 170,-78 170,-84 170,-84 170,-96 170,-96 170,-102 164,-108 158,-108"/>
<text text-anchor="middle" x="115" y="-87.5" font-family="sans" font-size="10.00">report_demultiplex</text>
</g>
<!-- 1&#45;&gt;4 -->
<g id="edge10" class="edge">
<title>1&#45;&gt;4</title>
<path fill="none" stroke="grey" stroke-width="2" d="M110.48,-143.7C111.14,-135.98 111.94,-126.71 112.68,-118.11"/>
<polygon fill="grey" stroke="grey" stroke-width="2" points="116.17,-118.37 113.53,-108.1 109.19,-117.77 116.17,-118.37"/>
</g>
<!-- 2 -->
<g id="node3" class="node">
<title>2</title>
<path fill="none" stroke="#56c9d8" stroke-width="2" d="M412,-252C412,-252 278,-252 278,-252 272,-252 266,-246 266,-240 266,-240 266,-228 266,-228 266,-222 272,-216 278,-216 278,-216 412,-216 412,-216 418,-216 424,-222 424,-228 424,-228 424,-240 424,-240 424,-246 418,-252 412,-252"/>
<text text-anchor="middle" x="345" y="-231.5" font-family="sans" font-size="10.00">get_multi_fast5_per_barcode</text>
</g>
<!-- 2&#45;&gt;0 -->
<g id="edge4" class="edge">
<title>2&#45;&gt;0</title>
<path fill="none" stroke="grey" stroke-width="2" d="M342.77,-215.8C340.03,-197.51 334.52,-167.99 325,-144 310.5,-107.47 286.23,-69.08 269.46,-44.65"/>
<polygon fill="grey" stroke="grey" stroke-width="2" points="272.23,-42.51 263.65,-36.3 266.49,-46.51 272.23,-42.51"/>
</g>
<!-- 5 -->
<g id="node6" class="node">
<title>5</title>
<path fill="none" stroke="#afd856" stroke-width="2" d="M304.5,-180C304.5,-180 197.5,-180 197.5,-180 191.5,-180 185.5,-174 185.5,-168 185.5,-168 185.5,-156 185.5,-156 185.5,-150 191.5,-144 197.5,-144 197.5,-144 304.5,-144 304.5,-144 310.5,-144 316.5,-150 316.5,-156 316.5,-156 316.5,-168 316.5,-168 316.5,-174 310.5,-180 304.5,-180"/>
<text text-anchor="middle" x="251" y="-159.5" font-family="sans" font-size="10.00">get_reads_per_genome</text>
</g>
<!-- 2&#45;&gt;5 -->
<g id="edge12" class="edge">
<title>2&#45;&gt;5</title>
<path fill="none" stroke="grey" stroke-width="2" d="M321.76,-215.7C309.81,-206.8 295.08,-195.82 282.15,-186.2"/>
<polygon fill="grey" stroke="grey" stroke-width="2" points="284.08,-183.27 273.97,-180.1 279.9,-188.88 284.08,-183.27"/>
</g>
<!-- 3 -->
<g id="node4" class="node">
<title>3</title>
<path fill="none" stroke="#5692d8" stroke-width="2" d="M474.5,-108C474.5,-108 399.5,-108 399.5,-108 393.5,-108 387.5,-102 387.5,-96 387.5,-96 387.5,-84 387.5,-84 387.5,-78 393.5,-72 399.5,-72 399.5,-72 474.5,-72 474.5,-72 480.5,-72 486.5,-78 486.5,-84 486.5,-84 486.5,-96 486.5,-96 486.5,-102 480.5,-108 474.5,-108"/>
<text text-anchor="middle" x="437" y="-87.5" font-family="sans" font-size="10.00">multiqc_basecall</text>
</g>
<!-- 3&#45;&gt;0 -->
<g id="edge5" class="edge">
<title>3&#45;&gt;0</title>
<path fill="none" stroke="grey" stroke-width="2" d="M391.5,-71.88C359.61,-59.88 317.54,-44.04 287.78,-32.84"/>
<polygon fill="grey" stroke="grey" stroke-width="2" points="288.78,-29.48 278.18,-29.23 286.31,-36.03 288.78,-29.48"/>
</g>
<!-- 4&#45;&gt;0 -->
<g id="edge2" class="edge">
<title>4&#45;&gt;0</title>
<path fill="none" stroke="grey" stroke-width="2" d="M148.27,-71.88C168.32,-61.56 193.87,-48.4 214.48,-37.8"/>
<polygon fill="grey" stroke="grey" stroke-width="2" points="216.27,-40.81 223.56,-33.12 213.07,-34.59 216.27,-40.81"/>
</g>
<!-- 5&#45;&gt;0 -->
<g id="edge1" class="edge">
<title>5&#45;&gt;0</title>
<path fill="none" stroke="grey" stroke-width="2" d="M251,-143.87C251,-119.67 251,-75.21 251,-46.39"/>
<polygon fill="grey" stroke="grey" stroke-width="2" points="254.5,-46.19 251,-36.19 247.5,-46.19 254.5,-46.19"/>
</g>
<!-- 6 -->
<g id="node7" class="node">
<title>6</title>
<path fill="none" stroke="#5673d8" stroke-width="2" d="M157.5,-252C157.5,-252 56.5,-252 56.5,-252 50.5,-252 44.5,-246 44.5,-240 44.5,-240 44.5,-228 44.5,-228 44.5,-222 50.5,-216 56.5,-216 56.5,-216 157.5,-216 157.5,-216 163.5,-216 169.5,-222 169.5,-228 169.5,-228 169.5,-240 169.5,-240 169.5,-246 163.5,-252 157.5,-252"/>
<text text-anchor="middle" x="107" y="-231.5" font-family="sans" font-size="10.00">minionqc_demultiplex</text>
</g>
<!-- 6&#45;&gt;1 -->
<g id="edge6" class="edge">
<title>6&#45;&gt;1</title>
<path fill="none" stroke="grey" stroke-width="2" d="M107.49,-215.7C107.71,-207.98 107.98,-198.71 108.23,-190.11"/>
<polygon fill="grey" stroke="grey" stroke-width="2" points="111.72,-190.2 108.51,-180.1 104.73,-190 111.72,-190.2"/>
</g>
<!-- 7 -->
<g id="node8" class="node">
<title>7</title>
<path fill="none" stroke="#59d856" stroke-width="2" d="M198,-324C198,-324 12,-324 12,-324 6,-324 0,-318 0,-312 0,-312 0,-300 0,-300 0,-294 6,-288 12,-288 12,-288 198,-288 198,-288 204,-288 210,-294 210,-300 210,-300 210,-312 210,-312 210,-318 204,-324 198,-324"/>
<text text-anchor="middle" x="105" y="-303.5" font-family="sans" font-size="10.00">get_sequencing_summary_per_barcode</text>
</g>
<!-- 7&#45;&gt;2 -->
<g id="edge7" class="edge">
<title>7&#45;&gt;2</title>
<path fill="none" stroke="grey" stroke-width="2" d="M163.4,-287.97C197.52,-278.01 240.75,-265.41 276.47,-254.99"/>
<polygon fill="grey" stroke="grey" stroke-width="2" points="277.71,-258.27 286.33,-252.11 275.75,-251.55 277.71,-258.27"/>
</g>
<!-- 7&#45;&gt;6 -->
<g id="edge13" class="edge">
<title>7&#45;&gt;6</title>
<path fill="none" stroke="grey" stroke-width="2" d="M105.49,-287.7C105.71,-279.98 105.98,-270.71 106.23,-262.11"/>
<polygon fill="grey" stroke="grey" stroke-width="2" points="109.72,-262.2 106.51,-252.1 102.73,-262 109.72,-262.2"/>
</g>
<!-- 8 -->
<g id="node9" class="node">
<title>8</title>
<path fill="none" stroke="#56d873" stroke-width="2" d="M386.5,-468C386.5,-468 303.5,-468 303.5,-468 297.5,-468 291.5,-462 291.5,-456 291.5,-456 291.5,-444 291.5,-444 291.5,-438 297.5,-432 303.5,-432 303.5,-432 386.5,-432 386.5,-432 392.5,-432 398.5,-438 398.5,-444 398.5,-444 398.5,-456 398.5,-456 398.5,-462 392.5,-468 386.5,-468"/>
<text text-anchor="middle" x="345" y="-447.5" font-family="sans" font-size="10.00">guppy_basecalling</text>
</g>
<!-- 8&#45;&gt;2 -->
<g id="edge8" class="edge">
<title>8&#45;&gt;2</title>
<path fill="none" stroke="grey" stroke-width="2" d="M345,-431.85C345,-394.83 345,-307.18 345,-262.39"/>
<polygon fill="grey" stroke="grey" stroke-width="2" points="348.5,-262.23 345,-252.23 341.5,-262.23 348.5,-262.23"/>
</g>
<!-- 9 -->
<g id="node10" class="node">
<title>9</title>
<path fill="none" stroke="#56a9d8" stroke-width="2" d="M480.5,-396C480.5,-396 397.5,-396 397.5,-396 391.5,-396 385.5,-390 385.5,-384 385.5,-384 385.5,-372 385.5,-372 385.5,-366 391.5,-360 397.5,-360 397.5,-360 480.5,-360 480.5,-360 486.5,-360 492.5,-366 492.5,-372 492.5,-372 492.5,-384 492.5,-384 492.5,-390 486.5,-396 480.5,-396"/>
<text text-anchor="middle" x="439" y="-375.5" font-family="sans" font-size="10.00">minionqc_basecall</text>
</g>
<!-- 8&#45;&gt;9 -->
<g id="edge15" class="edge">
<title>8&#45;&gt;9</title>
<path fill="none" stroke="grey" stroke-width="2" d="M368.24,-431.7C380.19,-422.8 394.92,-411.82 407.85,-402.2"/>
<polygon fill="grey" stroke="grey" stroke-width="2" points="410.1,-404.88 416.03,-396.1 405.92,-399.27 410.1,-404.88"/>
</g>
<!-- 10 -->
<g id="node11" class="node">
<title>10</title>
<path fill="none" stroke="#56d892" stroke-width="2" d="M288.5,-396C288.5,-396 187.5,-396 187.5,-396 181.5,-396 175.5,-390 175.5,-384 175.5,-384 175.5,-372 175.5,-372 175.5,-366 181.5,-360 187.5,-360 187.5,-360 288.5,-360 288.5,-360 294.5,-360 300.5,-366 300.5,-372 300.5,-372 300.5,-384 300.5,-384 300.5,-390 294.5,-396 288.5,-396"/>
<text text-anchor="middle" x="238" y="-375.5" font-family="sans" font-size="10.00">guppy_demultiplexing</text>
</g>
<!-- 8&#45;&gt;10 -->
<g id="edge16" class="edge">
<title>8&#45;&gt;10</title>
<path fill="none" stroke="grey" stroke-width="2" d="M318.82,-431.88C304.96,-422.81 287.76,-411.55 272.79,-401.76"/>
<polygon fill="grey" stroke="grey" stroke-width="2" points="274.56,-398.74 264.28,-396.19 270.73,-404.59 274.56,-398.74"/>
</g>
<!-- 9&#45;&gt;3 -->
<g id="edge9" class="edge">
<title>9&#45;&gt;3</title>
<path fill="none" stroke="grey" stroke-width="2" d="M438.88,-359.97C438.55,-312.29 437.6,-177.18 437.19,-118.63"/>
<polygon fill="grey" stroke="grey" stroke-width="2" points="440.69,-118.28 437.12,-108.31 433.69,-118.33 440.69,-118.28"/>
</g>
<!-- 10&#45;&gt;5 -->
<g id="edge11" class="edge">
<title>10&#45;&gt;5</title>
<path fill="none" stroke="grey" stroke-width="2" d="M239.04,-359.85C241.29,-322.83 246.62,-235.18 249.34,-190.39"/>
<polygon fill="grey" stroke="grey" stroke-width="2" points="252.84,-190.43 249.95,-180.23 245.85,-190 252.84,-190.43"/>
</g>
<!-- 10&#45;&gt;7 -->
<g id="edge14" class="edge">
<title>10&#45;&gt;7</title>
<path fill="none" stroke="grey" stroke-width="2" d="M205.46,-359.88C187.75,-350.55 165.65,-338.92 146.68,-328.94"/>
<polygon fill="grey" stroke="grey" stroke-width="2" points="148.14,-325.75 137.66,-324.19 144.88,-331.94 148.14,-325.75"/>
</g>
</g>
</svg>
