<?xml version="1.0" encoding="UTF-8" standalone="no"?>
<!DOCTYPE svg PUBLIC "-//W3C//DTD SVG 1.1//EN"
 "http://www.w3.org/Graphics/SVG/1.1/DTD/svg11.dtd">
<!-- Generated by graphviz version 2.40.1 (20161225.0304)
 -->
<!-- Title: snakemake_dag Pages: 1 -->
<svg width="388pt" height="404pt"
 viewBox="0.00 0.00 387.50 404.00" xmlns="http://www.w3.org/2000/svg" xmlns:xlink="http://www.w3.org/1999/xlink">
<g id="graph0" class="graph" transform="scale(1 1) rotate(0) translate(4 400)">
<title>snakemake_dag</title>
<polygon fill="#ffffff" stroke="transparent" points="-4,4 -4,-400 383.5,-400 383.5,4 -4,4"/>
<!-- 0 -->
<g id="node1" class="node">
<title>0</title>
<path fill="none" stroke="#56d0d8" stroke-width="2" d="M163.5,-36C163.5,-36 133.5,-36 133.5,-36 127.5,-36 121.5,-30 121.5,-24 121.5,-24 121.5,-12 121.5,-12 121.5,-6 127.5,0 133.5,0 133.5,0 163.5,0 163.5,0 169.5,0 175.5,-6 175.5,-12 175.5,-12 175.5,-24 175.5,-24 175.5,-30 169.5,-36 163.5,-36"/>
<text text-anchor="middle" x="148.5" y="-15.5" font-family="sans" font-size="10.00" fill="#000000">finish</text>
</g>
<!-- 1 -->
<g id="node2" class="node">
<title>1</title>
<path fill="none" stroke="#9fd856" stroke-width="2" d="M94,-108C94,-108 19,-108 19,-108 13,-108 7,-102 7,-96 7,-96 7,-84 7,-84 7,-78 13,-72 19,-72 19,-72 94,-72 94,-72 100,-72 106,-78 106,-84 106,-84 106,-96 106,-96 106,-102 100,-108 94,-108"/>
<text text-anchor="middle" x="56.5" y="-87.5" font-family="sans" font-size="10.00" fill="#000000">multiqc_basecall</text>
</g>
<!-- 1&#45;&gt;0 -->
<g id="edge3" class="edge">
<title>1&#45;&gt;0</title>
<path fill="none" stroke="#c0c0c0" stroke-width="2" d="M79.7155,-71.8314C91.047,-62.9632 104.8464,-52.1637 117.1027,-42.5718"/>
<polygon fill="#c0c0c0" stroke="#c0c0c0" stroke-width="2" points="119.574,-45.0822 125.2919,-36.1628 115.2598,-39.5697 119.574,-45.0822"/>
</g>
<!-- 2 -->
<g id="node3" class="node">
<title>2</title>
<path fill="none" stroke="#56d8c1" stroke-width="2" d="M318,-108C318,-108 225,-108 225,-108 219,-108 213,-102 213,-96 213,-96 213,-84 213,-84 213,-78 219,-72 225,-72 225,-72 318,-72 318,-72 324,-72 330,-78 330,-84 330,-84 330,-96 330,-96 330,-102 324,-108 318,-108"/>
<text text-anchor="middle" x="271.5" y="-87.5" font-family="sans" font-size="10.00" fill="#000000">multiqc_demultiplex</text>
</g>
<!-- 2&#45;&gt;0 -->
<g id="edge2" class="edge">
<title>2&#45;&gt;0</title>
<path fill="none" stroke="#c0c0c0" stroke-width="2" d="M240.4619,-71.8314C223.4929,-61.8983 202.3846,-49.5422 184.6724,-39.1741"/>
<polygon fill="#c0c0c0" stroke="#c0c0c0" stroke-width="2" points="186.1578,-35.9881 175.7595,-33.9568 182.6215,-42.0292 186.1578,-35.9881"/>
</g>
<!-- 3 -->
<g id="node4" class="node">
<title>3</title>
<path fill="none" stroke="#56d863" stroke-width="2" d="M215.5,-180C215.5,-180 81.5,-180 81.5,-180 75.5,-180 69.5,-174 69.5,-168 69.5,-168 69.5,-156 69.5,-156 69.5,-150 75.5,-144 81.5,-144 81.5,-144 215.5,-144 215.5,-144 221.5,-144 227.5,-150 227.5,-156 227.5,-156 227.5,-168 227.5,-168 227.5,-174 221.5,-180 215.5,-180"/>
<text text-anchor="middle" x="148.5" y="-159.5" font-family="sans" font-size="10.00" fill="#000000">get_multi_fast5_per_barcode</text>
</g>
<!-- 3&#45;&gt;0 -->
<g id="edge1" class="edge">
<title>3&#45;&gt;0</title>
<path fill="none" stroke="#c0c0c0" stroke-width="2" d="M148.5,-143.7623C148.5,-119.201 148.5,-75.2474 148.5,-46.3541"/>
<polygon fill="#c0c0c0" stroke="#c0c0c0" stroke-width="2" points="152.0001,-46.0896 148.5,-36.0896 145.0001,-46.0897 152.0001,-46.0896"/>
</g>
<!-- 4 -->
<g id="node5" class="node">
<title>4</title>
<path fill="none" stroke="#56b1d8" stroke-width="2" d="M95,-252C95,-252 12,-252 12,-252 6,-252 0,-246 0,-240 0,-240 0,-228 0,-228 0,-222 6,-216 12,-216 12,-216 95,-216 95,-216 101,-216 107,-222 107,-228 107,-228 107,-240 107,-240 107,-246 101,-252 95,-252"/>
<text text-anchor="middle" x="53.5" y="-231.5" font-family="sans" font-size="10.00" fill="#000000">minionqc_basecall</text>
</g>
<!-- 4&#45;&gt;1 -->
<g id="edge4" class="edge">
<title>4&#45;&gt;1</title>
<path fill="none" stroke="#c0c0c0" stroke-width="2" d="M53.88,-215.7623C54.3916,-191.201 55.3073,-147.2474 55.9093,-118.3541"/>
<polygon fill="#c0c0c0" stroke="#c0c0c0" stroke-width="2" points="59.414,-118.1604 56.1231,-108.0896 52.4155,-118.0145 59.414,-118.1604"/>
</g>
<!-- 5 -->
<g id="node6" class="node">
<title>5</title>
<path fill="none" stroke="#88d856" stroke-width="2" d="M358,-180C358,-180 257,-180 257,-180 251,-180 245,-174 245,-168 245,-168 245,-156 245,-156 245,-150 251,-144 257,-144 257,-144 358,-144 358,-144 364,-144 370,-150 370,-156 370,-156 370,-168 370,-168 370,-174 364,-180 358,-180"/>
<text text-anchor="middle" x="307.5" y="-159.5" font-family="sans" font-size="10.00" fill="#000000">minionqc_demultiplex</text>
</g>
<!-- 5&#45;&gt;2 -->
<g id="edge5" class="edge">
<title>5&#45;&gt;2</title>
<path fill="none" stroke="#c0c0c0" stroke-width="2" d="M298.4157,-143.8314C294.4385,-135.8771 289.6845,-126.369 285.2861,-117.5723"/>
<polygon fill="#c0c0c0" stroke="#c0c0c0" stroke-width="2" points="288.3093,-115.7923 280.7066,-108.4133 282.0483,-118.9228 288.3093,-115.7923"/>
</g>
<!-- 6 -->
<g id="node7" class="node">
<title>6</title>
<path fill="none" stroke="#5673d8" stroke-width="2" d="M367.5,-252C367.5,-252 181.5,-252 181.5,-252 175.5,-252 169.5,-246 169.5,-240 169.5,-240 169.5,-228 169.5,-228 169.5,-222 175.5,-216 181.5,-216 181.5,-216 367.5,-216 367.5,-216 373.5,-216 379.5,-222 379.5,-228 379.5,-228 379.5,-240 379.5,-240 379.5,-246 373.5,-252 367.5,-252"/>
<text text-anchor="middle" x="274.5" y="-231.5" font-family="sans" font-size="10.00" fill="#000000">get_sequencing_summary_per_barcode</text>
</g>
<!-- 6&#45;&gt;3 -->
<g id="edge7" class="edge">
<title>6&#45;&gt;3</title>
<path fill="none" stroke="#c0c0c0" stroke-width="2" d="M242.7049,-215.8314C226.4395,-206.5368 206.4614,-195.1208 189.0949,-185.1971"/>
<polygon fill="#c0c0c0" stroke="#c0c0c0" stroke-width="2" points="190.7039,-182.0854 180.2849,-180.1628 187.2309,-188.1631 190.7039,-182.0854"/>
</g>
<!-- 6&#45;&gt;5 -->
<g id="edge9" class="edge">
<title>6&#45;&gt;5</title>
<path fill="none" stroke="#c0c0c0" stroke-width="2" d="M282.8273,-215.8314C286.473,-207.8771 290.8309,-198.369 294.8627,-189.5723"/>
<polygon fill="#c0c0c0" stroke="#c0c0c0" stroke-width="2" points="298.0757,-190.9622 299.0606,-180.4133 291.7123,-188.0456 298.0757,-190.9622"/>
</g>
<!-- 7 -->
<g id="node8" class="node">
<title>7</title>
<path fill="none" stroke="#5692d8" stroke-width="2" d="M183,-396C183,-396 100,-396 100,-396 94,-396 88,-390 88,-384 88,-384 88,-372 88,-372 88,-366 94,-360 100,-360 100,-360 183,-360 183,-360 189,-360 195,-366 195,-372 195,-372 195,-384 195,-384 195,-390 189,-396 183,-396"/>
<text text-anchor="middle" x="141.5" y="-375.5" font-family="sans" font-size="10.00" fill="#000000">guppy_basecalling</text>
</g>
<!-- 7&#45;&gt;3 -->
<g id="edge6" class="edge">
<title>7&#45;&gt;3</title>
<path fill="none" stroke="#c0c0c0" stroke-width="2" d="M142.0848,-359.9555C143.3021,-322.3938 146.1163,-235.5541 147.5793,-190.4103"/>
<polygon fill="#c0c0c0" stroke="#c0c0c0" stroke-width="2" points="151.0861,-190.2532 147.912,-180.1451 144.0898,-190.0264 151.0861,-190.2532"/>
</g>
<!-- 7&#45;&gt;4 -->
<g id="edge8" class="edge">
<title>7&#45;&gt;4</title>
<path fill="none" stroke="#c0c0c0" stroke-width="2" d="M130.3547,-359.7623C115.0806,-334.7682 87.5342,-289.6924 69.9028,-260.8409"/>
<polygon fill="#c0c0c0" stroke="#c0c0c0" stroke-width="2" points="72.7558,-258.7974 64.5548,-252.0896 66.7828,-262.4475 72.7558,-258.7974"/>
</g>
<!-- 8 -->
<g id="node9" class="node">
<title>8</title>
<path fill="none" stroke="#56d8a2" stroke-width="2" d="M304,-324C304,-324 203,-324 203,-324 197,-324 191,-318 191,-312 191,-312 191,-300 191,-300 191,-294 197,-288 203,-288 203,-288 304,-288 304,-288 310,-288 316,-294 316,-300 316,-300 316,-312 316,-312 316,-318 310,-324 304,-324"/>
<text text-anchor="middle" x="253.5" y="-303.5" font-family="sans" font-size="10.00" fill="#000000">guppy_demultiplexing</text>
</g>
<!-- 7&#45;&gt;8 -->
<g id="edge11" class="edge">
<title>7&#45;&gt;8</title>
<path fill="none" stroke="#c0c0c0" stroke-width="2" d="M169.7623,-359.8314C183.9552,-350.7074 201.3282,-339.539 216.5636,-329.7449"/>
<polygon fill="#c0c0c0" stroke="#c0c0c0" stroke-width="2" points="218.7276,-332.5146 225.2467,-324.1628 214.9422,-326.6263 218.7276,-332.5146"/>
</g>
<!-- 8&#45;&gt;6 -->
<g id="edge10" class="edge">
<title>8&#45;&gt;6</title>
<path fill="none" stroke="#c0c0c0" stroke-width="2" d="M258.7992,-287.8314C261.0698,-280.0463 263.7746,-270.7729 266.294,-262.1347"/>
<polygon fill="#c0c0c0" stroke="#c0c0c0" stroke-width="2" points="269.6894,-262.9933 269.1295,-252.4133 262.9694,-261.0332 269.6894,-262.9933"/>
</g>
</g>
</svg>
